G04 #@! TF.GenerationSoftware,KiCad,Pcbnew,(5.1.2)-2*
G04 #@! TF.CreationDate,2019-09-22T20:35:15+02:00*
G04 #@! TF.ProjectId,PowerSupply,506f7765-7253-4757-9070-6c792e6b6963,rev?*
G04 #@! TF.SameCoordinates,Original*
G04 #@! TF.FileFunction,Copper,L2,Bot*
G04 #@! TF.FilePolarity,Positive*
%FSLAX46Y46*%
G04 Gerber Fmt 4.6, Leading zero omitted, Abs format (unit mm)*
G04 Created by KiCad (PCBNEW (5.1.2)-2) date 2019-09-22 20:35:15*
%MOMM*%
%LPD*%
G04 APERTURE LIST*
%ADD10C,4.500880*%
%ADD11C,1.998980*%
%ADD12R,1.700000X1.700000*%
%ADD13O,1.700000X1.700000*%
%ADD14C,0.100000*%
%ADD15C,0.975000*%
%ADD16R,1.905000X2.000000*%
%ADD17O,1.905000X2.000000*%
%ADD18C,1.500000*%
%ADD19R,1.600000X1.600000*%
%ADD20C,1.600000*%
%ADD21C,4.000000*%
%ADD22C,1.000000*%
%ADD23C,0.304800*%
%ADD24C,0.254000*%
%ADD25C,0.508000*%
G04 APERTURE END LIST*
D10*
X115400000Y-70400000D03*
D11*
X109400000Y-89800000D03*
D10*
X115400000Y-77400000D03*
D12*
X78100000Y-121800000D03*
D13*
X80640000Y-121800000D03*
X83180000Y-121800000D03*
X85720000Y-121800000D03*
X88260000Y-121800000D03*
D12*
X107200000Y-121800000D03*
D13*
X109740000Y-121800000D03*
X112280000Y-121800000D03*
X114820000Y-121800000D03*
X101820000Y-121800000D03*
X99280000Y-121800000D03*
X96740000Y-121800000D03*
D12*
X94200000Y-121800000D03*
X116200000Y-117700000D03*
D13*
X113660000Y-117700000D03*
X111120000Y-117700000D03*
X108580000Y-117700000D03*
X106040000Y-117700000D03*
X103500000Y-117700000D03*
X100960000Y-117700000D03*
X98420000Y-117700000D03*
X95880000Y-117700000D03*
X93340000Y-117700000D03*
X90800000Y-117700000D03*
X88260000Y-117700000D03*
X85720000Y-117700000D03*
X83180000Y-117700000D03*
X80640000Y-117700000D03*
X78100000Y-117700000D03*
D14*
G36*
X91680142Y-120138674D02*
G01*
X91703803Y-120142184D01*
X91727007Y-120147996D01*
X91749529Y-120156054D01*
X91771153Y-120166282D01*
X91791670Y-120178579D01*
X91810883Y-120192829D01*
X91828607Y-120208893D01*
X91844671Y-120226617D01*
X91858921Y-120245830D01*
X91871218Y-120266347D01*
X91881446Y-120287971D01*
X91889504Y-120310493D01*
X91895316Y-120333697D01*
X91898826Y-120357358D01*
X91900000Y-120381250D01*
X91900000Y-120868750D01*
X91898826Y-120892642D01*
X91895316Y-120916303D01*
X91889504Y-120939507D01*
X91881446Y-120962029D01*
X91871218Y-120983653D01*
X91858921Y-121004170D01*
X91844671Y-121023383D01*
X91828607Y-121041107D01*
X91810883Y-121057171D01*
X91791670Y-121071421D01*
X91771153Y-121083718D01*
X91749529Y-121093946D01*
X91727007Y-121102004D01*
X91703803Y-121107816D01*
X91680142Y-121111326D01*
X91656250Y-121112500D01*
X90743750Y-121112500D01*
X90719858Y-121111326D01*
X90696197Y-121107816D01*
X90672993Y-121102004D01*
X90650471Y-121093946D01*
X90628847Y-121083718D01*
X90608330Y-121071421D01*
X90589117Y-121057171D01*
X90571393Y-121041107D01*
X90555329Y-121023383D01*
X90541079Y-121004170D01*
X90528782Y-120983653D01*
X90518554Y-120962029D01*
X90510496Y-120939507D01*
X90504684Y-120916303D01*
X90501174Y-120892642D01*
X90500000Y-120868750D01*
X90500000Y-120381250D01*
X90501174Y-120357358D01*
X90504684Y-120333697D01*
X90510496Y-120310493D01*
X90518554Y-120287971D01*
X90528782Y-120266347D01*
X90541079Y-120245830D01*
X90555329Y-120226617D01*
X90571393Y-120208893D01*
X90589117Y-120192829D01*
X90608330Y-120178579D01*
X90628847Y-120166282D01*
X90650471Y-120156054D01*
X90672993Y-120147996D01*
X90696197Y-120142184D01*
X90719858Y-120138674D01*
X90743750Y-120137500D01*
X91656250Y-120137500D01*
X91680142Y-120138674D01*
X91680142Y-120138674D01*
G37*
D15*
X91200000Y-120625000D03*
D14*
G36*
X91680142Y-122013674D02*
G01*
X91703803Y-122017184D01*
X91727007Y-122022996D01*
X91749529Y-122031054D01*
X91771153Y-122041282D01*
X91791670Y-122053579D01*
X91810883Y-122067829D01*
X91828607Y-122083893D01*
X91844671Y-122101617D01*
X91858921Y-122120830D01*
X91871218Y-122141347D01*
X91881446Y-122162971D01*
X91889504Y-122185493D01*
X91895316Y-122208697D01*
X91898826Y-122232358D01*
X91900000Y-122256250D01*
X91900000Y-122743750D01*
X91898826Y-122767642D01*
X91895316Y-122791303D01*
X91889504Y-122814507D01*
X91881446Y-122837029D01*
X91871218Y-122858653D01*
X91858921Y-122879170D01*
X91844671Y-122898383D01*
X91828607Y-122916107D01*
X91810883Y-122932171D01*
X91791670Y-122946421D01*
X91771153Y-122958718D01*
X91749529Y-122968946D01*
X91727007Y-122977004D01*
X91703803Y-122982816D01*
X91680142Y-122986326D01*
X91656250Y-122987500D01*
X90743750Y-122987500D01*
X90719858Y-122986326D01*
X90696197Y-122982816D01*
X90672993Y-122977004D01*
X90650471Y-122968946D01*
X90628847Y-122958718D01*
X90608330Y-122946421D01*
X90589117Y-122932171D01*
X90571393Y-122916107D01*
X90555329Y-122898383D01*
X90541079Y-122879170D01*
X90528782Y-122858653D01*
X90518554Y-122837029D01*
X90510496Y-122814507D01*
X90504684Y-122791303D01*
X90501174Y-122767642D01*
X90500000Y-122743750D01*
X90500000Y-122256250D01*
X90501174Y-122232358D01*
X90504684Y-122208697D01*
X90510496Y-122185493D01*
X90518554Y-122162971D01*
X90528782Y-122141347D01*
X90541079Y-122120830D01*
X90555329Y-122101617D01*
X90571393Y-122083893D01*
X90589117Y-122067829D01*
X90608330Y-122053579D01*
X90628847Y-122041282D01*
X90650471Y-122031054D01*
X90672993Y-122022996D01*
X90696197Y-122017184D01*
X90719858Y-122013674D01*
X90743750Y-122012500D01*
X91656250Y-122012500D01*
X91680142Y-122013674D01*
X91680142Y-122013674D01*
G37*
D15*
X91200000Y-122500000D03*
D16*
X98400000Y-67400000D03*
D17*
X100940000Y-67400000D03*
X103480000Y-67400000D03*
D18*
X95700000Y-109500000D03*
X95700000Y-104620000D03*
D10*
X78800000Y-77400000D03*
X78800000Y-70400000D03*
D19*
X92900000Y-72900000D03*
D20*
X92900000Y-75400000D03*
D21*
X122000000Y-67000000D03*
X122000000Y-120000000D03*
X72000000Y-67000000D03*
X72000000Y-120000000D03*
D22*
X84800000Y-84100000D03*
X100400000Y-82200000D03*
X102400000Y-108000000D03*
X78300000Y-94000000D03*
X91200000Y-95800000D03*
X89500000Y-99000000D03*
X96400000Y-98800000D03*
X101600000Y-93400000D03*
X99600000Y-89900000D03*
X104900000Y-89000000D03*
X108900000Y-92500000D03*
X103900000Y-76650000D03*
X99400000Y-76400000D03*
X112310000Y-119610000D03*
X82276385Y-99833026D03*
X79000000Y-106400000D03*
X91000000Y-115700000D03*
X86600000Y-119600000D03*
X97300000Y-116000000D03*
X94700000Y-115800000D03*
X101600000Y-115500000D03*
X102200000Y-104100000D03*
X93800000Y-104000000D03*
X95400000Y-76400000D03*
X93150000Y-85900000D03*
X97400000Y-86150000D03*
X103650000Y-86150000D03*
X107400000Y-83150000D03*
X112650000Y-86650000D03*
X113900000Y-84400000D03*
X89900000Y-86150000D03*
X80150000Y-85900000D03*
X83150000Y-89150000D03*
X89150000Y-90400000D03*
X113400000Y-98150000D03*
X113400000Y-103400000D03*
X78400000Y-83400000D03*
X89900000Y-89000000D03*
X100400000Y-95800000D03*
X114850000Y-113050000D03*
X106800000Y-89000000D03*
X105800000Y-98400000D03*
X89700000Y-109500000D03*
X84000000Y-91400000D03*
X113900000Y-81500000D03*
X92900000Y-99500000D03*
X88100000Y-95400000D03*
X86200000Y-103000000D03*
X90333805Y-100760586D03*
X89140521Y-101146097D03*
X86626833Y-99352256D03*
X85373248Y-99384979D03*
X84106410Y-99400000D03*
X84439742Y-104149004D03*
X87492975Y-104460694D03*
X83186584Y-104195275D03*
X83106319Y-105446715D03*
X83597680Y-106600452D03*
X83300000Y-107900000D03*
X86800000Y-107949936D03*
X85355818Y-108062324D03*
X83200000Y-111400000D03*
X82712765Y-98657391D03*
X110800000Y-93400000D03*
X104600000Y-99800000D03*
X105890325Y-80278899D03*
X91600000Y-80500000D03*
D23*
X98592894Y-82200000D02*
X86700000Y-82200000D01*
X86700000Y-82200000D02*
X84800000Y-84100000D01*
D24*
X98592894Y-82200000D02*
X100400000Y-82200000D01*
D25*
X93600000Y-89000000D02*
X100400000Y-95800000D01*
X89900000Y-89000000D02*
X93600000Y-89000000D01*
X100400000Y-96507106D02*
X102600000Y-98707106D01*
X100400000Y-95800000D02*
X100400000Y-96507106D01*
X102600000Y-98707106D02*
X102600000Y-100800000D01*
X102600000Y-100800000D02*
X114850000Y-113050000D01*
D24*
X106800000Y-89000000D02*
X105800000Y-90000000D01*
X105800000Y-90000000D02*
X105800000Y-98400000D01*
D23*
X92156401Y-119156401D02*
X92800000Y-119800000D01*
X106045200Y-121800000D02*
X107200000Y-121800000D01*
X104045200Y-119800000D02*
X106045200Y-121800000D01*
X92800000Y-119800000D02*
X104045200Y-119800000D01*
X109740000Y-121800000D02*
X107200000Y-121800000D01*
X92081099Y-119156401D02*
X92156401Y-119156401D01*
X91200000Y-120037500D02*
X92081099Y-119156401D01*
X91200000Y-120625000D02*
X91200000Y-120037500D01*
X92081099Y-111881099D02*
X92081099Y-116218901D01*
X89700000Y-109500000D02*
X92081099Y-111881099D01*
X92081099Y-118581099D02*
X92081099Y-119156401D01*
D24*
X92081099Y-118581099D02*
X92081099Y-116218901D01*
X84000000Y-91400000D02*
X84000000Y-88200000D01*
X84000000Y-88200000D02*
X85000000Y-87200000D01*
X85000000Y-87200000D02*
X105200000Y-87200000D01*
D23*
X92900000Y-99500000D02*
X88800000Y-95400000D01*
X88800000Y-95400000D02*
X88100000Y-95400000D01*
D24*
X110400001Y-81999999D02*
X105200000Y-87200000D01*
X113400001Y-81999999D02*
X110400001Y-81999999D01*
X113900000Y-81500000D02*
X113400001Y-81999999D01*
D23*
X84200000Y-114820526D02*
X81923599Y-117096927D01*
X84200000Y-110800000D02*
X84200000Y-114820526D01*
X81923599Y-117096927D02*
X81923599Y-120543599D01*
X85492894Y-103000000D02*
X85392894Y-102900000D01*
X81923599Y-120543599D02*
X83180000Y-121800000D01*
X86200000Y-103000000D02*
X85492894Y-103000000D01*
X85392894Y-102900000D02*
X83200000Y-102900000D01*
X83200000Y-102900000D02*
X81400000Y-104700000D01*
X81400000Y-104700000D02*
X81400000Y-108000000D01*
X81400000Y-108000000D02*
X84200000Y-110800000D01*
X86569999Y-120950001D02*
X85720000Y-121800000D01*
X86976401Y-120543599D02*
X86569999Y-120950001D01*
X89243599Y-120543599D02*
X86976401Y-120543599D01*
X91200000Y-122500000D02*
X89243599Y-120543599D01*
X91040911Y-100760586D02*
X90333805Y-100760586D01*
X116200000Y-116545200D02*
X100415386Y-100760586D01*
X116200000Y-117700000D02*
X116200000Y-116545200D01*
X100415386Y-100760586D02*
X91040911Y-100760586D01*
X98001190Y-102041190D02*
X90035614Y-102041190D01*
X90035614Y-102041190D02*
X89640520Y-101646096D01*
X113660000Y-117700000D02*
X98001190Y-102041190D01*
X89640520Y-101646096D02*
X89140521Y-101146097D01*
X88717086Y-102048743D02*
X87126832Y-100458489D01*
X110270001Y-116850001D02*
X109550001Y-116850001D01*
X87126832Y-99852255D02*
X86626833Y-99352256D01*
X88880092Y-102048743D02*
X88717086Y-102048743D01*
X96800000Y-102700000D02*
X89531349Y-102700000D01*
X97900000Y-105200000D02*
X97900000Y-103800000D01*
X111120000Y-117700000D02*
X110270001Y-116850001D01*
X89531349Y-102700000D02*
X88880092Y-102048743D01*
X109550001Y-116850001D02*
X97900000Y-105200000D01*
X87126832Y-100458489D02*
X87126832Y-99852255D01*
X97900000Y-103800000D02*
X96800000Y-102700000D01*
X89488205Y-103447134D02*
X88648625Y-102607554D01*
X88648625Y-102607554D02*
X88485618Y-102607553D01*
X85873247Y-99995182D02*
X85873247Y-99884978D01*
X92418068Y-105776400D02*
X90088802Y-103447134D01*
X88485618Y-102607553D02*
X85873247Y-99995182D01*
X85873247Y-99884978D02*
X85373248Y-99384979D01*
X108580000Y-117700000D02*
X96656400Y-105776400D01*
X96656400Y-105776400D02*
X92418068Y-105776400D01*
X90088802Y-103447134D02*
X89488205Y-103447134D01*
X95877292Y-106335211D02*
X92186600Y-106335210D01*
X89857335Y-104005945D02*
X89256737Y-104005944D01*
X92186600Y-106335210D02*
X89857335Y-104005945D01*
X88417156Y-103166363D02*
X88254150Y-103166363D01*
X89256737Y-104005944D02*
X88417156Y-103166363D01*
X106040000Y-117700000D02*
X106040000Y-116497919D01*
X88033332Y-102945545D02*
X87651955Y-102945545D01*
X84606409Y-99899999D02*
X84106410Y-99400000D01*
X87651955Y-102945545D02*
X84606409Y-99899999D01*
X88254150Y-103166363D02*
X88033332Y-102945545D01*
X106040000Y-116497919D02*
X95877292Y-106335211D01*
X87037118Y-103504356D02*
X86392470Y-104149004D01*
X88022682Y-103725173D02*
X87801865Y-103504356D01*
X103500000Y-115200000D02*
X95194022Y-106894022D01*
X91955134Y-106894022D02*
X89625868Y-104564756D01*
X95194022Y-106894022D02*
X91955134Y-106894022D01*
X89625868Y-104564756D02*
X89025271Y-104564756D01*
X103500000Y-117700000D02*
X103500000Y-115200000D01*
X86392470Y-104149004D02*
X85146848Y-104149004D01*
X88185689Y-103725174D02*
X88022682Y-103725173D01*
X89025271Y-104564756D02*
X88185689Y-103725174D01*
X87801865Y-103504356D02*
X87037118Y-103504356D01*
X85146848Y-104149004D02*
X84439742Y-104149004D01*
X87963282Y-104460694D02*
X87492975Y-104460694D01*
X100960000Y-117700000D02*
X100110001Y-116850001D01*
X100110001Y-116850001D02*
X100110001Y-115839167D01*
X89394401Y-105123567D02*
X88626155Y-105123567D01*
X100110001Y-115839167D02*
X89394401Y-105123567D01*
X88626155Y-105123567D02*
X87963282Y-104460694D01*
X84131101Y-105058333D02*
X84049642Y-105058333D01*
X84049642Y-105058333D02*
X83686583Y-104695274D01*
X88079403Y-105367095D02*
X84439863Y-105367095D01*
X89162934Y-105682378D02*
X88394686Y-105682378D01*
X88394686Y-105682378D02*
X88079403Y-105367095D01*
X98420000Y-117700000D02*
X98420000Y-114939444D01*
X98420000Y-114939444D02*
X89162934Y-105682378D01*
X83686583Y-104695274D02*
X83186584Y-104195275D01*
X84439863Y-105367095D02*
X84131101Y-105058333D01*
X84208396Y-105925906D02*
X83899634Y-105617144D01*
X88931467Y-106241189D02*
X88163218Y-106241188D01*
X83276748Y-105617144D02*
X83106319Y-105446715D01*
X95880000Y-117700000D02*
X95880000Y-113189722D01*
X88163218Y-106241188D02*
X87847936Y-105925906D01*
X87847936Y-105925906D02*
X84208396Y-105925906D01*
X95880000Y-113189722D02*
X88931467Y-106241189D01*
X83899634Y-105617144D02*
X83276748Y-105617144D01*
X88700000Y-106800000D02*
X87931750Y-106799998D01*
X93340000Y-117700000D02*
X93340000Y-111440000D01*
X87616468Y-106484716D02*
X84420522Y-106484716D01*
X84420522Y-106484716D02*
X84304786Y-106600452D01*
X87931750Y-106799998D02*
X87616468Y-106484716D01*
X84304786Y-106600452D02*
X83597680Y-106600452D01*
X93340000Y-111440000D02*
X88700000Y-106800000D01*
X84863580Y-107043526D02*
X84007106Y-107900000D01*
X88006402Y-114906402D02*
X88006402Y-107664926D01*
X88006402Y-107664926D02*
X87385000Y-107043526D01*
X87385000Y-107043526D02*
X84863580Y-107043526D01*
X84007106Y-107900000D02*
X83300000Y-107900000D01*
X90800000Y-117700000D02*
X88006402Y-114906402D01*
X85720000Y-117700000D02*
X85720000Y-109029936D01*
X85720000Y-109029936D02*
X86300001Y-108449935D01*
X86300001Y-108449935D02*
X86800000Y-107949936D01*
X85161189Y-115718811D02*
X85161189Y-108745125D01*
X83180000Y-117700000D02*
X85161189Y-115718811D01*
X85161189Y-108745125D02*
X85599904Y-108306410D01*
X85599904Y-108306410D02*
X85355818Y-108062324D01*
X83200000Y-111400000D02*
X80640000Y-113960000D01*
X80640000Y-113960000D02*
X80640000Y-116497919D01*
X80640000Y-116497919D02*
X80640000Y-117700000D01*
D24*
X83212764Y-99157390D02*
X83212764Y-100587236D01*
X82712765Y-98657391D02*
X83212764Y-99157390D01*
X78100000Y-105700000D02*
X78100000Y-117700000D01*
X83212764Y-100587236D02*
X78100000Y-105700000D01*
X110800000Y-94107106D02*
X107400000Y-97507106D01*
X110800000Y-93400000D02*
X110800000Y-94107106D01*
X107400000Y-97507106D02*
X107400000Y-99200000D01*
X107400000Y-99200000D02*
X106800000Y-99800000D01*
X106800000Y-99800000D02*
X104600000Y-99800000D01*
X105890325Y-80278899D02*
X91821101Y-80278899D01*
X91821101Y-80278899D02*
X91600000Y-80500000D01*
G36*
X123299317Y-63488339D02*
G01*
X123587232Y-63575265D01*
X123852784Y-63716463D01*
X124085846Y-63906543D01*
X124277554Y-64138277D01*
X124420601Y-64402838D01*
X124509533Y-64690133D01*
X124543201Y-65010457D01*
X124543200Y-121977657D01*
X124511661Y-122299317D01*
X124424733Y-122587235D01*
X124283540Y-122852779D01*
X124093457Y-123085846D01*
X123861723Y-123277554D01*
X123597163Y-123420600D01*
X123309866Y-123509533D01*
X122989553Y-123543200D01*
X71022343Y-123543200D01*
X70700683Y-123511661D01*
X70412765Y-123424733D01*
X70147221Y-123283540D01*
X69914154Y-123093457D01*
X69722446Y-122861723D01*
X69579400Y-122597163D01*
X69490467Y-122309866D01*
X69456800Y-121989553D01*
X69456800Y-119760489D01*
X69568200Y-119760489D01*
X69568200Y-120239511D01*
X69661653Y-120709330D01*
X69844967Y-121151889D01*
X70111098Y-121550182D01*
X70449818Y-121888902D01*
X70848111Y-122155033D01*
X71290670Y-122338347D01*
X71760489Y-122431800D01*
X72239511Y-122431800D01*
X72709330Y-122338347D01*
X73151889Y-122155033D01*
X73550182Y-121888902D01*
X73888902Y-121550182D01*
X74155033Y-121151889D01*
X74338347Y-120709330D01*
X74431800Y-120239511D01*
X74431800Y-119760489D01*
X74338347Y-119290670D01*
X74155033Y-118848111D01*
X73888902Y-118449818D01*
X73550182Y-118111098D01*
X73151889Y-117844967D01*
X72801908Y-117700000D01*
X76811998Y-117700000D01*
X76836747Y-117951277D01*
X76910041Y-118192897D01*
X77029065Y-118415576D01*
X77189245Y-118610755D01*
X77384424Y-118770935D01*
X77607103Y-118889959D01*
X77848723Y-118963253D01*
X78037031Y-118981800D01*
X78162969Y-118981800D01*
X78351277Y-118963253D01*
X78592897Y-118889959D01*
X78815576Y-118770935D01*
X79010755Y-118610755D01*
X79170935Y-118415576D01*
X79289959Y-118192897D01*
X79363253Y-117951277D01*
X79370000Y-117882775D01*
X79376747Y-117951277D01*
X79450041Y-118192897D01*
X79569065Y-118415576D01*
X79729245Y-118610755D01*
X79924424Y-118770935D01*
X80147103Y-118889959D01*
X80388723Y-118963253D01*
X80577031Y-118981800D01*
X80702969Y-118981800D01*
X80891277Y-118963253D01*
X81132897Y-118889959D01*
X81339399Y-118779581D01*
X81339400Y-120514905D01*
X81336574Y-120543599D01*
X81347853Y-120658122D01*
X81373947Y-120744142D01*
X81355576Y-120729065D01*
X81132897Y-120610041D01*
X80891277Y-120536747D01*
X80702969Y-120518200D01*
X80577031Y-120518200D01*
X80388723Y-120536747D01*
X80147103Y-120610041D01*
X79924424Y-120729065D01*
X79729245Y-120889245D01*
X79569065Y-121084424D01*
X79450041Y-121307103D01*
X79383889Y-121525179D01*
X79383889Y-120950000D01*
X79375552Y-120865352D01*
X79350861Y-120783958D01*
X79310766Y-120708944D01*
X79256806Y-120643194D01*
X79191056Y-120589234D01*
X79116042Y-120549139D01*
X79034648Y-120524448D01*
X78950000Y-120516111D01*
X77250000Y-120516111D01*
X77165352Y-120524448D01*
X77083958Y-120549139D01*
X77008944Y-120589234D01*
X76943194Y-120643194D01*
X76889234Y-120708944D01*
X76849139Y-120783958D01*
X76824448Y-120865352D01*
X76816111Y-120950000D01*
X76816111Y-122650000D01*
X76824448Y-122734648D01*
X76849139Y-122816042D01*
X76889234Y-122891056D01*
X76943194Y-122956806D01*
X77008944Y-123010766D01*
X77083958Y-123050861D01*
X77165352Y-123075552D01*
X77250000Y-123083889D01*
X78950000Y-123083889D01*
X79034648Y-123075552D01*
X79116042Y-123050861D01*
X79191056Y-123010766D01*
X79256806Y-122956806D01*
X79310766Y-122891056D01*
X79350861Y-122816042D01*
X79375552Y-122734648D01*
X79383889Y-122650000D01*
X79383889Y-122074821D01*
X79450041Y-122292897D01*
X79569065Y-122515576D01*
X79729245Y-122710755D01*
X79924424Y-122870935D01*
X80147103Y-122989959D01*
X80388723Y-123063253D01*
X80577031Y-123081800D01*
X80702969Y-123081800D01*
X80891277Y-123063253D01*
X81132897Y-122989959D01*
X81355576Y-122870935D01*
X81550755Y-122710755D01*
X81710935Y-122515576D01*
X81829959Y-122292897D01*
X81903253Y-122051277D01*
X81910000Y-121982775D01*
X81916747Y-122051277D01*
X81990041Y-122292897D01*
X82109065Y-122515576D01*
X82269245Y-122710755D01*
X82464424Y-122870935D01*
X82687103Y-122989959D01*
X82928723Y-123063253D01*
X83117031Y-123081800D01*
X83242969Y-123081800D01*
X83431277Y-123063253D01*
X83672897Y-122989959D01*
X83895576Y-122870935D01*
X84090755Y-122710755D01*
X84250935Y-122515576D01*
X84369959Y-122292897D01*
X84443253Y-122051277D01*
X84450000Y-121982775D01*
X84456747Y-122051277D01*
X84530041Y-122292897D01*
X84649065Y-122515576D01*
X84809245Y-122710755D01*
X85004424Y-122870935D01*
X85227103Y-122989959D01*
X85468723Y-123063253D01*
X85657031Y-123081800D01*
X85782969Y-123081800D01*
X85971277Y-123063253D01*
X86212897Y-122989959D01*
X86435576Y-122870935D01*
X86630755Y-122710755D01*
X86790935Y-122515576D01*
X86909959Y-122292897D01*
X86983253Y-122051277D01*
X86995493Y-121927002D01*
X87092450Y-121927002D01*
X87020072Y-122124968D01*
X87107295Y-122360622D01*
X87238816Y-122574731D01*
X87409580Y-122759068D01*
X87613025Y-122906548D01*
X87841333Y-123011505D01*
X87935033Y-123039922D01*
X88133000Y-122966960D01*
X88133000Y-121927000D01*
X88387000Y-121927000D01*
X88387000Y-122966960D01*
X88584967Y-123039922D01*
X88678667Y-123011505D01*
X88906975Y-122906548D01*
X89110420Y-122759068D01*
X89281184Y-122574731D01*
X89412705Y-122360622D01*
X89499928Y-122124968D01*
X89427549Y-121927000D01*
X88387000Y-121927000D01*
X88133000Y-121927000D01*
X88113000Y-121927000D01*
X88113000Y-121673000D01*
X88133000Y-121673000D01*
X88133000Y-121653000D01*
X88387000Y-121653000D01*
X88387000Y-121673000D01*
X89427549Y-121673000D01*
X89459480Y-121585663D01*
X90071845Y-122198029D01*
X90066111Y-122256250D01*
X90066111Y-122743750D01*
X90079132Y-122875951D01*
X90117693Y-123003071D01*
X90180314Y-123120226D01*
X90264587Y-123222913D01*
X90367274Y-123307186D01*
X90484429Y-123369807D01*
X90611549Y-123408368D01*
X90743750Y-123421389D01*
X91656250Y-123421389D01*
X91788451Y-123408368D01*
X91915571Y-123369807D01*
X92032726Y-123307186D01*
X92135413Y-123222913D01*
X92219686Y-123120226D01*
X92282307Y-123003071D01*
X92320868Y-122875951D01*
X92333889Y-122743750D01*
X92333889Y-122650000D01*
X92916111Y-122650000D01*
X92924448Y-122734648D01*
X92949139Y-122816042D01*
X92989234Y-122891056D01*
X93043194Y-122956806D01*
X93108944Y-123010766D01*
X93183958Y-123050861D01*
X93265352Y-123075552D01*
X93350000Y-123083889D01*
X93965050Y-123081800D01*
X94073000Y-122973850D01*
X94073000Y-121927000D01*
X94327000Y-121927000D01*
X94327000Y-122973850D01*
X94434950Y-123081800D01*
X95050000Y-123083889D01*
X95134648Y-123075552D01*
X95216042Y-123050861D01*
X95291056Y-123010766D01*
X95356806Y-122956806D01*
X95410766Y-122891056D01*
X95450861Y-122816042D01*
X95475552Y-122734648D01*
X95483889Y-122650000D01*
X95482106Y-122124968D01*
X95500072Y-122124968D01*
X95587295Y-122360622D01*
X95718816Y-122574731D01*
X95889580Y-122759068D01*
X96093025Y-122906548D01*
X96321333Y-123011505D01*
X96415033Y-123039922D01*
X96613000Y-122966960D01*
X96613000Y-121927000D01*
X96867000Y-121927000D01*
X96867000Y-122966960D01*
X97064967Y-123039922D01*
X97158667Y-123011505D01*
X97386975Y-122906548D01*
X97590420Y-122759068D01*
X97761184Y-122574731D01*
X97892705Y-122360622D01*
X97979928Y-122124968D01*
X98040072Y-122124968D01*
X98127295Y-122360622D01*
X98258816Y-122574731D01*
X98429580Y-122759068D01*
X98633025Y-122906548D01*
X98861333Y-123011505D01*
X98955033Y-123039922D01*
X99153000Y-122966960D01*
X99153000Y-121927000D01*
X99407000Y-121927000D01*
X99407000Y-122966960D01*
X99604967Y-123039922D01*
X99698667Y-123011505D01*
X99926975Y-122906548D01*
X100130420Y-122759068D01*
X100301184Y-122574731D01*
X100432705Y-122360622D01*
X100519928Y-122124968D01*
X100580072Y-122124968D01*
X100667295Y-122360622D01*
X100798816Y-122574731D01*
X100969580Y-122759068D01*
X101173025Y-122906548D01*
X101401333Y-123011505D01*
X101495033Y-123039922D01*
X101693000Y-122966960D01*
X101693000Y-121927000D01*
X101947000Y-121927000D01*
X101947000Y-122966960D01*
X102144967Y-123039922D01*
X102238667Y-123011505D01*
X102466975Y-122906548D01*
X102670420Y-122759068D01*
X102841184Y-122574731D01*
X102972705Y-122360622D01*
X103059928Y-122124968D01*
X102987549Y-121927000D01*
X101947000Y-121927000D01*
X101693000Y-121927000D01*
X100652451Y-121927000D01*
X100580072Y-122124968D01*
X100519928Y-122124968D01*
X100447549Y-121927000D01*
X99407000Y-121927000D01*
X99153000Y-121927000D01*
X98112451Y-121927000D01*
X98040072Y-122124968D01*
X97979928Y-122124968D01*
X97907549Y-121927000D01*
X96867000Y-121927000D01*
X96613000Y-121927000D01*
X95572451Y-121927000D01*
X95500072Y-122124968D01*
X95482106Y-122124968D01*
X95481800Y-122034950D01*
X95373850Y-121927000D01*
X94327000Y-121927000D01*
X94073000Y-121927000D01*
X93026150Y-121927000D01*
X92918200Y-122034950D01*
X92916111Y-122650000D01*
X92333889Y-122650000D01*
X92333889Y-122256250D01*
X92320868Y-122124049D01*
X92282307Y-121996929D01*
X92219686Y-121879774D01*
X92135413Y-121777087D01*
X92032726Y-121692814D01*
X91915571Y-121630193D01*
X91788451Y-121591632D01*
X91656250Y-121578611D01*
X91104795Y-121578611D01*
X91072573Y-121546389D01*
X91656250Y-121546389D01*
X91788451Y-121533368D01*
X91915571Y-121494807D01*
X92032726Y-121432186D01*
X92135413Y-121347913D01*
X92219686Y-121245226D01*
X92282307Y-121128071D01*
X92320868Y-121000951D01*
X92325886Y-120950000D01*
X92916111Y-120950000D01*
X92918200Y-121565050D01*
X93026150Y-121673000D01*
X94073000Y-121673000D01*
X94073000Y-120626150D01*
X94327000Y-120626150D01*
X94327000Y-121673000D01*
X95373850Y-121673000D01*
X95481800Y-121565050D01*
X95482105Y-121475032D01*
X95500072Y-121475032D01*
X95572451Y-121673000D01*
X96613000Y-121673000D01*
X96613000Y-120633040D01*
X96867000Y-120633040D01*
X96867000Y-121673000D01*
X97907549Y-121673000D01*
X97979928Y-121475032D01*
X98040072Y-121475032D01*
X98112451Y-121673000D01*
X99153000Y-121673000D01*
X99153000Y-120633040D01*
X99407000Y-120633040D01*
X99407000Y-121673000D01*
X100447549Y-121673000D01*
X100519928Y-121475032D01*
X100580072Y-121475032D01*
X100652451Y-121673000D01*
X101693000Y-121673000D01*
X101693000Y-120633040D01*
X101947000Y-120633040D01*
X101947000Y-121673000D01*
X102987549Y-121673000D01*
X103059928Y-121475032D01*
X102972705Y-121239378D01*
X102841184Y-121025269D01*
X102670420Y-120840932D01*
X102466975Y-120693452D01*
X102238667Y-120588495D01*
X102144967Y-120560078D01*
X101947000Y-120633040D01*
X101693000Y-120633040D01*
X101495033Y-120560078D01*
X101401333Y-120588495D01*
X101173025Y-120693452D01*
X100969580Y-120840932D01*
X100798816Y-121025269D01*
X100667295Y-121239378D01*
X100580072Y-121475032D01*
X100519928Y-121475032D01*
X100432705Y-121239378D01*
X100301184Y-121025269D01*
X100130420Y-120840932D01*
X99926975Y-120693452D01*
X99698667Y-120588495D01*
X99604967Y-120560078D01*
X99407000Y-120633040D01*
X99153000Y-120633040D01*
X98955033Y-120560078D01*
X98861333Y-120588495D01*
X98633025Y-120693452D01*
X98429580Y-120840932D01*
X98258816Y-121025269D01*
X98127295Y-121239378D01*
X98040072Y-121475032D01*
X97979928Y-121475032D01*
X97892705Y-121239378D01*
X97761184Y-121025269D01*
X97590420Y-120840932D01*
X97386975Y-120693452D01*
X97158667Y-120588495D01*
X97064967Y-120560078D01*
X96867000Y-120633040D01*
X96613000Y-120633040D01*
X96415033Y-120560078D01*
X96321333Y-120588495D01*
X96093025Y-120693452D01*
X95889580Y-120840932D01*
X95718816Y-121025269D01*
X95587295Y-121239378D01*
X95500072Y-121475032D01*
X95482105Y-121475032D01*
X95483889Y-120950000D01*
X95475552Y-120865352D01*
X95450861Y-120783958D01*
X95410766Y-120708944D01*
X95356806Y-120643194D01*
X95291056Y-120589234D01*
X95216042Y-120549139D01*
X95134648Y-120524448D01*
X95050000Y-120516111D01*
X94434950Y-120518200D01*
X94327000Y-120626150D01*
X94073000Y-120626150D01*
X93965050Y-120518200D01*
X93350000Y-120516111D01*
X93265352Y-120524448D01*
X93183958Y-120549139D01*
X93108944Y-120589234D01*
X93043194Y-120643194D01*
X92989234Y-120708944D01*
X92949139Y-120783958D01*
X92924448Y-120865352D01*
X92916111Y-120950000D01*
X92325886Y-120950000D01*
X92333889Y-120868750D01*
X92333889Y-120381250D01*
X92320868Y-120249049D01*
X92282307Y-120121929D01*
X92266875Y-120093058D01*
X92366618Y-120192801D01*
X92384910Y-120215090D01*
X92473866Y-120288094D01*
X92575355Y-120342341D01*
X92685477Y-120375746D01*
X92771308Y-120384200D01*
X92771317Y-120384200D01*
X92799999Y-120387025D01*
X92828681Y-120384200D01*
X103803217Y-120384200D01*
X105611822Y-122192806D01*
X105630110Y-122215090D01*
X105652394Y-122233378D01*
X105652396Y-122233380D01*
X105672387Y-122249785D01*
X105719066Y-122288094D01*
X105820555Y-122342341D01*
X105897271Y-122365612D01*
X105916111Y-122371328D01*
X105916111Y-122650000D01*
X105924448Y-122734648D01*
X105949139Y-122816042D01*
X105989234Y-122891056D01*
X106043194Y-122956806D01*
X106108944Y-123010766D01*
X106183958Y-123050861D01*
X106265352Y-123075552D01*
X106350000Y-123083889D01*
X108050000Y-123083889D01*
X108134648Y-123075552D01*
X108216042Y-123050861D01*
X108291056Y-123010766D01*
X108356806Y-122956806D01*
X108410766Y-122891056D01*
X108450861Y-122816042D01*
X108475552Y-122734648D01*
X108483889Y-122650000D01*
X108483889Y-122384200D01*
X108598843Y-122384200D01*
X108669065Y-122515576D01*
X108829245Y-122710755D01*
X109024424Y-122870935D01*
X109247103Y-122989959D01*
X109488723Y-123063253D01*
X109677031Y-123081800D01*
X109802969Y-123081800D01*
X109991277Y-123063253D01*
X110232897Y-122989959D01*
X110455576Y-122870935D01*
X110650755Y-122710755D01*
X110810935Y-122515576D01*
X110929959Y-122292897D01*
X111003253Y-122051277D01*
X111010000Y-121982775D01*
X111016747Y-122051277D01*
X111090041Y-122292897D01*
X111209065Y-122515576D01*
X111369245Y-122710755D01*
X111564424Y-122870935D01*
X111787103Y-122989959D01*
X112028723Y-123063253D01*
X112217031Y-123081800D01*
X112342969Y-123081800D01*
X112531277Y-123063253D01*
X112772897Y-122989959D01*
X112995576Y-122870935D01*
X113190755Y-122710755D01*
X113350935Y-122515576D01*
X113469959Y-122292897D01*
X113543253Y-122051277D01*
X113550000Y-121982775D01*
X113556747Y-122051277D01*
X113630041Y-122292897D01*
X113749065Y-122515576D01*
X113909245Y-122710755D01*
X114104424Y-122870935D01*
X114327103Y-122989959D01*
X114568723Y-123063253D01*
X114757031Y-123081800D01*
X114882969Y-123081800D01*
X115071277Y-123063253D01*
X115312897Y-122989959D01*
X115535576Y-122870935D01*
X115730755Y-122710755D01*
X115890935Y-122515576D01*
X116009959Y-122292897D01*
X116083253Y-122051277D01*
X116108002Y-121800000D01*
X116083253Y-121548723D01*
X116009959Y-121307103D01*
X115890935Y-121084424D01*
X115730755Y-120889245D01*
X115535576Y-120729065D01*
X115312897Y-120610041D01*
X115071277Y-120536747D01*
X114882969Y-120518200D01*
X114757031Y-120518200D01*
X114568723Y-120536747D01*
X114327103Y-120610041D01*
X114104424Y-120729065D01*
X113909245Y-120889245D01*
X113749065Y-121084424D01*
X113630041Y-121307103D01*
X113556747Y-121548723D01*
X113550000Y-121617225D01*
X113543253Y-121548723D01*
X113469959Y-121307103D01*
X113350935Y-121084424D01*
X113190755Y-120889245D01*
X112995576Y-120729065D01*
X112772897Y-120610041D01*
X112531277Y-120536747D01*
X112342969Y-120518200D01*
X112217031Y-120518200D01*
X112028723Y-120536747D01*
X111787103Y-120610041D01*
X111564424Y-120729065D01*
X111369245Y-120889245D01*
X111209065Y-121084424D01*
X111090041Y-121307103D01*
X111016747Y-121548723D01*
X111010000Y-121617225D01*
X111003253Y-121548723D01*
X110929959Y-121307103D01*
X110810935Y-121084424D01*
X110650755Y-120889245D01*
X110455576Y-120729065D01*
X110232897Y-120610041D01*
X109991277Y-120536747D01*
X109802969Y-120518200D01*
X109677031Y-120518200D01*
X109488723Y-120536747D01*
X109247103Y-120610041D01*
X109024424Y-120729065D01*
X108829245Y-120889245D01*
X108669065Y-121084424D01*
X108598843Y-121215800D01*
X108483889Y-121215800D01*
X108483889Y-120950000D01*
X108475552Y-120865352D01*
X108450861Y-120783958D01*
X108410766Y-120708944D01*
X108356806Y-120643194D01*
X108291056Y-120589234D01*
X108216042Y-120549139D01*
X108134648Y-120524448D01*
X108050000Y-120516111D01*
X106350000Y-120516111D01*
X106265352Y-120524448D01*
X106183958Y-120549139D01*
X106108944Y-120589234D01*
X106043194Y-120643194D01*
X105989234Y-120708944D01*
X105949139Y-120783958D01*
X105927308Y-120855924D01*
X104831873Y-119760489D01*
X119568200Y-119760489D01*
X119568200Y-120239511D01*
X119661653Y-120709330D01*
X119844967Y-121151889D01*
X120111098Y-121550182D01*
X120449818Y-121888902D01*
X120848111Y-122155033D01*
X121290670Y-122338347D01*
X121760489Y-122431800D01*
X122239511Y-122431800D01*
X122709330Y-122338347D01*
X123151889Y-122155033D01*
X123550182Y-121888902D01*
X123888902Y-121550182D01*
X124155033Y-121151889D01*
X124338347Y-120709330D01*
X124431800Y-120239511D01*
X124431800Y-119760489D01*
X124338347Y-119290670D01*
X124155033Y-118848111D01*
X123888902Y-118449818D01*
X123550182Y-118111098D01*
X123151889Y-117844967D01*
X122709330Y-117661653D01*
X122239511Y-117568200D01*
X121760489Y-117568200D01*
X121290670Y-117661653D01*
X120848111Y-117844967D01*
X120449818Y-118111098D01*
X120111098Y-118449818D01*
X119844967Y-118848111D01*
X119661653Y-119290670D01*
X119568200Y-119760489D01*
X104831873Y-119760489D01*
X104478582Y-119407199D01*
X104460290Y-119384910D01*
X104371334Y-119311906D01*
X104269845Y-119257659D01*
X104159723Y-119224254D01*
X104073892Y-119215800D01*
X104073884Y-119215800D01*
X104045200Y-119212975D01*
X104016516Y-119215800D01*
X93041983Y-119215800D01*
X92665299Y-118839116D01*
X92665299Y-118792783D01*
X92847103Y-118889959D01*
X93088723Y-118963253D01*
X93277031Y-118981800D01*
X93402969Y-118981800D01*
X93591277Y-118963253D01*
X93832897Y-118889959D01*
X94055576Y-118770935D01*
X94250755Y-118610755D01*
X94410935Y-118415576D01*
X94529959Y-118192897D01*
X94603253Y-117951277D01*
X94610000Y-117882775D01*
X94616747Y-117951277D01*
X94690041Y-118192897D01*
X94809065Y-118415576D01*
X94969245Y-118610755D01*
X95164424Y-118770935D01*
X95387103Y-118889959D01*
X95628723Y-118963253D01*
X95817031Y-118981800D01*
X95942969Y-118981800D01*
X96131277Y-118963253D01*
X96372897Y-118889959D01*
X96595576Y-118770935D01*
X96790755Y-118610755D01*
X96950935Y-118415576D01*
X97069959Y-118192897D01*
X97143253Y-117951277D01*
X97150000Y-117882775D01*
X97156747Y-117951277D01*
X97230041Y-118192897D01*
X97349065Y-118415576D01*
X97509245Y-118610755D01*
X97704424Y-118770935D01*
X97927103Y-118889959D01*
X98168723Y-118963253D01*
X98357031Y-118981800D01*
X98482969Y-118981800D01*
X98671277Y-118963253D01*
X98912897Y-118889959D01*
X99135576Y-118770935D01*
X99330755Y-118610755D01*
X99490935Y-118415576D01*
X99609959Y-118192897D01*
X99683253Y-117951277D01*
X99690000Y-117882775D01*
X99696747Y-117951277D01*
X99770041Y-118192897D01*
X99889065Y-118415576D01*
X100049245Y-118610755D01*
X100244424Y-118770935D01*
X100467103Y-118889959D01*
X100708723Y-118963253D01*
X100897031Y-118981800D01*
X101022969Y-118981800D01*
X101211277Y-118963253D01*
X101452897Y-118889959D01*
X101675576Y-118770935D01*
X101870755Y-118610755D01*
X102030935Y-118415576D01*
X102149959Y-118192897D01*
X102223253Y-117951277D01*
X102230000Y-117882775D01*
X102236747Y-117951277D01*
X102310041Y-118192897D01*
X102429065Y-118415576D01*
X102589245Y-118610755D01*
X102784424Y-118770935D01*
X103007103Y-118889959D01*
X103248723Y-118963253D01*
X103437031Y-118981800D01*
X103562969Y-118981800D01*
X103751277Y-118963253D01*
X103992897Y-118889959D01*
X104215576Y-118770935D01*
X104410755Y-118610755D01*
X104570935Y-118415576D01*
X104689959Y-118192897D01*
X104763253Y-117951277D01*
X104770000Y-117882775D01*
X104776747Y-117951277D01*
X104850041Y-118192897D01*
X104969065Y-118415576D01*
X105129245Y-118610755D01*
X105324424Y-118770935D01*
X105547103Y-118889959D01*
X105788723Y-118963253D01*
X105977031Y-118981800D01*
X106102969Y-118981800D01*
X106291277Y-118963253D01*
X106532897Y-118889959D01*
X106755576Y-118770935D01*
X106950755Y-118610755D01*
X107110935Y-118415576D01*
X107229959Y-118192897D01*
X107303253Y-117951277D01*
X107310000Y-117882775D01*
X107316747Y-117951277D01*
X107390041Y-118192897D01*
X107509065Y-118415576D01*
X107669245Y-118610755D01*
X107864424Y-118770935D01*
X108087103Y-118889959D01*
X108328723Y-118963253D01*
X108517031Y-118981800D01*
X108642969Y-118981800D01*
X108831277Y-118963253D01*
X109072897Y-118889959D01*
X109295576Y-118770935D01*
X109490755Y-118610755D01*
X109650935Y-118415576D01*
X109769959Y-118192897D01*
X109843253Y-117951277D01*
X109850000Y-117882775D01*
X109856747Y-117951277D01*
X109930041Y-118192897D01*
X110049065Y-118415576D01*
X110209245Y-118610755D01*
X110404424Y-118770935D01*
X110627103Y-118889959D01*
X110868723Y-118963253D01*
X111057031Y-118981800D01*
X111182969Y-118981800D01*
X111371277Y-118963253D01*
X111612897Y-118889959D01*
X111835576Y-118770935D01*
X112030755Y-118610755D01*
X112190935Y-118415576D01*
X112309959Y-118192897D01*
X112383253Y-117951277D01*
X112390000Y-117882775D01*
X112396747Y-117951277D01*
X112470041Y-118192897D01*
X112589065Y-118415576D01*
X112749245Y-118610755D01*
X112944424Y-118770935D01*
X113167103Y-118889959D01*
X113408723Y-118963253D01*
X113597031Y-118981800D01*
X113722969Y-118981800D01*
X113911277Y-118963253D01*
X114152897Y-118889959D01*
X114375576Y-118770935D01*
X114570755Y-118610755D01*
X114730935Y-118415576D01*
X114849959Y-118192897D01*
X114916111Y-117974821D01*
X114916111Y-118550000D01*
X114924448Y-118634648D01*
X114949139Y-118716042D01*
X114989234Y-118791056D01*
X115043194Y-118856806D01*
X115108944Y-118910766D01*
X115183958Y-118950861D01*
X115265352Y-118975552D01*
X115350000Y-118983889D01*
X117050000Y-118983889D01*
X117134648Y-118975552D01*
X117216042Y-118950861D01*
X117291056Y-118910766D01*
X117356806Y-118856806D01*
X117410766Y-118791056D01*
X117450861Y-118716042D01*
X117475552Y-118634648D01*
X117483889Y-118550000D01*
X117483889Y-116850000D01*
X117475552Y-116765352D01*
X117450861Y-116683958D01*
X117410766Y-116608944D01*
X117356806Y-116543194D01*
X117291056Y-116489234D01*
X117216042Y-116449139D01*
X117134648Y-116424448D01*
X117050000Y-116416111D01*
X116771328Y-116416111D01*
X116761404Y-116383397D01*
X116742341Y-116320555D01*
X116688094Y-116219066D01*
X116615090Y-116130110D01*
X116592801Y-116111818D01*
X100848768Y-100367785D01*
X100830476Y-100345496D01*
X100741520Y-100272492D01*
X100640031Y-100218245D01*
X100529909Y-100184840D01*
X100444078Y-100176386D01*
X100444070Y-100176386D01*
X100415386Y-100173561D01*
X100386702Y-100176386D01*
X93541379Y-100176386D01*
X93623777Y-100093988D01*
X93725751Y-99941373D01*
X93795992Y-99771796D01*
X93831800Y-99591774D01*
X93831800Y-99408226D01*
X93795992Y-99228204D01*
X93725751Y-99058627D01*
X93623777Y-98906012D01*
X93493988Y-98776223D01*
X93341373Y-98674249D01*
X93171796Y-98604008D01*
X92991774Y-98568200D01*
X92808226Y-98568200D01*
X92796680Y-98570497D01*
X89233382Y-95007199D01*
X89215090Y-94984910D01*
X89126134Y-94911906D01*
X89024645Y-94857659D01*
X88914523Y-94824254D01*
X88830432Y-94815971D01*
X88823777Y-94806012D01*
X88693988Y-94676223D01*
X88541373Y-94574249D01*
X88371796Y-94504008D01*
X88191774Y-94468200D01*
X88008226Y-94468200D01*
X87828204Y-94504008D01*
X87658627Y-94574249D01*
X87506012Y-94676223D01*
X87376223Y-94806012D01*
X87274249Y-94958627D01*
X87204008Y-95128204D01*
X87168200Y-95308226D01*
X87168200Y-95491774D01*
X87204008Y-95671796D01*
X87274249Y-95841373D01*
X87376223Y-95993988D01*
X87506012Y-96123777D01*
X87658627Y-96225751D01*
X87828204Y-96295992D01*
X88008226Y-96331800D01*
X88191774Y-96331800D01*
X88371796Y-96295992D01*
X88541373Y-96225751D01*
X88693988Y-96123777D01*
X88695791Y-96121974D01*
X91970497Y-99396680D01*
X91968200Y-99408226D01*
X91968200Y-99591774D01*
X92004008Y-99771796D01*
X92074249Y-99941373D01*
X92176223Y-100093988D01*
X92258621Y-100176386D01*
X91064122Y-100176386D01*
X91057582Y-100166598D01*
X90927793Y-100036809D01*
X90775178Y-99934835D01*
X90605601Y-99864594D01*
X90425579Y-99828786D01*
X90242031Y-99828786D01*
X90062009Y-99864594D01*
X89892432Y-99934835D01*
X89739817Y-100036809D01*
X89610028Y-100166598D01*
X89523468Y-100296145D01*
X89412317Y-100250105D01*
X89232295Y-100214297D01*
X89048747Y-100214297D01*
X88868725Y-100250105D01*
X88699148Y-100320346D01*
X88546533Y-100422320D01*
X88416744Y-100552109D01*
X88314770Y-100704724D01*
X88280935Y-100786409D01*
X87711032Y-100216506D01*
X87711032Y-99880936D01*
X87713857Y-99852254D01*
X87711032Y-99823572D01*
X87711032Y-99823563D01*
X87702578Y-99737732D01*
X87669173Y-99627610D01*
X87614926Y-99526121D01*
X87556472Y-99454894D01*
X87558633Y-99444030D01*
X87558633Y-99260482D01*
X87522825Y-99080460D01*
X87452584Y-98910883D01*
X87350610Y-98758268D01*
X87220821Y-98628479D01*
X87068206Y-98526505D01*
X86898629Y-98456264D01*
X86718607Y-98420456D01*
X86535059Y-98420456D01*
X86355037Y-98456264D01*
X86185460Y-98526505D01*
X86032845Y-98628479D01*
X85983679Y-98677645D01*
X85967236Y-98661202D01*
X85814621Y-98559228D01*
X85645044Y-98488987D01*
X85465022Y-98453179D01*
X85281474Y-98453179D01*
X85101452Y-98488987D01*
X84931875Y-98559228D01*
X84779260Y-98661202D01*
X84732319Y-98708144D01*
X84700398Y-98676223D01*
X84547783Y-98574249D01*
X84378206Y-98504008D01*
X84198184Y-98468200D01*
X84014636Y-98468200D01*
X83834614Y-98504008D01*
X83665037Y-98574249D01*
X83644565Y-98587928D01*
X83644565Y-98565617D01*
X83608757Y-98385595D01*
X83538516Y-98216018D01*
X83436542Y-98063403D01*
X83306753Y-97933614D01*
X83154138Y-97831640D01*
X82984561Y-97761399D01*
X82804539Y-97725591D01*
X82620991Y-97725591D01*
X82440969Y-97761399D01*
X82271392Y-97831640D01*
X82118777Y-97933614D01*
X81988988Y-98063403D01*
X81887014Y-98216018D01*
X81816773Y-98385595D01*
X81780965Y-98565617D01*
X81780965Y-98749165D01*
X81816773Y-98929187D01*
X81887014Y-99098764D01*
X81988988Y-99251379D01*
X82118777Y-99381168D01*
X82271392Y-99483142D01*
X82440969Y-99553383D01*
X82620991Y-99589191D01*
X82653964Y-99589191D01*
X82653965Y-100355773D01*
X77724281Y-105285457D01*
X77702957Y-105302957D01*
X77633127Y-105388046D01*
X77581239Y-105485123D01*
X77549286Y-105590457D01*
X77542733Y-105656990D01*
X77538497Y-105700000D01*
X77541200Y-105727442D01*
X77541201Y-116545266D01*
X77384424Y-116629065D01*
X77189245Y-116789245D01*
X77029065Y-116984424D01*
X76910041Y-117207103D01*
X76836747Y-117448723D01*
X76811998Y-117700000D01*
X72801908Y-117700000D01*
X72709330Y-117661653D01*
X72239511Y-117568200D01*
X71760489Y-117568200D01*
X71290670Y-117661653D01*
X70848111Y-117844967D01*
X70449818Y-118111098D01*
X70111098Y-118449818D01*
X69844967Y-118848111D01*
X69661653Y-119290670D01*
X69568200Y-119760489D01*
X69456800Y-119760489D01*
X69456800Y-91308226D01*
X83068200Y-91308226D01*
X83068200Y-91491774D01*
X83104008Y-91671796D01*
X83174249Y-91841373D01*
X83276223Y-91993988D01*
X83406012Y-92123777D01*
X83558627Y-92225751D01*
X83728204Y-92295992D01*
X83908226Y-92331800D01*
X84091774Y-92331800D01*
X84271796Y-92295992D01*
X84441373Y-92225751D01*
X84593988Y-92123777D01*
X84723777Y-91993988D01*
X84825751Y-91841373D01*
X84895992Y-91671796D01*
X84931800Y-91491774D01*
X84931800Y-91308226D01*
X84895992Y-91128204D01*
X84825751Y-90958627D01*
X84723777Y-90806012D01*
X84593988Y-90676223D01*
X84558800Y-90652711D01*
X84558800Y-88908226D01*
X88968200Y-88908226D01*
X88968200Y-89091774D01*
X89004008Y-89271796D01*
X89074249Y-89441373D01*
X89176223Y-89593988D01*
X89306012Y-89723777D01*
X89458627Y-89825751D01*
X89628204Y-89895992D01*
X89808226Y-89931800D01*
X89991774Y-89931800D01*
X90171796Y-89895992D01*
X90341373Y-89825751D01*
X90493988Y-89723777D01*
X90531965Y-89685800D01*
X93315933Y-89685800D01*
X99468200Y-95838068D01*
X99468200Y-95891774D01*
X99504008Y-96071796D01*
X99574249Y-96241373D01*
X99676223Y-96393988D01*
X99714200Y-96431965D01*
X99714200Y-96473427D01*
X99710883Y-96507106D01*
X99714200Y-96540785D01*
X99714200Y-96540795D01*
X99724123Y-96641546D01*
X99740640Y-96695992D01*
X99763339Y-96770820D01*
X99827020Y-96889959D01*
X99872686Y-96945603D01*
X99912721Y-96994386D01*
X99938886Y-97015859D01*
X101914200Y-98991173D01*
X101914201Y-100766312D01*
X101910883Y-100800000D01*
X101924124Y-100934440D01*
X101963339Y-101063714D01*
X102027020Y-101182853D01*
X102090842Y-101260620D01*
X102112721Y-101287280D01*
X102138886Y-101308753D01*
X113918200Y-113088068D01*
X113918200Y-113141774D01*
X113954008Y-113321796D01*
X114024249Y-113491373D01*
X114126223Y-113643988D01*
X114256012Y-113773777D01*
X114408627Y-113875751D01*
X114578204Y-113945992D01*
X114758226Y-113981800D01*
X114941774Y-113981800D01*
X115121796Y-113945992D01*
X115291373Y-113875751D01*
X115443988Y-113773777D01*
X115573777Y-113643988D01*
X115675751Y-113491373D01*
X115745992Y-113321796D01*
X115781800Y-113141774D01*
X115781800Y-112958226D01*
X115745992Y-112778204D01*
X115675751Y-112608627D01*
X115573777Y-112456012D01*
X115443988Y-112326223D01*
X115291373Y-112224249D01*
X115121796Y-112154008D01*
X114941774Y-112118200D01*
X114888068Y-112118200D01*
X103285800Y-100515933D01*
X103285800Y-99708226D01*
X103668200Y-99708226D01*
X103668200Y-99891774D01*
X103704008Y-100071796D01*
X103774249Y-100241373D01*
X103876223Y-100393988D01*
X104006012Y-100523777D01*
X104158627Y-100625751D01*
X104328204Y-100695992D01*
X104508226Y-100731800D01*
X104691774Y-100731800D01*
X104871796Y-100695992D01*
X105041373Y-100625751D01*
X105193988Y-100523777D01*
X105323777Y-100393988D01*
X105347289Y-100358800D01*
X106772558Y-100358800D01*
X106800000Y-100361503D01*
X106827442Y-100358800D01*
X106827444Y-100358800D01*
X106909544Y-100350714D01*
X107014878Y-100318761D01*
X107111954Y-100266873D01*
X107197043Y-100197043D01*
X107214543Y-100175720D01*
X107775724Y-99614539D01*
X107797043Y-99597043D01*
X107866873Y-99511954D01*
X107918761Y-99414878D01*
X107950714Y-99309544D01*
X107958800Y-99227444D01*
X107958800Y-99227443D01*
X107961503Y-99200001D01*
X107958800Y-99172559D01*
X107958800Y-97738568D01*
X111175725Y-94521644D01*
X111197043Y-94504149D01*
X111266873Y-94419060D01*
X111318761Y-94321984D01*
X111350714Y-94216650D01*
X111357457Y-94148186D01*
X111393988Y-94123777D01*
X111523777Y-93993988D01*
X111625751Y-93841373D01*
X111695992Y-93671796D01*
X111731800Y-93491774D01*
X111731800Y-93308226D01*
X111695992Y-93128204D01*
X111625751Y-92958627D01*
X111523777Y-92806012D01*
X111393988Y-92676223D01*
X111241373Y-92574249D01*
X111071796Y-92504008D01*
X110891774Y-92468200D01*
X110708226Y-92468200D01*
X110528204Y-92504008D01*
X110358627Y-92574249D01*
X110206012Y-92676223D01*
X110076223Y-92806012D01*
X109974249Y-92958627D01*
X109904008Y-93128204D01*
X109868200Y-93308226D01*
X109868200Y-93491774D01*
X109904008Y-93671796D01*
X109974249Y-93841373D01*
X110076223Y-93993988D01*
X110099539Y-94017304D01*
X107024281Y-97092563D01*
X107002957Y-97110063D01*
X106933127Y-97195152D01*
X106881239Y-97292229D01*
X106849286Y-97397563D01*
X106842329Y-97468200D01*
X106838497Y-97507106D01*
X106841200Y-97534548D01*
X106841201Y-98968536D01*
X106568538Y-99241200D01*
X106204076Y-99241200D01*
X106241373Y-99225751D01*
X106393988Y-99123777D01*
X106523777Y-98993988D01*
X106625751Y-98841373D01*
X106695992Y-98671796D01*
X106731800Y-98491774D01*
X106731800Y-98308226D01*
X106695992Y-98128204D01*
X106625751Y-97958627D01*
X106523777Y-97806012D01*
X106393988Y-97676223D01*
X106358800Y-97652711D01*
X106358800Y-90231462D01*
X106666719Y-89923544D01*
X106708226Y-89931800D01*
X106891774Y-89931800D01*
X107071796Y-89895992D01*
X107241373Y-89825751D01*
X107393988Y-89723777D01*
X107458735Y-89659030D01*
X107968710Y-89659030D01*
X107968710Y-89940970D01*
X108023714Y-90217492D01*
X108131608Y-90477970D01*
X108288245Y-90712394D01*
X108487606Y-90911755D01*
X108722030Y-91068392D01*
X108982508Y-91176286D01*
X109259030Y-91231290D01*
X109540970Y-91231290D01*
X109817492Y-91176286D01*
X110077970Y-91068392D01*
X110312394Y-90911755D01*
X110511755Y-90712394D01*
X110668392Y-90477970D01*
X110776286Y-90217492D01*
X110831290Y-89940970D01*
X110831290Y-89659030D01*
X110776286Y-89382508D01*
X110668392Y-89122030D01*
X110511755Y-88887606D01*
X110312394Y-88688245D01*
X110077970Y-88531608D01*
X109817492Y-88423714D01*
X109540970Y-88368710D01*
X109259030Y-88368710D01*
X108982508Y-88423714D01*
X108722030Y-88531608D01*
X108487606Y-88688245D01*
X108288245Y-88887606D01*
X108131608Y-89122030D01*
X108023714Y-89382508D01*
X107968710Y-89659030D01*
X107458735Y-89659030D01*
X107523777Y-89593988D01*
X107625751Y-89441373D01*
X107695992Y-89271796D01*
X107731800Y-89091774D01*
X107731800Y-88908226D01*
X107695992Y-88728204D01*
X107625751Y-88558627D01*
X107523777Y-88406012D01*
X107393988Y-88276223D01*
X107241373Y-88174249D01*
X107071796Y-88104008D01*
X106891774Y-88068200D01*
X106708226Y-88068200D01*
X106528204Y-88104008D01*
X106358627Y-88174249D01*
X106206012Y-88276223D01*
X106076223Y-88406012D01*
X105974249Y-88558627D01*
X105904008Y-88728204D01*
X105868200Y-88908226D01*
X105868200Y-89091774D01*
X105876456Y-89133281D01*
X105424281Y-89585457D01*
X105402957Y-89602957D01*
X105333127Y-89688046D01*
X105281239Y-89785123D01*
X105249286Y-89890457D01*
X105244311Y-89940970D01*
X105238497Y-90000000D01*
X105241200Y-90027442D01*
X105241201Y-97652711D01*
X105206012Y-97676223D01*
X105076223Y-97806012D01*
X104974249Y-97958627D01*
X104904008Y-98128204D01*
X104868200Y-98308226D01*
X104868200Y-98491774D01*
X104904008Y-98671796D01*
X104974249Y-98841373D01*
X105076223Y-98993988D01*
X105086912Y-99004677D01*
X105041373Y-98974249D01*
X104871796Y-98904008D01*
X104691774Y-98868200D01*
X104508226Y-98868200D01*
X104328204Y-98904008D01*
X104158627Y-98974249D01*
X104006012Y-99076223D01*
X103876223Y-99206012D01*
X103774249Y-99358627D01*
X103704008Y-99528204D01*
X103668200Y-99708226D01*
X103285800Y-99708226D01*
X103285800Y-98740792D01*
X103289118Y-98707106D01*
X103284597Y-98661202D01*
X103275877Y-98572666D01*
X103236662Y-98443392D01*
X103172981Y-98324253D01*
X103087279Y-98219826D01*
X103061114Y-98198353D01*
X101177038Y-96314277D01*
X101225751Y-96241373D01*
X101295992Y-96071796D01*
X101331800Y-95891774D01*
X101331800Y-95708226D01*
X101295992Y-95528204D01*
X101225751Y-95358627D01*
X101123777Y-95206012D01*
X100993988Y-95076223D01*
X100841373Y-94974249D01*
X100671796Y-94904008D01*
X100491774Y-94868200D01*
X100438068Y-94868200D01*
X94108758Y-88538891D01*
X94087280Y-88512720D01*
X93982853Y-88427019D01*
X93863714Y-88363338D01*
X93734440Y-88324123D01*
X93633689Y-88314200D01*
X93633679Y-88314200D01*
X93600000Y-88310883D01*
X93566321Y-88314200D01*
X90531965Y-88314200D01*
X90493988Y-88276223D01*
X90341373Y-88174249D01*
X90171796Y-88104008D01*
X89991774Y-88068200D01*
X89808226Y-88068200D01*
X89628204Y-88104008D01*
X89458627Y-88174249D01*
X89306012Y-88276223D01*
X89176223Y-88406012D01*
X89074249Y-88558627D01*
X89004008Y-88728204D01*
X88968200Y-88908226D01*
X84558800Y-88908226D01*
X84558800Y-88431462D01*
X85231463Y-87758800D01*
X105172558Y-87758800D01*
X105200000Y-87761503D01*
X105227442Y-87758800D01*
X105227444Y-87758800D01*
X105309544Y-87750714D01*
X105414878Y-87718761D01*
X105511954Y-87666873D01*
X105597043Y-87597043D01*
X105614543Y-87575719D01*
X110631464Y-82558799D01*
X113372559Y-82558799D01*
X113400001Y-82561502D01*
X113427443Y-82558799D01*
X113427445Y-82558799D01*
X113509545Y-82550713D01*
X113614879Y-82518760D01*
X113711955Y-82466872D01*
X113765135Y-82423229D01*
X113808226Y-82431800D01*
X113991774Y-82431800D01*
X114171796Y-82395992D01*
X114341373Y-82325751D01*
X114493988Y-82223777D01*
X114623777Y-82093988D01*
X114725751Y-81941373D01*
X114795992Y-81771796D01*
X114831800Y-81591774D01*
X114831800Y-81408226D01*
X114795992Y-81228204D01*
X114725751Y-81058627D01*
X114623777Y-80906012D01*
X114493988Y-80776223D01*
X114341373Y-80674249D01*
X114171796Y-80604008D01*
X113991774Y-80568200D01*
X113808226Y-80568200D01*
X113628204Y-80604008D01*
X113458627Y-80674249D01*
X113306012Y-80776223D01*
X113176223Y-80906012D01*
X113074249Y-81058627D01*
X113004008Y-81228204D01*
X112968200Y-81408226D01*
X112968200Y-81441199D01*
X110427443Y-81441199D01*
X110400001Y-81438496D01*
X110372559Y-81441199D01*
X110372557Y-81441199D01*
X110290457Y-81449285D01*
X110185123Y-81481238D01*
X110088047Y-81533126D01*
X110002958Y-81602956D01*
X109985463Y-81624274D01*
X104968538Y-86641200D01*
X85027444Y-86641200D01*
X85000000Y-86638497D01*
X84972556Y-86641200D01*
X84890456Y-86649286D01*
X84785122Y-86681239D01*
X84688046Y-86733127D01*
X84602957Y-86802957D01*
X84585462Y-86824275D01*
X83624276Y-87785462D01*
X83602958Y-87802957D01*
X83585463Y-87824275D01*
X83533128Y-87888046D01*
X83481239Y-87985123D01*
X83449287Y-88090456D01*
X83438497Y-88200000D01*
X83441201Y-88227452D01*
X83441200Y-90652711D01*
X83406012Y-90676223D01*
X83276223Y-90806012D01*
X83174249Y-90958627D01*
X83104008Y-91128204D01*
X83068200Y-91308226D01*
X69456800Y-91308226D01*
X69456800Y-84008226D01*
X83868200Y-84008226D01*
X83868200Y-84191774D01*
X83904008Y-84371796D01*
X83974249Y-84541373D01*
X84076223Y-84693988D01*
X84206012Y-84823777D01*
X84358627Y-84925751D01*
X84528204Y-84995992D01*
X84708226Y-85031800D01*
X84891774Y-85031800D01*
X85071796Y-84995992D01*
X85241373Y-84925751D01*
X85393988Y-84823777D01*
X85523777Y-84693988D01*
X85625751Y-84541373D01*
X85695992Y-84371796D01*
X85731800Y-84191774D01*
X85731800Y-84008226D01*
X85729503Y-83996680D01*
X86941984Y-82784200D01*
X98621586Y-82784200D01*
X98707417Y-82775746D01*
X98763281Y-82758800D01*
X99652711Y-82758800D01*
X99676223Y-82793988D01*
X99806012Y-82923777D01*
X99958627Y-83025751D01*
X100128204Y-83095992D01*
X100308226Y-83131800D01*
X100491774Y-83131800D01*
X100671796Y-83095992D01*
X100841373Y-83025751D01*
X100993988Y-82923777D01*
X101123777Y-82793988D01*
X101225751Y-82641373D01*
X101295992Y-82471796D01*
X101331800Y-82291774D01*
X101331800Y-82108226D01*
X101295992Y-81928204D01*
X101225751Y-81758627D01*
X101123777Y-81606012D01*
X100993988Y-81476223D01*
X100841373Y-81374249D01*
X100671796Y-81304008D01*
X100491774Y-81268200D01*
X100308226Y-81268200D01*
X100128204Y-81304008D01*
X99958627Y-81374249D01*
X99806012Y-81476223D01*
X99676223Y-81606012D01*
X99652711Y-81641200D01*
X98763281Y-81641200D01*
X98707417Y-81624254D01*
X98621586Y-81615800D01*
X86728692Y-81615800D01*
X86700000Y-81612974D01*
X86585477Y-81624254D01*
X86475355Y-81657659D01*
X86373866Y-81711906D01*
X86307196Y-81766620D01*
X86307194Y-81766622D01*
X86284910Y-81784910D01*
X86266622Y-81807194D01*
X84903320Y-83170497D01*
X84891774Y-83168200D01*
X84708226Y-83168200D01*
X84528204Y-83204008D01*
X84358627Y-83274249D01*
X84206012Y-83376223D01*
X84076223Y-83506012D01*
X83974249Y-83658627D01*
X83904008Y-83828204D01*
X83868200Y-84008226D01*
X69456800Y-84008226D01*
X69456800Y-80408226D01*
X90668200Y-80408226D01*
X90668200Y-80591774D01*
X90704008Y-80771796D01*
X90774249Y-80941373D01*
X90876223Y-81093988D01*
X91006012Y-81223777D01*
X91158627Y-81325751D01*
X91328204Y-81395992D01*
X91508226Y-81431800D01*
X91691774Y-81431800D01*
X91871796Y-81395992D01*
X92041373Y-81325751D01*
X92193988Y-81223777D01*
X92323777Y-81093988D01*
X92425751Y-80941373D01*
X92468694Y-80837699D01*
X105143036Y-80837699D01*
X105166548Y-80872887D01*
X105296337Y-81002676D01*
X105448952Y-81104650D01*
X105618529Y-81174891D01*
X105798551Y-81210699D01*
X105982099Y-81210699D01*
X106162121Y-81174891D01*
X106331698Y-81104650D01*
X106484313Y-81002676D01*
X106614102Y-80872887D01*
X106716076Y-80720272D01*
X106786317Y-80550695D01*
X106822125Y-80370673D01*
X106822125Y-80187125D01*
X106786317Y-80007103D01*
X106716076Y-79837526D01*
X106614102Y-79684911D01*
X106484313Y-79555122D01*
X106331698Y-79453148D01*
X106162121Y-79382907D01*
X105982099Y-79347099D01*
X105798551Y-79347099D01*
X105618529Y-79382907D01*
X105448952Y-79453148D01*
X105296337Y-79555122D01*
X105166548Y-79684911D01*
X105143036Y-79720099D01*
X92109992Y-79720099D01*
X92041373Y-79674249D01*
X91871796Y-79604008D01*
X91691774Y-79568200D01*
X91508226Y-79568200D01*
X91328204Y-79604008D01*
X91158627Y-79674249D01*
X91006012Y-79776223D01*
X90876223Y-79906012D01*
X90774249Y-80058627D01*
X90704008Y-80228204D01*
X90668200Y-80408226D01*
X69456800Y-80408226D01*
X69456800Y-76283635D01*
X92195970Y-76283635D01*
X92279049Y-76470732D01*
X92499869Y-76571300D01*
X92736067Y-76626856D01*
X92978565Y-76635264D01*
X93218043Y-76596202D01*
X93445300Y-76511170D01*
X93520951Y-76470732D01*
X93604030Y-76283635D01*
X92900000Y-75579605D01*
X92195970Y-76283635D01*
X69456800Y-76283635D01*
X69456800Y-66760489D01*
X69568200Y-66760489D01*
X69568200Y-67239511D01*
X69661653Y-67709330D01*
X69844967Y-68151889D01*
X70111098Y-68550182D01*
X70449818Y-68888902D01*
X70848111Y-69155033D01*
X71290670Y-69338347D01*
X71760489Y-69431800D01*
X72239511Y-69431800D01*
X72709330Y-69338347D01*
X73151889Y-69155033D01*
X73550182Y-68888902D01*
X73888902Y-68550182D01*
X74155033Y-68151889D01*
X74338347Y-67709330D01*
X74431800Y-67239511D01*
X74431800Y-66760489D01*
X74338347Y-66290670D01*
X74155033Y-65848111D01*
X73888902Y-65449818D01*
X73550182Y-65111098D01*
X73151889Y-64844967D01*
X72709330Y-64661653D01*
X72239511Y-64568200D01*
X71760489Y-64568200D01*
X71290670Y-64661653D01*
X70848111Y-64844967D01*
X70449818Y-65111098D01*
X70111098Y-65449818D01*
X69844967Y-65848111D01*
X69661653Y-66290670D01*
X69568200Y-66760489D01*
X69456800Y-66760489D01*
X69456800Y-65022343D01*
X69488339Y-64700683D01*
X69575265Y-64412768D01*
X69714982Y-64150000D01*
X75515000Y-64150000D01*
X75515000Y-72900000D01*
X75527201Y-73023882D01*
X75563336Y-73143004D01*
X75622017Y-73252787D01*
X75700987Y-73349013D01*
X75797213Y-73427983D01*
X75906996Y-73486664D01*
X76026118Y-73522799D01*
X76150000Y-73535000D01*
X81177254Y-73535000D01*
X82253319Y-74395852D01*
X82406996Y-74486664D01*
X82526118Y-74522799D01*
X82650000Y-74535000D01*
X92015412Y-74535000D01*
X91935402Y-74615010D01*
X92016363Y-74695971D01*
X91829268Y-74779049D01*
X91728700Y-74999869D01*
X91673144Y-75236067D01*
X91664736Y-75478565D01*
X91703798Y-75718043D01*
X91788830Y-75945300D01*
X91829268Y-76020951D01*
X92016365Y-76104030D01*
X92720395Y-75400000D01*
X92706253Y-75385858D01*
X92885858Y-75206253D01*
X92900000Y-75220395D01*
X92914143Y-75206253D01*
X93093748Y-75385858D01*
X93079605Y-75400000D01*
X93783635Y-76104030D01*
X93970732Y-76020951D01*
X94071300Y-75800131D01*
X94126856Y-75563933D01*
X94135264Y-75321435D01*
X94096202Y-75081957D01*
X94011170Y-74854700D01*
X93970732Y-74779049D01*
X93783637Y-74695971D01*
X93864598Y-74615010D01*
X93784588Y-74535000D01*
X104650000Y-74535000D01*
X104773882Y-74522799D01*
X104893004Y-74486664D01*
X105002787Y-74427983D01*
X105099013Y-74349013D01*
X105177983Y-74252787D01*
X105236664Y-74143004D01*
X105272799Y-74023882D01*
X105285000Y-73900000D01*
X105285000Y-70135822D01*
X112717760Y-70135822D01*
X112717760Y-70664178D01*
X112820837Y-71182380D01*
X113023030Y-71670517D01*
X113316568Y-72109828D01*
X113690172Y-72483432D01*
X114129483Y-72776970D01*
X114617620Y-72979163D01*
X115135822Y-73082240D01*
X115664178Y-73082240D01*
X116182380Y-72979163D01*
X116670517Y-72776970D01*
X117109828Y-72483432D01*
X117483432Y-72109828D01*
X117776970Y-71670517D01*
X117979163Y-71182380D01*
X118082240Y-70664178D01*
X118082240Y-70135822D01*
X117979163Y-69617620D01*
X117776970Y-69129483D01*
X117483432Y-68690172D01*
X117109828Y-68316568D01*
X116670517Y-68023030D01*
X116182380Y-67820837D01*
X115664178Y-67717760D01*
X115135822Y-67717760D01*
X114617620Y-67820837D01*
X114129483Y-68023030D01*
X113690172Y-68316568D01*
X113316568Y-68690172D01*
X113023030Y-69129483D01*
X112820837Y-69617620D01*
X112717760Y-70135822D01*
X105285000Y-70135822D01*
X105285000Y-66760489D01*
X119568200Y-66760489D01*
X119568200Y-67239511D01*
X119661653Y-67709330D01*
X119844967Y-68151889D01*
X120111098Y-68550182D01*
X120449818Y-68888902D01*
X120848111Y-69155033D01*
X121290670Y-69338347D01*
X121760489Y-69431800D01*
X122239511Y-69431800D01*
X122709330Y-69338347D01*
X123151889Y-69155033D01*
X123550182Y-68888902D01*
X123888902Y-68550182D01*
X124155033Y-68151889D01*
X124338347Y-67709330D01*
X124431800Y-67239511D01*
X124431800Y-66760489D01*
X124338347Y-66290670D01*
X124155033Y-65848111D01*
X123888902Y-65449818D01*
X123550182Y-65111098D01*
X123151889Y-64844967D01*
X122709330Y-64661653D01*
X122239511Y-64568200D01*
X121760489Y-64568200D01*
X121290670Y-64661653D01*
X120848111Y-64844967D01*
X120449818Y-65111098D01*
X120111098Y-65449818D01*
X119844967Y-65848111D01*
X119661653Y-66290670D01*
X119568200Y-66760489D01*
X105285000Y-66760489D01*
X105285000Y-64150000D01*
X105272799Y-64026118D01*
X105236664Y-63906996D01*
X105177983Y-63797213D01*
X105099013Y-63700987D01*
X105002787Y-63622017D01*
X104893004Y-63563336D01*
X104773882Y-63527201D01*
X104650000Y-63515000D01*
X76150000Y-63515000D01*
X76026118Y-63527201D01*
X75906996Y-63563336D01*
X75797213Y-63622017D01*
X75700987Y-63700987D01*
X75622017Y-63797213D01*
X75563336Y-63906996D01*
X75527201Y-64026118D01*
X75515000Y-64150000D01*
X69714982Y-64150000D01*
X69716463Y-64147216D01*
X69906543Y-63914154D01*
X70138277Y-63722446D01*
X70402838Y-63579399D01*
X70690133Y-63490467D01*
X71010447Y-63456800D01*
X122977657Y-63456800D01*
X123299317Y-63488339D01*
X123299317Y-63488339D01*
G37*
X123299317Y-63488339D02*
X123587232Y-63575265D01*
X123852784Y-63716463D01*
X124085846Y-63906543D01*
X124277554Y-64138277D01*
X124420601Y-64402838D01*
X124509533Y-64690133D01*
X124543201Y-65010457D01*
X124543200Y-121977657D01*
X124511661Y-122299317D01*
X124424733Y-122587235D01*
X124283540Y-122852779D01*
X124093457Y-123085846D01*
X123861723Y-123277554D01*
X123597163Y-123420600D01*
X123309866Y-123509533D01*
X122989553Y-123543200D01*
X71022343Y-123543200D01*
X70700683Y-123511661D01*
X70412765Y-123424733D01*
X70147221Y-123283540D01*
X69914154Y-123093457D01*
X69722446Y-122861723D01*
X69579400Y-122597163D01*
X69490467Y-122309866D01*
X69456800Y-121989553D01*
X69456800Y-119760489D01*
X69568200Y-119760489D01*
X69568200Y-120239511D01*
X69661653Y-120709330D01*
X69844967Y-121151889D01*
X70111098Y-121550182D01*
X70449818Y-121888902D01*
X70848111Y-122155033D01*
X71290670Y-122338347D01*
X71760489Y-122431800D01*
X72239511Y-122431800D01*
X72709330Y-122338347D01*
X73151889Y-122155033D01*
X73550182Y-121888902D01*
X73888902Y-121550182D01*
X74155033Y-121151889D01*
X74338347Y-120709330D01*
X74431800Y-120239511D01*
X74431800Y-119760489D01*
X74338347Y-119290670D01*
X74155033Y-118848111D01*
X73888902Y-118449818D01*
X73550182Y-118111098D01*
X73151889Y-117844967D01*
X72801908Y-117700000D01*
X76811998Y-117700000D01*
X76836747Y-117951277D01*
X76910041Y-118192897D01*
X77029065Y-118415576D01*
X77189245Y-118610755D01*
X77384424Y-118770935D01*
X77607103Y-118889959D01*
X77848723Y-118963253D01*
X78037031Y-118981800D01*
X78162969Y-118981800D01*
X78351277Y-118963253D01*
X78592897Y-118889959D01*
X78815576Y-118770935D01*
X79010755Y-118610755D01*
X79170935Y-118415576D01*
X79289959Y-118192897D01*
X79363253Y-117951277D01*
X79370000Y-117882775D01*
X79376747Y-117951277D01*
X79450041Y-118192897D01*
X79569065Y-118415576D01*
X79729245Y-118610755D01*
X79924424Y-118770935D01*
X80147103Y-118889959D01*
X80388723Y-118963253D01*
X80577031Y-118981800D01*
X80702969Y-118981800D01*
X80891277Y-118963253D01*
X81132897Y-118889959D01*
X81339399Y-118779581D01*
X81339400Y-120514905D01*
X81336574Y-120543599D01*
X81347853Y-120658122D01*
X81373947Y-120744142D01*
X81355576Y-120729065D01*
X81132897Y-120610041D01*
X80891277Y-120536747D01*
X80702969Y-120518200D01*
X80577031Y-120518200D01*
X80388723Y-120536747D01*
X80147103Y-120610041D01*
X79924424Y-120729065D01*
X79729245Y-120889245D01*
X79569065Y-121084424D01*
X79450041Y-121307103D01*
X79383889Y-121525179D01*
X79383889Y-120950000D01*
X79375552Y-120865352D01*
X79350861Y-120783958D01*
X79310766Y-120708944D01*
X79256806Y-120643194D01*
X79191056Y-120589234D01*
X79116042Y-120549139D01*
X79034648Y-120524448D01*
X78950000Y-120516111D01*
X77250000Y-120516111D01*
X77165352Y-120524448D01*
X77083958Y-120549139D01*
X77008944Y-120589234D01*
X76943194Y-120643194D01*
X76889234Y-120708944D01*
X76849139Y-120783958D01*
X76824448Y-120865352D01*
X76816111Y-120950000D01*
X76816111Y-122650000D01*
X76824448Y-122734648D01*
X76849139Y-122816042D01*
X76889234Y-122891056D01*
X76943194Y-122956806D01*
X77008944Y-123010766D01*
X77083958Y-123050861D01*
X77165352Y-123075552D01*
X77250000Y-123083889D01*
X78950000Y-123083889D01*
X79034648Y-123075552D01*
X79116042Y-123050861D01*
X79191056Y-123010766D01*
X79256806Y-122956806D01*
X79310766Y-122891056D01*
X79350861Y-122816042D01*
X79375552Y-122734648D01*
X79383889Y-122650000D01*
X79383889Y-122074821D01*
X79450041Y-122292897D01*
X79569065Y-122515576D01*
X79729245Y-122710755D01*
X79924424Y-122870935D01*
X80147103Y-122989959D01*
X80388723Y-123063253D01*
X80577031Y-123081800D01*
X80702969Y-123081800D01*
X80891277Y-123063253D01*
X81132897Y-122989959D01*
X81355576Y-122870935D01*
X81550755Y-122710755D01*
X81710935Y-122515576D01*
X81829959Y-122292897D01*
X81903253Y-122051277D01*
X81910000Y-121982775D01*
X81916747Y-122051277D01*
X81990041Y-122292897D01*
X82109065Y-122515576D01*
X82269245Y-122710755D01*
X82464424Y-122870935D01*
X82687103Y-122989959D01*
X82928723Y-123063253D01*
X83117031Y-123081800D01*
X83242969Y-123081800D01*
X83431277Y-123063253D01*
X83672897Y-122989959D01*
X83895576Y-122870935D01*
X84090755Y-122710755D01*
X84250935Y-122515576D01*
X84369959Y-122292897D01*
X84443253Y-122051277D01*
X84450000Y-121982775D01*
X84456747Y-122051277D01*
X84530041Y-122292897D01*
X84649065Y-122515576D01*
X84809245Y-122710755D01*
X85004424Y-122870935D01*
X85227103Y-122989959D01*
X85468723Y-123063253D01*
X85657031Y-123081800D01*
X85782969Y-123081800D01*
X85971277Y-123063253D01*
X86212897Y-122989959D01*
X86435576Y-122870935D01*
X86630755Y-122710755D01*
X86790935Y-122515576D01*
X86909959Y-122292897D01*
X86983253Y-122051277D01*
X86995493Y-121927002D01*
X87092450Y-121927002D01*
X87020072Y-122124968D01*
X87107295Y-122360622D01*
X87238816Y-122574731D01*
X87409580Y-122759068D01*
X87613025Y-122906548D01*
X87841333Y-123011505D01*
X87935033Y-123039922D01*
X88133000Y-122966960D01*
X88133000Y-121927000D01*
X88387000Y-121927000D01*
X88387000Y-122966960D01*
X88584967Y-123039922D01*
X88678667Y-123011505D01*
X88906975Y-122906548D01*
X89110420Y-122759068D01*
X89281184Y-122574731D01*
X89412705Y-122360622D01*
X89499928Y-122124968D01*
X89427549Y-121927000D01*
X88387000Y-121927000D01*
X88133000Y-121927000D01*
X88113000Y-121927000D01*
X88113000Y-121673000D01*
X88133000Y-121673000D01*
X88133000Y-121653000D01*
X88387000Y-121653000D01*
X88387000Y-121673000D01*
X89427549Y-121673000D01*
X89459480Y-121585663D01*
X90071845Y-122198029D01*
X90066111Y-122256250D01*
X90066111Y-122743750D01*
X90079132Y-122875951D01*
X90117693Y-123003071D01*
X90180314Y-123120226D01*
X90264587Y-123222913D01*
X90367274Y-123307186D01*
X90484429Y-123369807D01*
X90611549Y-123408368D01*
X90743750Y-123421389D01*
X91656250Y-123421389D01*
X91788451Y-123408368D01*
X91915571Y-123369807D01*
X92032726Y-123307186D01*
X92135413Y-123222913D01*
X92219686Y-123120226D01*
X92282307Y-123003071D01*
X92320868Y-122875951D01*
X92333889Y-122743750D01*
X92333889Y-122650000D01*
X92916111Y-122650000D01*
X92924448Y-122734648D01*
X92949139Y-122816042D01*
X92989234Y-122891056D01*
X93043194Y-122956806D01*
X93108944Y-123010766D01*
X93183958Y-123050861D01*
X93265352Y-123075552D01*
X93350000Y-123083889D01*
X93965050Y-123081800D01*
X94073000Y-122973850D01*
X94073000Y-121927000D01*
X94327000Y-121927000D01*
X94327000Y-122973850D01*
X94434950Y-123081800D01*
X95050000Y-123083889D01*
X95134648Y-123075552D01*
X95216042Y-123050861D01*
X95291056Y-123010766D01*
X95356806Y-122956806D01*
X95410766Y-122891056D01*
X95450861Y-122816042D01*
X95475552Y-122734648D01*
X95483889Y-122650000D01*
X95482106Y-122124968D01*
X95500072Y-122124968D01*
X95587295Y-122360622D01*
X95718816Y-122574731D01*
X95889580Y-122759068D01*
X96093025Y-122906548D01*
X96321333Y-123011505D01*
X96415033Y-123039922D01*
X96613000Y-122966960D01*
X96613000Y-121927000D01*
X96867000Y-121927000D01*
X96867000Y-122966960D01*
X97064967Y-123039922D01*
X97158667Y-123011505D01*
X97386975Y-122906548D01*
X97590420Y-122759068D01*
X97761184Y-122574731D01*
X97892705Y-122360622D01*
X97979928Y-122124968D01*
X98040072Y-122124968D01*
X98127295Y-122360622D01*
X98258816Y-122574731D01*
X98429580Y-122759068D01*
X98633025Y-122906548D01*
X98861333Y-123011505D01*
X98955033Y-123039922D01*
X99153000Y-122966960D01*
X99153000Y-121927000D01*
X99407000Y-121927000D01*
X99407000Y-122966960D01*
X99604967Y-123039922D01*
X99698667Y-123011505D01*
X99926975Y-122906548D01*
X100130420Y-122759068D01*
X100301184Y-122574731D01*
X100432705Y-122360622D01*
X100519928Y-122124968D01*
X100580072Y-122124968D01*
X100667295Y-122360622D01*
X100798816Y-122574731D01*
X100969580Y-122759068D01*
X101173025Y-122906548D01*
X101401333Y-123011505D01*
X101495033Y-123039922D01*
X101693000Y-122966960D01*
X101693000Y-121927000D01*
X101947000Y-121927000D01*
X101947000Y-122966960D01*
X102144967Y-123039922D01*
X102238667Y-123011505D01*
X102466975Y-122906548D01*
X102670420Y-122759068D01*
X102841184Y-122574731D01*
X102972705Y-122360622D01*
X103059928Y-122124968D01*
X102987549Y-121927000D01*
X101947000Y-121927000D01*
X101693000Y-121927000D01*
X100652451Y-121927000D01*
X100580072Y-122124968D01*
X100519928Y-122124968D01*
X100447549Y-121927000D01*
X99407000Y-121927000D01*
X99153000Y-121927000D01*
X98112451Y-121927000D01*
X98040072Y-122124968D01*
X97979928Y-122124968D01*
X97907549Y-121927000D01*
X96867000Y-121927000D01*
X96613000Y-121927000D01*
X95572451Y-121927000D01*
X95500072Y-122124968D01*
X95482106Y-122124968D01*
X95481800Y-122034950D01*
X95373850Y-121927000D01*
X94327000Y-121927000D01*
X94073000Y-121927000D01*
X93026150Y-121927000D01*
X92918200Y-122034950D01*
X92916111Y-122650000D01*
X92333889Y-122650000D01*
X92333889Y-122256250D01*
X92320868Y-122124049D01*
X92282307Y-121996929D01*
X92219686Y-121879774D01*
X92135413Y-121777087D01*
X92032726Y-121692814D01*
X91915571Y-121630193D01*
X91788451Y-121591632D01*
X91656250Y-121578611D01*
X91104795Y-121578611D01*
X91072573Y-121546389D01*
X91656250Y-121546389D01*
X91788451Y-121533368D01*
X91915571Y-121494807D01*
X92032726Y-121432186D01*
X92135413Y-121347913D01*
X92219686Y-121245226D01*
X92282307Y-121128071D01*
X92320868Y-121000951D01*
X92325886Y-120950000D01*
X92916111Y-120950000D01*
X92918200Y-121565050D01*
X93026150Y-121673000D01*
X94073000Y-121673000D01*
X94073000Y-120626150D01*
X94327000Y-120626150D01*
X94327000Y-121673000D01*
X95373850Y-121673000D01*
X95481800Y-121565050D01*
X95482105Y-121475032D01*
X95500072Y-121475032D01*
X95572451Y-121673000D01*
X96613000Y-121673000D01*
X96613000Y-120633040D01*
X96867000Y-120633040D01*
X96867000Y-121673000D01*
X97907549Y-121673000D01*
X97979928Y-121475032D01*
X98040072Y-121475032D01*
X98112451Y-121673000D01*
X99153000Y-121673000D01*
X99153000Y-120633040D01*
X99407000Y-120633040D01*
X99407000Y-121673000D01*
X100447549Y-121673000D01*
X100519928Y-121475032D01*
X100580072Y-121475032D01*
X100652451Y-121673000D01*
X101693000Y-121673000D01*
X101693000Y-120633040D01*
X101947000Y-120633040D01*
X101947000Y-121673000D01*
X102987549Y-121673000D01*
X103059928Y-121475032D01*
X102972705Y-121239378D01*
X102841184Y-121025269D01*
X102670420Y-120840932D01*
X102466975Y-120693452D01*
X102238667Y-120588495D01*
X102144967Y-120560078D01*
X101947000Y-120633040D01*
X101693000Y-120633040D01*
X101495033Y-120560078D01*
X101401333Y-120588495D01*
X101173025Y-120693452D01*
X100969580Y-120840932D01*
X100798816Y-121025269D01*
X100667295Y-121239378D01*
X100580072Y-121475032D01*
X100519928Y-121475032D01*
X100432705Y-121239378D01*
X100301184Y-121025269D01*
X100130420Y-120840932D01*
X99926975Y-120693452D01*
X99698667Y-120588495D01*
X99604967Y-120560078D01*
X99407000Y-120633040D01*
X99153000Y-120633040D01*
X98955033Y-120560078D01*
X98861333Y-120588495D01*
X98633025Y-120693452D01*
X98429580Y-120840932D01*
X98258816Y-121025269D01*
X98127295Y-121239378D01*
X98040072Y-121475032D01*
X97979928Y-121475032D01*
X97892705Y-121239378D01*
X97761184Y-121025269D01*
X97590420Y-120840932D01*
X97386975Y-120693452D01*
X97158667Y-120588495D01*
X97064967Y-120560078D01*
X96867000Y-120633040D01*
X96613000Y-120633040D01*
X96415033Y-120560078D01*
X96321333Y-120588495D01*
X96093025Y-120693452D01*
X95889580Y-120840932D01*
X95718816Y-121025269D01*
X95587295Y-121239378D01*
X95500072Y-121475032D01*
X95482105Y-121475032D01*
X95483889Y-120950000D01*
X95475552Y-120865352D01*
X95450861Y-120783958D01*
X95410766Y-120708944D01*
X95356806Y-120643194D01*
X95291056Y-120589234D01*
X95216042Y-120549139D01*
X95134648Y-120524448D01*
X95050000Y-120516111D01*
X94434950Y-120518200D01*
X94327000Y-120626150D01*
X94073000Y-120626150D01*
X93965050Y-120518200D01*
X93350000Y-120516111D01*
X93265352Y-120524448D01*
X93183958Y-120549139D01*
X93108944Y-120589234D01*
X93043194Y-120643194D01*
X92989234Y-120708944D01*
X92949139Y-120783958D01*
X92924448Y-120865352D01*
X92916111Y-120950000D01*
X92325886Y-120950000D01*
X92333889Y-120868750D01*
X92333889Y-120381250D01*
X92320868Y-120249049D01*
X92282307Y-120121929D01*
X92266875Y-120093058D01*
X92366618Y-120192801D01*
X92384910Y-120215090D01*
X92473866Y-120288094D01*
X92575355Y-120342341D01*
X92685477Y-120375746D01*
X92771308Y-120384200D01*
X92771317Y-120384200D01*
X92799999Y-120387025D01*
X92828681Y-120384200D01*
X103803217Y-120384200D01*
X105611822Y-122192806D01*
X105630110Y-122215090D01*
X105652394Y-122233378D01*
X105652396Y-122233380D01*
X105672387Y-122249785D01*
X105719066Y-122288094D01*
X105820555Y-122342341D01*
X105897271Y-122365612D01*
X105916111Y-122371328D01*
X105916111Y-122650000D01*
X105924448Y-122734648D01*
X105949139Y-122816042D01*
X105989234Y-122891056D01*
X106043194Y-122956806D01*
X106108944Y-123010766D01*
X106183958Y-123050861D01*
X106265352Y-123075552D01*
X106350000Y-123083889D01*
X108050000Y-123083889D01*
X108134648Y-123075552D01*
X108216042Y-123050861D01*
X108291056Y-123010766D01*
X108356806Y-122956806D01*
X108410766Y-122891056D01*
X108450861Y-122816042D01*
X108475552Y-122734648D01*
X108483889Y-122650000D01*
X108483889Y-122384200D01*
X108598843Y-122384200D01*
X108669065Y-122515576D01*
X108829245Y-122710755D01*
X109024424Y-122870935D01*
X109247103Y-122989959D01*
X109488723Y-123063253D01*
X109677031Y-123081800D01*
X109802969Y-123081800D01*
X109991277Y-123063253D01*
X110232897Y-122989959D01*
X110455576Y-122870935D01*
X110650755Y-122710755D01*
X110810935Y-122515576D01*
X110929959Y-122292897D01*
X111003253Y-122051277D01*
X111010000Y-121982775D01*
X111016747Y-122051277D01*
X111090041Y-122292897D01*
X111209065Y-122515576D01*
X111369245Y-122710755D01*
X111564424Y-122870935D01*
X111787103Y-122989959D01*
X112028723Y-123063253D01*
X112217031Y-123081800D01*
X112342969Y-123081800D01*
X112531277Y-123063253D01*
X112772897Y-122989959D01*
X112995576Y-122870935D01*
X113190755Y-122710755D01*
X113350935Y-122515576D01*
X113469959Y-122292897D01*
X113543253Y-122051277D01*
X113550000Y-121982775D01*
X113556747Y-122051277D01*
X113630041Y-122292897D01*
X113749065Y-122515576D01*
X113909245Y-122710755D01*
X114104424Y-122870935D01*
X114327103Y-122989959D01*
X114568723Y-123063253D01*
X114757031Y-123081800D01*
X114882969Y-123081800D01*
X115071277Y-123063253D01*
X115312897Y-122989959D01*
X115535576Y-122870935D01*
X115730755Y-122710755D01*
X115890935Y-122515576D01*
X116009959Y-122292897D01*
X116083253Y-122051277D01*
X116108002Y-121800000D01*
X116083253Y-121548723D01*
X116009959Y-121307103D01*
X115890935Y-121084424D01*
X115730755Y-120889245D01*
X115535576Y-120729065D01*
X115312897Y-120610041D01*
X115071277Y-120536747D01*
X114882969Y-120518200D01*
X114757031Y-120518200D01*
X114568723Y-120536747D01*
X114327103Y-120610041D01*
X114104424Y-120729065D01*
X113909245Y-120889245D01*
X113749065Y-121084424D01*
X113630041Y-121307103D01*
X113556747Y-121548723D01*
X113550000Y-121617225D01*
X113543253Y-121548723D01*
X113469959Y-121307103D01*
X113350935Y-121084424D01*
X113190755Y-120889245D01*
X112995576Y-120729065D01*
X112772897Y-120610041D01*
X112531277Y-120536747D01*
X112342969Y-120518200D01*
X112217031Y-120518200D01*
X112028723Y-120536747D01*
X111787103Y-120610041D01*
X111564424Y-120729065D01*
X111369245Y-120889245D01*
X111209065Y-121084424D01*
X111090041Y-121307103D01*
X111016747Y-121548723D01*
X111010000Y-121617225D01*
X111003253Y-121548723D01*
X110929959Y-121307103D01*
X110810935Y-121084424D01*
X110650755Y-120889245D01*
X110455576Y-120729065D01*
X110232897Y-120610041D01*
X109991277Y-120536747D01*
X109802969Y-120518200D01*
X109677031Y-120518200D01*
X109488723Y-120536747D01*
X109247103Y-120610041D01*
X109024424Y-120729065D01*
X108829245Y-120889245D01*
X108669065Y-121084424D01*
X108598843Y-121215800D01*
X108483889Y-121215800D01*
X108483889Y-120950000D01*
X108475552Y-120865352D01*
X108450861Y-120783958D01*
X108410766Y-120708944D01*
X108356806Y-120643194D01*
X108291056Y-120589234D01*
X108216042Y-120549139D01*
X108134648Y-120524448D01*
X108050000Y-120516111D01*
X106350000Y-120516111D01*
X106265352Y-120524448D01*
X106183958Y-120549139D01*
X106108944Y-120589234D01*
X106043194Y-120643194D01*
X105989234Y-120708944D01*
X105949139Y-120783958D01*
X105927308Y-120855924D01*
X104831873Y-119760489D01*
X119568200Y-119760489D01*
X119568200Y-120239511D01*
X119661653Y-120709330D01*
X119844967Y-121151889D01*
X120111098Y-121550182D01*
X120449818Y-121888902D01*
X120848111Y-122155033D01*
X121290670Y-122338347D01*
X121760489Y-122431800D01*
X122239511Y-122431800D01*
X122709330Y-122338347D01*
X123151889Y-122155033D01*
X123550182Y-121888902D01*
X123888902Y-121550182D01*
X124155033Y-121151889D01*
X124338347Y-120709330D01*
X124431800Y-120239511D01*
X124431800Y-119760489D01*
X124338347Y-119290670D01*
X124155033Y-118848111D01*
X123888902Y-118449818D01*
X123550182Y-118111098D01*
X123151889Y-117844967D01*
X122709330Y-117661653D01*
X122239511Y-117568200D01*
X121760489Y-117568200D01*
X121290670Y-117661653D01*
X120848111Y-117844967D01*
X120449818Y-118111098D01*
X120111098Y-118449818D01*
X119844967Y-118848111D01*
X119661653Y-119290670D01*
X119568200Y-119760489D01*
X104831873Y-119760489D01*
X104478582Y-119407199D01*
X104460290Y-119384910D01*
X104371334Y-119311906D01*
X104269845Y-119257659D01*
X104159723Y-119224254D01*
X104073892Y-119215800D01*
X104073884Y-119215800D01*
X104045200Y-119212975D01*
X104016516Y-119215800D01*
X93041983Y-119215800D01*
X92665299Y-118839116D01*
X92665299Y-118792783D01*
X92847103Y-118889959D01*
X93088723Y-118963253D01*
X93277031Y-118981800D01*
X93402969Y-118981800D01*
X93591277Y-118963253D01*
X93832897Y-118889959D01*
X94055576Y-118770935D01*
X94250755Y-118610755D01*
X94410935Y-118415576D01*
X94529959Y-118192897D01*
X94603253Y-117951277D01*
X94610000Y-117882775D01*
X94616747Y-117951277D01*
X94690041Y-118192897D01*
X94809065Y-118415576D01*
X94969245Y-118610755D01*
X95164424Y-118770935D01*
X95387103Y-118889959D01*
X95628723Y-118963253D01*
X95817031Y-118981800D01*
X95942969Y-118981800D01*
X96131277Y-118963253D01*
X96372897Y-118889959D01*
X96595576Y-118770935D01*
X96790755Y-118610755D01*
X96950935Y-118415576D01*
X97069959Y-118192897D01*
X97143253Y-117951277D01*
X97150000Y-117882775D01*
X97156747Y-117951277D01*
X97230041Y-118192897D01*
X97349065Y-118415576D01*
X97509245Y-118610755D01*
X97704424Y-118770935D01*
X97927103Y-118889959D01*
X98168723Y-118963253D01*
X98357031Y-118981800D01*
X98482969Y-118981800D01*
X98671277Y-118963253D01*
X98912897Y-118889959D01*
X99135576Y-118770935D01*
X99330755Y-118610755D01*
X99490935Y-118415576D01*
X99609959Y-118192897D01*
X99683253Y-117951277D01*
X99690000Y-117882775D01*
X99696747Y-117951277D01*
X99770041Y-118192897D01*
X99889065Y-118415576D01*
X100049245Y-118610755D01*
X100244424Y-118770935D01*
X100467103Y-118889959D01*
X100708723Y-118963253D01*
X100897031Y-118981800D01*
X101022969Y-118981800D01*
X101211277Y-118963253D01*
X101452897Y-118889959D01*
X101675576Y-118770935D01*
X101870755Y-118610755D01*
X102030935Y-118415576D01*
X102149959Y-118192897D01*
X102223253Y-117951277D01*
X102230000Y-117882775D01*
X102236747Y-117951277D01*
X102310041Y-118192897D01*
X102429065Y-118415576D01*
X102589245Y-118610755D01*
X102784424Y-118770935D01*
X103007103Y-118889959D01*
X103248723Y-118963253D01*
X103437031Y-118981800D01*
X103562969Y-118981800D01*
X103751277Y-118963253D01*
X103992897Y-118889959D01*
X104215576Y-118770935D01*
X104410755Y-118610755D01*
X104570935Y-118415576D01*
X104689959Y-118192897D01*
X104763253Y-117951277D01*
X104770000Y-117882775D01*
X104776747Y-117951277D01*
X104850041Y-118192897D01*
X104969065Y-118415576D01*
X105129245Y-118610755D01*
X105324424Y-118770935D01*
X105547103Y-118889959D01*
X105788723Y-118963253D01*
X105977031Y-118981800D01*
X106102969Y-118981800D01*
X106291277Y-118963253D01*
X106532897Y-118889959D01*
X106755576Y-118770935D01*
X106950755Y-118610755D01*
X107110935Y-118415576D01*
X107229959Y-118192897D01*
X107303253Y-117951277D01*
X107310000Y-117882775D01*
X107316747Y-117951277D01*
X107390041Y-118192897D01*
X107509065Y-118415576D01*
X107669245Y-118610755D01*
X107864424Y-118770935D01*
X108087103Y-118889959D01*
X108328723Y-118963253D01*
X108517031Y-118981800D01*
X108642969Y-118981800D01*
X108831277Y-118963253D01*
X109072897Y-118889959D01*
X109295576Y-118770935D01*
X109490755Y-118610755D01*
X109650935Y-118415576D01*
X109769959Y-118192897D01*
X109843253Y-117951277D01*
X109850000Y-117882775D01*
X109856747Y-117951277D01*
X109930041Y-118192897D01*
X110049065Y-118415576D01*
X110209245Y-118610755D01*
X110404424Y-118770935D01*
X110627103Y-118889959D01*
X110868723Y-118963253D01*
X111057031Y-118981800D01*
X111182969Y-118981800D01*
X111371277Y-118963253D01*
X111612897Y-118889959D01*
X111835576Y-118770935D01*
X112030755Y-118610755D01*
X112190935Y-118415576D01*
X112309959Y-118192897D01*
X112383253Y-117951277D01*
X112390000Y-117882775D01*
X112396747Y-117951277D01*
X112470041Y-118192897D01*
X112589065Y-118415576D01*
X112749245Y-118610755D01*
X112944424Y-118770935D01*
X113167103Y-118889959D01*
X113408723Y-118963253D01*
X113597031Y-118981800D01*
X113722969Y-118981800D01*
X113911277Y-118963253D01*
X114152897Y-118889959D01*
X114375576Y-118770935D01*
X114570755Y-118610755D01*
X114730935Y-118415576D01*
X114849959Y-118192897D01*
X114916111Y-117974821D01*
X114916111Y-118550000D01*
X114924448Y-118634648D01*
X114949139Y-118716042D01*
X114989234Y-118791056D01*
X115043194Y-118856806D01*
X115108944Y-118910766D01*
X115183958Y-118950861D01*
X115265352Y-118975552D01*
X115350000Y-118983889D01*
X117050000Y-118983889D01*
X117134648Y-118975552D01*
X117216042Y-118950861D01*
X117291056Y-118910766D01*
X117356806Y-118856806D01*
X117410766Y-118791056D01*
X117450861Y-118716042D01*
X117475552Y-118634648D01*
X117483889Y-118550000D01*
X117483889Y-116850000D01*
X117475552Y-116765352D01*
X117450861Y-116683958D01*
X117410766Y-116608944D01*
X117356806Y-116543194D01*
X117291056Y-116489234D01*
X117216042Y-116449139D01*
X117134648Y-116424448D01*
X117050000Y-116416111D01*
X116771328Y-116416111D01*
X116761404Y-116383397D01*
X116742341Y-116320555D01*
X116688094Y-116219066D01*
X116615090Y-116130110D01*
X116592801Y-116111818D01*
X100848768Y-100367785D01*
X100830476Y-100345496D01*
X100741520Y-100272492D01*
X100640031Y-100218245D01*
X100529909Y-100184840D01*
X100444078Y-100176386D01*
X100444070Y-100176386D01*
X100415386Y-100173561D01*
X100386702Y-100176386D01*
X93541379Y-100176386D01*
X93623777Y-100093988D01*
X93725751Y-99941373D01*
X93795992Y-99771796D01*
X93831800Y-99591774D01*
X93831800Y-99408226D01*
X93795992Y-99228204D01*
X93725751Y-99058627D01*
X93623777Y-98906012D01*
X93493988Y-98776223D01*
X93341373Y-98674249D01*
X93171796Y-98604008D01*
X92991774Y-98568200D01*
X92808226Y-98568200D01*
X92796680Y-98570497D01*
X89233382Y-95007199D01*
X89215090Y-94984910D01*
X89126134Y-94911906D01*
X89024645Y-94857659D01*
X88914523Y-94824254D01*
X88830432Y-94815971D01*
X88823777Y-94806012D01*
X88693988Y-94676223D01*
X88541373Y-94574249D01*
X88371796Y-94504008D01*
X88191774Y-94468200D01*
X88008226Y-94468200D01*
X87828204Y-94504008D01*
X87658627Y-94574249D01*
X87506012Y-94676223D01*
X87376223Y-94806012D01*
X87274249Y-94958627D01*
X87204008Y-95128204D01*
X87168200Y-95308226D01*
X87168200Y-95491774D01*
X87204008Y-95671796D01*
X87274249Y-95841373D01*
X87376223Y-95993988D01*
X87506012Y-96123777D01*
X87658627Y-96225751D01*
X87828204Y-96295992D01*
X88008226Y-96331800D01*
X88191774Y-96331800D01*
X88371796Y-96295992D01*
X88541373Y-96225751D01*
X88693988Y-96123777D01*
X88695791Y-96121974D01*
X91970497Y-99396680D01*
X91968200Y-99408226D01*
X91968200Y-99591774D01*
X92004008Y-99771796D01*
X92074249Y-99941373D01*
X92176223Y-100093988D01*
X92258621Y-100176386D01*
X91064122Y-100176386D01*
X91057582Y-100166598D01*
X90927793Y-100036809D01*
X90775178Y-99934835D01*
X90605601Y-99864594D01*
X90425579Y-99828786D01*
X90242031Y-99828786D01*
X90062009Y-99864594D01*
X89892432Y-99934835D01*
X89739817Y-100036809D01*
X89610028Y-100166598D01*
X89523468Y-100296145D01*
X89412317Y-100250105D01*
X89232295Y-100214297D01*
X89048747Y-100214297D01*
X88868725Y-100250105D01*
X88699148Y-100320346D01*
X88546533Y-100422320D01*
X88416744Y-100552109D01*
X88314770Y-100704724D01*
X88280935Y-100786409D01*
X87711032Y-100216506D01*
X87711032Y-99880936D01*
X87713857Y-99852254D01*
X87711032Y-99823572D01*
X87711032Y-99823563D01*
X87702578Y-99737732D01*
X87669173Y-99627610D01*
X87614926Y-99526121D01*
X87556472Y-99454894D01*
X87558633Y-99444030D01*
X87558633Y-99260482D01*
X87522825Y-99080460D01*
X87452584Y-98910883D01*
X87350610Y-98758268D01*
X87220821Y-98628479D01*
X87068206Y-98526505D01*
X86898629Y-98456264D01*
X86718607Y-98420456D01*
X86535059Y-98420456D01*
X86355037Y-98456264D01*
X86185460Y-98526505D01*
X86032845Y-98628479D01*
X85983679Y-98677645D01*
X85967236Y-98661202D01*
X85814621Y-98559228D01*
X85645044Y-98488987D01*
X85465022Y-98453179D01*
X85281474Y-98453179D01*
X85101452Y-98488987D01*
X84931875Y-98559228D01*
X84779260Y-98661202D01*
X84732319Y-98708144D01*
X84700398Y-98676223D01*
X84547783Y-98574249D01*
X84378206Y-98504008D01*
X84198184Y-98468200D01*
X84014636Y-98468200D01*
X83834614Y-98504008D01*
X83665037Y-98574249D01*
X83644565Y-98587928D01*
X83644565Y-98565617D01*
X83608757Y-98385595D01*
X83538516Y-98216018D01*
X83436542Y-98063403D01*
X83306753Y-97933614D01*
X83154138Y-97831640D01*
X82984561Y-97761399D01*
X82804539Y-97725591D01*
X82620991Y-97725591D01*
X82440969Y-97761399D01*
X82271392Y-97831640D01*
X82118777Y-97933614D01*
X81988988Y-98063403D01*
X81887014Y-98216018D01*
X81816773Y-98385595D01*
X81780965Y-98565617D01*
X81780965Y-98749165D01*
X81816773Y-98929187D01*
X81887014Y-99098764D01*
X81988988Y-99251379D01*
X82118777Y-99381168D01*
X82271392Y-99483142D01*
X82440969Y-99553383D01*
X82620991Y-99589191D01*
X82653964Y-99589191D01*
X82653965Y-100355773D01*
X77724281Y-105285457D01*
X77702957Y-105302957D01*
X77633127Y-105388046D01*
X77581239Y-105485123D01*
X77549286Y-105590457D01*
X77542733Y-105656990D01*
X77538497Y-105700000D01*
X77541200Y-105727442D01*
X77541201Y-116545266D01*
X77384424Y-116629065D01*
X77189245Y-116789245D01*
X77029065Y-116984424D01*
X76910041Y-117207103D01*
X76836747Y-117448723D01*
X76811998Y-117700000D01*
X72801908Y-117700000D01*
X72709330Y-117661653D01*
X72239511Y-117568200D01*
X71760489Y-117568200D01*
X71290670Y-117661653D01*
X70848111Y-117844967D01*
X70449818Y-118111098D01*
X70111098Y-118449818D01*
X69844967Y-118848111D01*
X69661653Y-119290670D01*
X69568200Y-119760489D01*
X69456800Y-119760489D01*
X69456800Y-91308226D01*
X83068200Y-91308226D01*
X83068200Y-91491774D01*
X83104008Y-91671796D01*
X83174249Y-91841373D01*
X83276223Y-91993988D01*
X83406012Y-92123777D01*
X83558627Y-92225751D01*
X83728204Y-92295992D01*
X83908226Y-92331800D01*
X84091774Y-92331800D01*
X84271796Y-92295992D01*
X84441373Y-92225751D01*
X84593988Y-92123777D01*
X84723777Y-91993988D01*
X84825751Y-91841373D01*
X84895992Y-91671796D01*
X84931800Y-91491774D01*
X84931800Y-91308226D01*
X84895992Y-91128204D01*
X84825751Y-90958627D01*
X84723777Y-90806012D01*
X84593988Y-90676223D01*
X84558800Y-90652711D01*
X84558800Y-88908226D01*
X88968200Y-88908226D01*
X88968200Y-89091774D01*
X89004008Y-89271796D01*
X89074249Y-89441373D01*
X89176223Y-89593988D01*
X89306012Y-89723777D01*
X89458627Y-89825751D01*
X89628204Y-89895992D01*
X89808226Y-89931800D01*
X89991774Y-89931800D01*
X90171796Y-89895992D01*
X90341373Y-89825751D01*
X90493988Y-89723777D01*
X90531965Y-89685800D01*
X93315933Y-89685800D01*
X99468200Y-95838068D01*
X99468200Y-95891774D01*
X99504008Y-96071796D01*
X99574249Y-96241373D01*
X99676223Y-96393988D01*
X99714200Y-96431965D01*
X99714200Y-96473427D01*
X99710883Y-96507106D01*
X99714200Y-96540785D01*
X99714200Y-96540795D01*
X99724123Y-96641546D01*
X99740640Y-96695992D01*
X99763339Y-96770820D01*
X99827020Y-96889959D01*
X99872686Y-96945603D01*
X99912721Y-96994386D01*
X99938886Y-97015859D01*
X101914200Y-98991173D01*
X101914201Y-100766312D01*
X101910883Y-100800000D01*
X101924124Y-100934440D01*
X101963339Y-101063714D01*
X102027020Y-101182853D01*
X102090842Y-101260620D01*
X102112721Y-101287280D01*
X102138886Y-101308753D01*
X113918200Y-113088068D01*
X113918200Y-113141774D01*
X113954008Y-113321796D01*
X114024249Y-113491373D01*
X114126223Y-113643988D01*
X114256012Y-113773777D01*
X114408627Y-113875751D01*
X114578204Y-113945992D01*
X114758226Y-113981800D01*
X114941774Y-113981800D01*
X115121796Y-113945992D01*
X115291373Y-113875751D01*
X115443988Y-113773777D01*
X115573777Y-113643988D01*
X115675751Y-113491373D01*
X115745992Y-113321796D01*
X115781800Y-113141774D01*
X115781800Y-112958226D01*
X115745992Y-112778204D01*
X115675751Y-112608627D01*
X115573777Y-112456012D01*
X115443988Y-112326223D01*
X115291373Y-112224249D01*
X115121796Y-112154008D01*
X114941774Y-112118200D01*
X114888068Y-112118200D01*
X103285800Y-100515933D01*
X103285800Y-99708226D01*
X103668200Y-99708226D01*
X103668200Y-99891774D01*
X103704008Y-100071796D01*
X103774249Y-100241373D01*
X103876223Y-100393988D01*
X104006012Y-100523777D01*
X104158627Y-100625751D01*
X104328204Y-100695992D01*
X104508226Y-100731800D01*
X104691774Y-100731800D01*
X104871796Y-100695992D01*
X105041373Y-100625751D01*
X105193988Y-100523777D01*
X105323777Y-100393988D01*
X105347289Y-100358800D01*
X106772558Y-100358800D01*
X106800000Y-100361503D01*
X106827442Y-100358800D01*
X106827444Y-100358800D01*
X106909544Y-100350714D01*
X107014878Y-100318761D01*
X107111954Y-100266873D01*
X107197043Y-100197043D01*
X107214543Y-100175720D01*
X107775724Y-99614539D01*
X107797043Y-99597043D01*
X107866873Y-99511954D01*
X107918761Y-99414878D01*
X107950714Y-99309544D01*
X107958800Y-99227444D01*
X107958800Y-99227443D01*
X107961503Y-99200001D01*
X107958800Y-99172559D01*
X107958800Y-97738568D01*
X111175725Y-94521644D01*
X111197043Y-94504149D01*
X111266873Y-94419060D01*
X111318761Y-94321984D01*
X111350714Y-94216650D01*
X111357457Y-94148186D01*
X111393988Y-94123777D01*
X111523777Y-93993988D01*
X111625751Y-93841373D01*
X111695992Y-93671796D01*
X111731800Y-93491774D01*
X111731800Y-93308226D01*
X111695992Y-93128204D01*
X111625751Y-92958627D01*
X111523777Y-92806012D01*
X111393988Y-92676223D01*
X111241373Y-92574249D01*
X111071796Y-92504008D01*
X110891774Y-92468200D01*
X110708226Y-92468200D01*
X110528204Y-92504008D01*
X110358627Y-92574249D01*
X110206012Y-92676223D01*
X110076223Y-92806012D01*
X109974249Y-92958627D01*
X109904008Y-93128204D01*
X109868200Y-93308226D01*
X109868200Y-93491774D01*
X109904008Y-93671796D01*
X109974249Y-93841373D01*
X110076223Y-93993988D01*
X110099539Y-94017304D01*
X107024281Y-97092563D01*
X107002957Y-97110063D01*
X106933127Y-97195152D01*
X106881239Y-97292229D01*
X106849286Y-97397563D01*
X106842329Y-97468200D01*
X106838497Y-97507106D01*
X106841200Y-97534548D01*
X106841201Y-98968536D01*
X106568538Y-99241200D01*
X106204076Y-99241200D01*
X106241373Y-99225751D01*
X106393988Y-99123777D01*
X106523777Y-98993988D01*
X106625751Y-98841373D01*
X106695992Y-98671796D01*
X106731800Y-98491774D01*
X106731800Y-98308226D01*
X106695992Y-98128204D01*
X106625751Y-97958627D01*
X106523777Y-97806012D01*
X106393988Y-97676223D01*
X106358800Y-97652711D01*
X106358800Y-90231462D01*
X106666719Y-89923544D01*
X106708226Y-89931800D01*
X106891774Y-89931800D01*
X107071796Y-89895992D01*
X107241373Y-89825751D01*
X107393988Y-89723777D01*
X107458735Y-89659030D01*
X107968710Y-89659030D01*
X107968710Y-89940970D01*
X108023714Y-90217492D01*
X108131608Y-90477970D01*
X108288245Y-90712394D01*
X108487606Y-90911755D01*
X108722030Y-91068392D01*
X108982508Y-91176286D01*
X109259030Y-91231290D01*
X109540970Y-91231290D01*
X109817492Y-91176286D01*
X110077970Y-91068392D01*
X110312394Y-90911755D01*
X110511755Y-90712394D01*
X110668392Y-90477970D01*
X110776286Y-90217492D01*
X110831290Y-89940970D01*
X110831290Y-89659030D01*
X110776286Y-89382508D01*
X110668392Y-89122030D01*
X110511755Y-88887606D01*
X110312394Y-88688245D01*
X110077970Y-88531608D01*
X109817492Y-88423714D01*
X109540970Y-88368710D01*
X109259030Y-88368710D01*
X108982508Y-88423714D01*
X108722030Y-88531608D01*
X108487606Y-88688245D01*
X108288245Y-88887606D01*
X108131608Y-89122030D01*
X108023714Y-89382508D01*
X107968710Y-89659030D01*
X107458735Y-89659030D01*
X107523777Y-89593988D01*
X107625751Y-89441373D01*
X107695992Y-89271796D01*
X107731800Y-89091774D01*
X107731800Y-88908226D01*
X107695992Y-88728204D01*
X107625751Y-88558627D01*
X107523777Y-88406012D01*
X107393988Y-88276223D01*
X107241373Y-88174249D01*
X107071796Y-88104008D01*
X106891774Y-88068200D01*
X106708226Y-88068200D01*
X106528204Y-88104008D01*
X106358627Y-88174249D01*
X106206012Y-88276223D01*
X106076223Y-88406012D01*
X105974249Y-88558627D01*
X105904008Y-88728204D01*
X105868200Y-88908226D01*
X105868200Y-89091774D01*
X105876456Y-89133281D01*
X105424281Y-89585457D01*
X105402957Y-89602957D01*
X105333127Y-89688046D01*
X105281239Y-89785123D01*
X105249286Y-89890457D01*
X105244311Y-89940970D01*
X105238497Y-90000000D01*
X105241200Y-90027442D01*
X105241201Y-97652711D01*
X105206012Y-97676223D01*
X105076223Y-97806012D01*
X104974249Y-97958627D01*
X104904008Y-98128204D01*
X104868200Y-98308226D01*
X104868200Y-98491774D01*
X104904008Y-98671796D01*
X104974249Y-98841373D01*
X105076223Y-98993988D01*
X105086912Y-99004677D01*
X105041373Y-98974249D01*
X104871796Y-98904008D01*
X104691774Y-98868200D01*
X104508226Y-98868200D01*
X104328204Y-98904008D01*
X104158627Y-98974249D01*
X104006012Y-99076223D01*
X103876223Y-99206012D01*
X103774249Y-99358627D01*
X103704008Y-99528204D01*
X103668200Y-99708226D01*
X103285800Y-99708226D01*
X103285800Y-98740792D01*
X103289118Y-98707106D01*
X103284597Y-98661202D01*
X103275877Y-98572666D01*
X103236662Y-98443392D01*
X103172981Y-98324253D01*
X103087279Y-98219826D01*
X103061114Y-98198353D01*
X101177038Y-96314277D01*
X101225751Y-96241373D01*
X101295992Y-96071796D01*
X101331800Y-95891774D01*
X101331800Y-95708226D01*
X101295992Y-95528204D01*
X101225751Y-95358627D01*
X101123777Y-95206012D01*
X100993988Y-95076223D01*
X100841373Y-94974249D01*
X100671796Y-94904008D01*
X100491774Y-94868200D01*
X100438068Y-94868200D01*
X94108758Y-88538891D01*
X94087280Y-88512720D01*
X93982853Y-88427019D01*
X93863714Y-88363338D01*
X93734440Y-88324123D01*
X93633689Y-88314200D01*
X93633679Y-88314200D01*
X93600000Y-88310883D01*
X93566321Y-88314200D01*
X90531965Y-88314200D01*
X90493988Y-88276223D01*
X90341373Y-88174249D01*
X90171796Y-88104008D01*
X89991774Y-88068200D01*
X89808226Y-88068200D01*
X89628204Y-88104008D01*
X89458627Y-88174249D01*
X89306012Y-88276223D01*
X89176223Y-88406012D01*
X89074249Y-88558627D01*
X89004008Y-88728204D01*
X88968200Y-88908226D01*
X84558800Y-88908226D01*
X84558800Y-88431462D01*
X85231463Y-87758800D01*
X105172558Y-87758800D01*
X105200000Y-87761503D01*
X105227442Y-87758800D01*
X105227444Y-87758800D01*
X105309544Y-87750714D01*
X105414878Y-87718761D01*
X105511954Y-87666873D01*
X105597043Y-87597043D01*
X105614543Y-87575719D01*
X110631464Y-82558799D01*
X113372559Y-82558799D01*
X113400001Y-82561502D01*
X113427443Y-82558799D01*
X113427445Y-82558799D01*
X113509545Y-82550713D01*
X113614879Y-82518760D01*
X113711955Y-82466872D01*
X113765135Y-82423229D01*
X113808226Y-82431800D01*
X113991774Y-82431800D01*
X114171796Y-82395992D01*
X114341373Y-82325751D01*
X114493988Y-82223777D01*
X114623777Y-82093988D01*
X114725751Y-81941373D01*
X114795992Y-81771796D01*
X114831800Y-81591774D01*
X114831800Y-81408226D01*
X114795992Y-81228204D01*
X114725751Y-81058627D01*
X114623777Y-80906012D01*
X114493988Y-80776223D01*
X114341373Y-80674249D01*
X114171796Y-80604008D01*
X113991774Y-80568200D01*
X113808226Y-80568200D01*
X113628204Y-80604008D01*
X113458627Y-80674249D01*
X113306012Y-80776223D01*
X113176223Y-80906012D01*
X113074249Y-81058627D01*
X113004008Y-81228204D01*
X112968200Y-81408226D01*
X112968200Y-81441199D01*
X110427443Y-81441199D01*
X110400001Y-81438496D01*
X110372559Y-81441199D01*
X110372557Y-81441199D01*
X110290457Y-81449285D01*
X110185123Y-81481238D01*
X110088047Y-81533126D01*
X110002958Y-81602956D01*
X109985463Y-81624274D01*
X104968538Y-86641200D01*
X85027444Y-86641200D01*
X85000000Y-86638497D01*
X84972556Y-86641200D01*
X84890456Y-86649286D01*
X84785122Y-86681239D01*
X84688046Y-86733127D01*
X84602957Y-86802957D01*
X84585462Y-86824275D01*
X83624276Y-87785462D01*
X83602958Y-87802957D01*
X83585463Y-87824275D01*
X83533128Y-87888046D01*
X83481239Y-87985123D01*
X83449287Y-88090456D01*
X83438497Y-88200000D01*
X83441201Y-88227452D01*
X83441200Y-90652711D01*
X83406012Y-90676223D01*
X83276223Y-90806012D01*
X83174249Y-90958627D01*
X83104008Y-91128204D01*
X83068200Y-91308226D01*
X69456800Y-91308226D01*
X69456800Y-84008226D01*
X83868200Y-84008226D01*
X83868200Y-84191774D01*
X83904008Y-84371796D01*
X83974249Y-84541373D01*
X84076223Y-84693988D01*
X84206012Y-84823777D01*
X84358627Y-84925751D01*
X84528204Y-84995992D01*
X84708226Y-85031800D01*
X84891774Y-85031800D01*
X85071796Y-84995992D01*
X85241373Y-84925751D01*
X85393988Y-84823777D01*
X85523777Y-84693988D01*
X85625751Y-84541373D01*
X85695992Y-84371796D01*
X85731800Y-84191774D01*
X85731800Y-84008226D01*
X85729503Y-83996680D01*
X86941984Y-82784200D01*
X98621586Y-82784200D01*
X98707417Y-82775746D01*
X98763281Y-82758800D01*
X99652711Y-82758800D01*
X99676223Y-82793988D01*
X99806012Y-82923777D01*
X99958627Y-83025751D01*
X100128204Y-83095992D01*
X100308226Y-83131800D01*
X100491774Y-83131800D01*
X100671796Y-83095992D01*
X100841373Y-83025751D01*
X100993988Y-82923777D01*
X101123777Y-82793988D01*
X101225751Y-82641373D01*
X101295992Y-82471796D01*
X101331800Y-82291774D01*
X101331800Y-82108226D01*
X101295992Y-81928204D01*
X101225751Y-81758627D01*
X101123777Y-81606012D01*
X100993988Y-81476223D01*
X100841373Y-81374249D01*
X100671796Y-81304008D01*
X100491774Y-81268200D01*
X100308226Y-81268200D01*
X100128204Y-81304008D01*
X99958627Y-81374249D01*
X99806012Y-81476223D01*
X99676223Y-81606012D01*
X99652711Y-81641200D01*
X98763281Y-81641200D01*
X98707417Y-81624254D01*
X98621586Y-81615800D01*
X86728692Y-81615800D01*
X86700000Y-81612974D01*
X86585477Y-81624254D01*
X86475355Y-81657659D01*
X86373866Y-81711906D01*
X86307196Y-81766620D01*
X86307194Y-81766622D01*
X86284910Y-81784910D01*
X86266622Y-81807194D01*
X84903320Y-83170497D01*
X84891774Y-83168200D01*
X84708226Y-83168200D01*
X84528204Y-83204008D01*
X84358627Y-83274249D01*
X84206012Y-83376223D01*
X84076223Y-83506012D01*
X83974249Y-83658627D01*
X83904008Y-83828204D01*
X83868200Y-84008226D01*
X69456800Y-84008226D01*
X69456800Y-80408226D01*
X90668200Y-80408226D01*
X90668200Y-80591774D01*
X90704008Y-80771796D01*
X90774249Y-80941373D01*
X90876223Y-81093988D01*
X91006012Y-81223777D01*
X91158627Y-81325751D01*
X91328204Y-81395992D01*
X91508226Y-81431800D01*
X91691774Y-81431800D01*
X91871796Y-81395992D01*
X92041373Y-81325751D01*
X92193988Y-81223777D01*
X92323777Y-81093988D01*
X92425751Y-80941373D01*
X92468694Y-80837699D01*
X105143036Y-80837699D01*
X105166548Y-80872887D01*
X105296337Y-81002676D01*
X105448952Y-81104650D01*
X105618529Y-81174891D01*
X105798551Y-81210699D01*
X105982099Y-81210699D01*
X106162121Y-81174891D01*
X106331698Y-81104650D01*
X106484313Y-81002676D01*
X106614102Y-80872887D01*
X106716076Y-80720272D01*
X106786317Y-80550695D01*
X106822125Y-80370673D01*
X106822125Y-80187125D01*
X106786317Y-80007103D01*
X106716076Y-79837526D01*
X106614102Y-79684911D01*
X106484313Y-79555122D01*
X106331698Y-79453148D01*
X106162121Y-79382907D01*
X105982099Y-79347099D01*
X105798551Y-79347099D01*
X105618529Y-79382907D01*
X105448952Y-79453148D01*
X105296337Y-79555122D01*
X105166548Y-79684911D01*
X105143036Y-79720099D01*
X92109992Y-79720099D01*
X92041373Y-79674249D01*
X91871796Y-79604008D01*
X91691774Y-79568200D01*
X91508226Y-79568200D01*
X91328204Y-79604008D01*
X91158627Y-79674249D01*
X91006012Y-79776223D01*
X90876223Y-79906012D01*
X90774249Y-80058627D01*
X90704008Y-80228204D01*
X90668200Y-80408226D01*
X69456800Y-80408226D01*
X69456800Y-76283635D01*
X92195970Y-76283635D01*
X92279049Y-76470732D01*
X92499869Y-76571300D01*
X92736067Y-76626856D01*
X92978565Y-76635264D01*
X93218043Y-76596202D01*
X93445300Y-76511170D01*
X93520951Y-76470732D01*
X93604030Y-76283635D01*
X92900000Y-75579605D01*
X92195970Y-76283635D01*
X69456800Y-76283635D01*
X69456800Y-66760489D01*
X69568200Y-66760489D01*
X69568200Y-67239511D01*
X69661653Y-67709330D01*
X69844967Y-68151889D01*
X70111098Y-68550182D01*
X70449818Y-68888902D01*
X70848111Y-69155033D01*
X71290670Y-69338347D01*
X71760489Y-69431800D01*
X72239511Y-69431800D01*
X72709330Y-69338347D01*
X73151889Y-69155033D01*
X73550182Y-68888902D01*
X73888902Y-68550182D01*
X74155033Y-68151889D01*
X74338347Y-67709330D01*
X74431800Y-67239511D01*
X74431800Y-66760489D01*
X74338347Y-66290670D01*
X74155033Y-65848111D01*
X73888902Y-65449818D01*
X73550182Y-65111098D01*
X73151889Y-64844967D01*
X72709330Y-64661653D01*
X72239511Y-64568200D01*
X71760489Y-64568200D01*
X71290670Y-64661653D01*
X70848111Y-64844967D01*
X70449818Y-65111098D01*
X70111098Y-65449818D01*
X69844967Y-65848111D01*
X69661653Y-66290670D01*
X69568200Y-66760489D01*
X69456800Y-66760489D01*
X69456800Y-65022343D01*
X69488339Y-64700683D01*
X69575265Y-64412768D01*
X69714982Y-64150000D01*
X75515000Y-64150000D01*
X75515000Y-72900000D01*
X75527201Y-73023882D01*
X75563336Y-73143004D01*
X75622017Y-73252787D01*
X75700987Y-73349013D01*
X75797213Y-73427983D01*
X75906996Y-73486664D01*
X76026118Y-73522799D01*
X76150000Y-73535000D01*
X81177254Y-73535000D01*
X82253319Y-74395852D01*
X82406996Y-74486664D01*
X82526118Y-74522799D01*
X82650000Y-74535000D01*
X92015412Y-74535000D01*
X91935402Y-74615010D01*
X92016363Y-74695971D01*
X91829268Y-74779049D01*
X91728700Y-74999869D01*
X91673144Y-75236067D01*
X91664736Y-75478565D01*
X91703798Y-75718043D01*
X91788830Y-75945300D01*
X91829268Y-76020951D01*
X92016365Y-76104030D01*
X92720395Y-75400000D01*
X92706253Y-75385858D01*
X92885858Y-75206253D01*
X92900000Y-75220395D01*
X92914143Y-75206253D01*
X93093748Y-75385858D01*
X93079605Y-75400000D01*
X93783635Y-76104030D01*
X93970732Y-76020951D01*
X94071300Y-75800131D01*
X94126856Y-75563933D01*
X94135264Y-75321435D01*
X94096202Y-75081957D01*
X94011170Y-74854700D01*
X93970732Y-74779049D01*
X93783637Y-74695971D01*
X93864598Y-74615010D01*
X93784588Y-74535000D01*
X104650000Y-74535000D01*
X104773882Y-74522799D01*
X104893004Y-74486664D01*
X105002787Y-74427983D01*
X105099013Y-74349013D01*
X105177983Y-74252787D01*
X105236664Y-74143004D01*
X105272799Y-74023882D01*
X105285000Y-73900000D01*
X105285000Y-70135822D01*
X112717760Y-70135822D01*
X112717760Y-70664178D01*
X112820837Y-71182380D01*
X113023030Y-71670517D01*
X113316568Y-72109828D01*
X113690172Y-72483432D01*
X114129483Y-72776970D01*
X114617620Y-72979163D01*
X115135822Y-73082240D01*
X115664178Y-73082240D01*
X116182380Y-72979163D01*
X116670517Y-72776970D01*
X117109828Y-72483432D01*
X117483432Y-72109828D01*
X117776970Y-71670517D01*
X117979163Y-71182380D01*
X118082240Y-70664178D01*
X118082240Y-70135822D01*
X117979163Y-69617620D01*
X117776970Y-69129483D01*
X117483432Y-68690172D01*
X117109828Y-68316568D01*
X116670517Y-68023030D01*
X116182380Y-67820837D01*
X115664178Y-67717760D01*
X115135822Y-67717760D01*
X114617620Y-67820837D01*
X114129483Y-68023030D01*
X113690172Y-68316568D01*
X113316568Y-68690172D01*
X113023030Y-69129483D01*
X112820837Y-69617620D01*
X112717760Y-70135822D01*
X105285000Y-70135822D01*
X105285000Y-66760489D01*
X119568200Y-66760489D01*
X119568200Y-67239511D01*
X119661653Y-67709330D01*
X119844967Y-68151889D01*
X120111098Y-68550182D01*
X120449818Y-68888902D01*
X120848111Y-69155033D01*
X121290670Y-69338347D01*
X121760489Y-69431800D01*
X122239511Y-69431800D01*
X122709330Y-69338347D01*
X123151889Y-69155033D01*
X123550182Y-68888902D01*
X123888902Y-68550182D01*
X124155033Y-68151889D01*
X124338347Y-67709330D01*
X124431800Y-67239511D01*
X124431800Y-66760489D01*
X124338347Y-66290670D01*
X124155033Y-65848111D01*
X123888902Y-65449818D01*
X123550182Y-65111098D01*
X123151889Y-64844967D01*
X122709330Y-64661653D01*
X122239511Y-64568200D01*
X121760489Y-64568200D01*
X121290670Y-64661653D01*
X120848111Y-64844967D01*
X120449818Y-65111098D01*
X120111098Y-65449818D01*
X119844967Y-65848111D01*
X119661653Y-66290670D01*
X119568200Y-66760489D01*
X105285000Y-66760489D01*
X105285000Y-64150000D01*
X105272799Y-64026118D01*
X105236664Y-63906996D01*
X105177983Y-63797213D01*
X105099013Y-63700987D01*
X105002787Y-63622017D01*
X104893004Y-63563336D01*
X104773882Y-63527201D01*
X104650000Y-63515000D01*
X76150000Y-63515000D01*
X76026118Y-63527201D01*
X75906996Y-63563336D01*
X75797213Y-63622017D01*
X75700987Y-63700987D01*
X75622017Y-63797213D01*
X75563336Y-63906996D01*
X75527201Y-64026118D01*
X75515000Y-64150000D01*
X69714982Y-64150000D01*
X69716463Y-64147216D01*
X69906543Y-63914154D01*
X70138277Y-63722446D01*
X70402838Y-63579399D01*
X70690133Y-63490467D01*
X71010447Y-63456800D01*
X122977657Y-63456800D01*
X123299317Y-63488339D01*
G36*
X89536747Y-117951277D02*
G01*
X89610041Y-118192897D01*
X89729065Y-118415576D01*
X89889245Y-118610755D01*
X90084424Y-118770935D01*
X90307103Y-118889959D01*
X90548723Y-118963253D01*
X90737031Y-118981800D01*
X90862969Y-118981800D01*
X91051277Y-118963253D01*
X91292897Y-118889959D01*
X91496899Y-118780918D01*
X91496899Y-118914418D01*
X90807195Y-119604122D01*
X90784911Y-119622410D01*
X90766623Y-119644694D01*
X90766620Y-119644697D01*
X90743345Y-119673058D01*
X90716031Y-119706341D01*
X90611549Y-119716632D01*
X90484429Y-119755193D01*
X90367274Y-119817814D01*
X90264587Y-119902087D01*
X90180314Y-120004774D01*
X90117693Y-120121929D01*
X90079132Y-120249049D01*
X90066111Y-120381250D01*
X90066111Y-120539928D01*
X89676981Y-120150798D01*
X89658689Y-120128509D01*
X89569733Y-120055505D01*
X89468244Y-120001258D01*
X89358122Y-119967853D01*
X89272291Y-119959399D01*
X89272283Y-119959399D01*
X89243599Y-119956574D01*
X89214915Y-119959399D01*
X87005082Y-119959399D01*
X86976400Y-119956574D01*
X86947718Y-119959399D01*
X86947709Y-119959399D01*
X86861878Y-119967853D01*
X86751756Y-120001258D01*
X86650267Y-120055505D01*
X86561311Y-120128509D01*
X86543019Y-120150798D01*
X86177201Y-120516616D01*
X86177195Y-120516621D01*
X86113827Y-120579989D01*
X85971277Y-120536747D01*
X85782969Y-120518200D01*
X85657031Y-120518200D01*
X85468723Y-120536747D01*
X85227103Y-120610041D01*
X85004424Y-120729065D01*
X84809245Y-120889245D01*
X84649065Y-121084424D01*
X84530041Y-121307103D01*
X84456747Y-121548723D01*
X84450000Y-121617225D01*
X84443253Y-121548723D01*
X84369959Y-121307103D01*
X84250935Y-121084424D01*
X84090755Y-120889245D01*
X83895576Y-120729065D01*
X83672897Y-120610041D01*
X83431277Y-120536747D01*
X83242969Y-120518200D01*
X83117031Y-120518200D01*
X82928723Y-120536747D01*
X82786172Y-120579989D01*
X82507799Y-120301616D01*
X82507799Y-118794119D01*
X82687103Y-118889959D01*
X82928723Y-118963253D01*
X83117031Y-118981800D01*
X83242969Y-118981800D01*
X83431277Y-118963253D01*
X83672897Y-118889959D01*
X83895576Y-118770935D01*
X84090755Y-118610755D01*
X84250935Y-118415576D01*
X84369959Y-118192897D01*
X84443253Y-117951277D01*
X84450000Y-117882775D01*
X84456747Y-117951277D01*
X84530041Y-118192897D01*
X84649065Y-118415576D01*
X84809245Y-118610755D01*
X85004424Y-118770935D01*
X85227103Y-118889959D01*
X85468723Y-118963253D01*
X85657031Y-118981800D01*
X85782969Y-118981800D01*
X85971277Y-118963253D01*
X86212897Y-118889959D01*
X86435576Y-118770935D01*
X86630755Y-118610755D01*
X86790935Y-118415576D01*
X86909959Y-118192897D01*
X86983253Y-117951277D01*
X86990000Y-117882775D01*
X86996747Y-117951277D01*
X87070041Y-118192897D01*
X87189065Y-118415576D01*
X87349245Y-118610755D01*
X87544424Y-118770935D01*
X87767103Y-118889959D01*
X88008723Y-118963253D01*
X88197031Y-118981800D01*
X88322969Y-118981800D01*
X88511277Y-118963253D01*
X88752897Y-118889959D01*
X88975576Y-118770935D01*
X89170755Y-118610755D01*
X89330935Y-118415576D01*
X89449959Y-118192897D01*
X89523253Y-117951277D01*
X89530000Y-117882775D01*
X89536747Y-117951277D01*
X89536747Y-117951277D01*
G37*
X89536747Y-117951277D02*
X89610041Y-118192897D01*
X89729065Y-118415576D01*
X89889245Y-118610755D01*
X90084424Y-118770935D01*
X90307103Y-118889959D01*
X90548723Y-118963253D01*
X90737031Y-118981800D01*
X90862969Y-118981800D01*
X91051277Y-118963253D01*
X91292897Y-118889959D01*
X91496899Y-118780918D01*
X91496899Y-118914418D01*
X90807195Y-119604122D01*
X90784911Y-119622410D01*
X90766623Y-119644694D01*
X90766620Y-119644697D01*
X90743345Y-119673058D01*
X90716031Y-119706341D01*
X90611549Y-119716632D01*
X90484429Y-119755193D01*
X90367274Y-119817814D01*
X90264587Y-119902087D01*
X90180314Y-120004774D01*
X90117693Y-120121929D01*
X90079132Y-120249049D01*
X90066111Y-120381250D01*
X90066111Y-120539928D01*
X89676981Y-120150798D01*
X89658689Y-120128509D01*
X89569733Y-120055505D01*
X89468244Y-120001258D01*
X89358122Y-119967853D01*
X89272291Y-119959399D01*
X89272283Y-119959399D01*
X89243599Y-119956574D01*
X89214915Y-119959399D01*
X87005082Y-119959399D01*
X86976400Y-119956574D01*
X86947718Y-119959399D01*
X86947709Y-119959399D01*
X86861878Y-119967853D01*
X86751756Y-120001258D01*
X86650267Y-120055505D01*
X86561311Y-120128509D01*
X86543019Y-120150798D01*
X86177201Y-120516616D01*
X86177195Y-120516621D01*
X86113827Y-120579989D01*
X85971277Y-120536747D01*
X85782969Y-120518200D01*
X85657031Y-120518200D01*
X85468723Y-120536747D01*
X85227103Y-120610041D01*
X85004424Y-120729065D01*
X84809245Y-120889245D01*
X84649065Y-121084424D01*
X84530041Y-121307103D01*
X84456747Y-121548723D01*
X84450000Y-121617225D01*
X84443253Y-121548723D01*
X84369959Y-121307103D01*
X84250935Y-121084424D01*
X84090755Y-120889245D01*
X83895576Y-120729065D01*
X83672897Y-120610041D01*
X83431277Y-120536747D01*
X83242969Y-120518200D01*
X83117031Y-120518200D01*
X82928723Y-120536747D01*
X82786172Y-120579989D01*
X82507799Y-120301616D01*
X82507799Y-118794119D01*
X82687103Y-118889959D01*
X82928723Y-118963253D01*
X83117031Y-118981800D01*
X83242969Y-118981800D01*
X83431277Y-118963253D01*
X83672897Y-118889959D01*
X83895576Y-118770935D01*
X84090755Y-118610755D01*
X84250935Y-118415576D01*
X84369959Y-118192897D01*
X84443253Y-117951277D01*
X84450000Y-117882775D01*
X84456747Y-117951277D01*
X84530041Y-118192897D01*
X84649065Y-118415576D01*
X84809245Y-118610755D01*
X85004424Y-118770935D01*
X85227103Y-118889959D01*
X85468723Y-118963253D01*
X85657031Y-118981800D01*
X85782969Y-118981800D01*
X85971277Y-118963253D01*
X86212897Y-118889959D01*
X86435576Y-118770935D01*
X86630755Y-118610755D01*
X86790935Y-118415576D01*
X86909959Y-118192897D01*
X86983253Y-117951277D01*
X86990000Y-117882775D01*
X86996747Y-117951277D01*
X87070041Y-118192897D01*
X87189065Y-118415576D01*
X87349245Y-118610755D01*
X87544424Y-118770935D01*
X87767103Y-118889959D01*
X88008723Y-118963253D01*
X88197031Y-118981800D01*
X88322969Y-118981800D01*
X88511277Y-118963253D01*
X88752897Y-118889959D01*
X88975576Y-118770935D01*
X89170755Y-118610755D01*
X89330935Y-118415576D01*
X89449959Y-118192897D01*
X89523253Y-117951277D01*
X89530000Y-117882775D01*
X89536747Y-117951277D01*
G36*
X97835801Y-115181428D02*
G01*
X97835800Y-116558843D01*
X97704424Y-116629065D01*
X97509245Y-116789245D01*
X97349065Y-116984424D01*
X97230041Y-117207103D01*
X97156747Y-117448723D01*
X97150000Y-117517225D01*
X97143253Y-117448723D01*
X97069959Y-117207103D01*
X96950935Y-116984424D01*
X96790755Y-116789245D01*
X96595576Y-116629065D01*
X96464200Y-116558843D01*
X96464200Y-113809827D01*
X97835801Y-115181428D01*
X97835801Y-115181428D01*
G37*
X97835801Y-115181428D02*
X97835800Y-116558843D01*
X97704424Y-116629065D01*
X97509245Y-116789245D01*
X97349065Y-116984424D01*
X97230041Y-117207103D01*
X97156747Y-117448723D01*
X97150000Y-117517225D01*
X97143253Y-117448723D01*
X97069959Y-117207103D01*
X96950935Y-116984424D01*
X96790755Y-116789245D01*
X96595576Y-116629065D01*
X96464200Y-116558843D01*
X96464200Y-113809827D01*
X97835801Y-115181428D01*
G36*
X83834614Y-100295992D02*
G01*
X84014636Y-100331800D01*
X84198184Y-100331800D01*
X84209730Y-100329503D01*
X85974939Y-102094712D01*
X85928204Y-102104008D01*
X85758627Y-102174249D01*
X85606012Y-102276223D01*
X85546213Y-102336022D01*
X85507417Y-102324254D01*
X85421586Y-102315800D01*
X85421578Y-102315800D01*
X85392894Y-102312975D01*
X85364210Y-102315800D01*
X83228681Y-102315800D01*
X83199999Y-102312975D01*
X83171317Y-102315800D01*
X83171308Y-102315800D01*
X83085477Y-102324254D01*
X82975355Y-102357659D01*
X82873866Y-102411906D01*
X82784910Y-102484910D01*
X82766618Y-102507199D01*
X81007199Y-104266618D01*
X80984910Y-104284910D01*
X80911906Y-104373867D01*
X80860186Y-104470628D01*
X80857659Y-104475356D01*
X80824254Y-104585477D01*
X80823794Y-104590145D01*
X80815800Y-104671309D01*
X80815800Y-104671316D01*
X80812975Y-104700000D01*
X80815800Y-104728684D01*
X80815801Y-107971306D01*
X80812975Y-108000000D01*
X80824254Y-108114523D01*
X80857659Y-108224644D01*
X80872256Y-108251952D01*
X80911907Y-108326134D01*
X80933399Y-108352322D01*
X80966620Y-108392803D01*
X80966623Y-108392806D01*
X80984911Y-108415090D01*
X81007195Y-108433378D01*
X83053001Y-110479185D01*
X82928204Y-110504008D01*
X82758627Y-110574249D01*
X82606012Y-110676223D01*
X82476223Y-110806012D01*
X82374249Y-110958627D01*
X82304008Y-111128204D01*
X82268200Y-111308226D01*
X82268200Y-111491774D01*
X82270497Y-111503320D01*
X80247199Y-113526618D01*
X80224910Y-113544910D01*
X80151906Y-113633867D01*
X80097659Y-113735356D01*
X80064254Y-113845478D01*
X80055800Y-113931309D01*
X80055800Y-113931316D01*
X80052975Y-113960000D01*
X80055800Y-113988684D01*
X80055801Y-116469218D01*
X80055800Y-116469228D01*
X80055800Y-116558843D01*
X79924424Y-116629065D01*
X79729245Y-116789245D01*
X79569065Y-116984424D01*
X79450041Y-117207103D01*
X79376747Y-117448723D01*
X79370000Y-117517225D01*
X79363253Y-117448723D01*
X79289959Y-117207103D01*
X79170935Y-116984424D01*
X79010755Y-116789245D01*
X78815576Y-116629065D01*
X78658800Y-116545267D01*
X78658800Y-105931462D01*
X83588483Y-101001779D01*
X83609807Y-100984279D01*
X83679637Y-100899190D01*
X83731525Y-100802114D01*
X83763478Y-100696780D01*
X83771564Y-100614680D01*
X83771564Y-100614679D01*
X83774267Y-100587237D01*
X83771564Y-100559795D01*
X83771564Y-100269876D01*
X83834614Y-100295992D01*
X83834614Y-100295992D01*
G37*
X83834614Y-100295992D02*
X84014636Y-100331800D01*
X84198184Y-100331800D01*
X84209730Y-100329503D01*
X85974939Y-102094712D01*
X85928204Y-102104008D01*
X85758627Y-102174249D01*
X85606012Y-102276223D01*
X85546213Y-102336022D01*
X85507417Y-102324254D01*
X85421586Y-102315800D01*
X85421578Y-102315800D01*
X85392894Y-102312975D01*
X85364210Y-102315800D01*
X83228681Y-102315800D01*
X83199999Y-102312975D01*
X83171317Y-102315800D01*
X83171308Y-102315800D01*
X83085477Y-102324254D01*
X82975355Y-102357659D01*
X82873866Y-102411906D01*
X82784910Y-102484910D01*
X82766618Y-102507199D01*
X81007199Y-104266618D01*
X80984910Y-104284910D01*
X80911906Y-104373867D01*
X80860186Y-104470628D01*
X80857659Y-104475356D01*
X80824254Y-104585477D01*
X80823794Y-104590145D01*
X80815800Y-104671309D01*
X80815800Y-104671316D01*
X80812975Y-104700000D01*
X80815800Y-104728684D01*
X80815801Y-107971306D01*
X80812975Y-108000000D01*
X80824254Y-108114523D01*
X80857659Y-108224644D01*
X80872256Y-108251952D01*
X80911907Y-108326134D01*
X80933399Y-108352322D01*
X80966620Y-108392803D01*
X80966623Y-108392806D01*
X80984911Y-108415090D01*
X81007195Y-108433378D01*
X83053001Y-110479185D01*
X82928204Y-110504008D01*
X82758627Y-110574249D01*
X82606012Y-110676223D01*
X82476223Y-110806012D01*
X82374249Y-110958627D01*
X82304008Y-111128204D01*
X82268200Y-111308226D01*
X82268200Y-111491774D01*
X82270497Y-111503320D01*
X80247199Y-113526618D01*
X80224910Y-113544910D01*
X80151906Y-113633867D01*
X80097659Y-113735356D01*
X80064254Y-113845478D01*
X80055800Y-113931309D01*
X80055800Y-113931316D01*
X80052975Y-113960000D01*
X80055800Y-113988684D01*
X80055801Y-116469218D01*
X80055800Y-116469228D01*
X80055800Y-116558843D01*
X79924424Y-116629065D01*
X79729245Y-116789245D01*
X79569065Y-116984424D01*
X79450041Y-117207103D01*
X79376747Y-117448723D01*
X79370000Y-117517225D01*
X79363253Y-117448723D01*
X79289959Y-117207103D01*
X79170935Y-116984424D01*
X79010755Y-116789245D01*
X78815576Y-116629065D01*
X78658800Y-116545267D01*
X78658800Y-105931462D01*
X83588483Y-101001779D01*
X83609807Y-100984279D01*
X83679637Y-100899190D01*
X83731525Y-100802114D01*
X83763478Y-100696780D01*
X83771564Y-100614680D01*
X83771564Y-100614679D01*
X83774267Y-100587237D01*
X83771564Y-100559795D01*
X83771564Y-100269876D01*
X83834614Y-100295992D01*
G36*
X95295801Y-113431707D02*
G01*
X95295800Y-116558843D01*
X95164424Y-116629065D01*
X94969245Y-116789245D01*
X94809065Y-116984424D01*
X94690041Y-117207103D01*
X94616747Y-117448723D01*
X94610000Y-117517225D01*
X94603253Y-117448723D01*
X94529959Y-117207103D01*
X94410935Y-116984424D01*
X94250755Y-116789245D01*
X94055576Y-116629065D01*
X93924200Y-116558843D01*
X93924200Y-112060106D01*
X95295801Y-113431707D01*
X95295801Y-113431707D01*
G37*
X95295801Y-113431707D02*
X95295800Y-116558843D01*
X95164424Y-116629065D01*
X94969245Y-116789245D01*
X94809065Y-116984424D01*
X94690041Y-117207103D01*
X94616747Y-117448723D01*
X94610000Y-117517225D01*
X94603253Y-117448723D01*
X94529959Y-117207103D01*
X94410935Y-116984424D01*
X94250755Y-116789245D01*
X94055576Y-116629065D01*
X93924200Y-116558843D01*
X93924200Y-112060106D01*
X95295801Y-113431707D01*
G36*
X102915801Y-115441985D02*
G01*
X102915800Y-116558843D01*
X102784424Y-116629065D01*
X102589245Y-116789245D01*
X102429065Y-116984424D01*
X102310041Y-117207103D01*
X102236747Y-117448723D01*
X102230000Y-117517225D01*
X102223253Y-117448723D01*
X102149959Y-117207103D01*
X102030935Y-116984424D01*
X101870755Y-116789245D01*
X101675576Y-116629065D01*
X101452897Y-116510041D01*
X101211277Y-116436747D01*
X101022969Y-116418200D01*
X100897031Y-116418200D01*
X100708723Y-116436747D01*
X100694201Y-116441152D01*
X100694201Y-115867859D01*
X100697027Y-115839167D01*
X100685747Y-115724644D01*
X100652342Y-115614522D01*
X100646872Y-115604289D01*
X100598095Y-115513033D01*
X100525091Y-115424077D01*
X100502807Y-115405789D01*
X95778818Y-110681800D01*
X95816397Y-110681800D01*
X96044718Y-110636384D01*
X96259792Y-110547297D01*
X96453353Y-110417964D01*
X96617964Y-110253353D01*
X96747297Y-110059792D01*
X96836384Y-109844718D01*
X96881800Y-109616397D01*
X96881800Y-109407983D01*
X102915801Y-115441985D01*
X102915801Y-115441985D01*
G37*
X102915801Y-115441985D02*
X102915800Y-116558843D01*
X102784424Y-116629065D01*
X102589245Y-116789245D01*
X102429065Y-116984424D01*
X102310041Y-117207103D01*
X102236747Y-117448723D01*
X102230000Y-117517225D01*
X102223253Y-117448723D01*
X102149959Y-117207103D01*
X102030935Y-116984424D01*
X101870755Y-116789245D01*
X101675576Y-116629065D01*
X101452897Y-116510041D01*
X101211277Y-116436747D01*
X101022969Y-116418200D01*
X100897031Y-116418200D01*
X100708723Y-116436747D01*
X100694201Y-116441152D01*
X100694201Y-115867859D01*
X100697027Y-115839167D01*
X100685747Y-115724644D01*
X100652342Y-115614522D01*
X100646872Y-115604289D01*
X100598095Y-115513033D01*
X100525091Y-115424077D01*
X100502807Y-115405789D01*
X95778818Y-110681800D01*
X95816397Y-110681800D01*
X96044718Y-110636384D01*
X96259792Y-110547297D01*
X96453353Y-110417964D01*
X96617964Y-110253353D01*
X96747297Y-110059792D01*
X96836384Y-109844718D01*
X96881800Y-109616397D01*
X96881800Y-109407983D01*
X102915801Y-115441985D01*
G36*
X115255925Y-116427308D02*
G01*
X115183958Y-116449139D01*
X115108944Y-116489234D01*
X115043194Y-116543194D01*
X114989234Y-116608944D01*
X114949139Y-116683958D01*
X114924448Y-116765352D01*
X114916111Y-116850000D01*
X114916111Y-117425179D01*
X114849959Y-117207103D01*
X114730935Y-116984424D01*
X114570755Y-116789245D01*
X114375576Y-116629065D01*
X114152897Y-116510041D01*
X113911277Y-116436747D01*
X113722969Y-116418200D01*
X113597031Y-116418200D01*
X113408723Y-116436747D01*
X113266172Y-116479989D01*
X98434572Y-101648389D01*
X98416280Y-101626100D01*
X98327324Y-101553096D01*
X98225835Y-101498849D01*
X98115713Y-101465444D01*
X98029882Y-101456990D01*
X98029874Y-101456990D01*
X98001190Y-101454165D01*
X97972506Y-101456990D01*
X90955166Y-101456990D01*
X91057582Y-101354574D01*
X91064122Y-101344786D01*
X100173403Y-101344786D01*
X115255925Y-116427308D01*
X115255925Y-116427308D01*
G37*
X115255925Y-116427308D02*
X115183958Y-116449139D01*
X115108944Y-116489234D01*
X115043194Y-116543194D01*
X114989234Y-116608944D01*
X114949139Y-116683958D01*
X114924448Y-116765352D01*
X114916111Y-116850000D01*
X114916111Y-117425179D01*
X114849959Y-117207103D01*
X114730935Y-116984424D01*
X114570755Y-116789245D01*
X114375576Y-116629065D01*
X114152897Y-116510041D01*
X113911277Y-116436747D01*
X113722969Y-116418200D01*
X113597031Y-116418200D01*
X113408723Y-116436747D01*
X113266172Y-116479989D01*
X98434572Y-101648389D01*
X98416280Y-101626100D01*
X98327324Y-101553096D01*
X98225835Y-101498849D01*
X98115713Y-101465444D01*
X98029882Y-101456990D01*
X98029874Y-101456990D01*
X98001190Y-101454165D01*
X97972506Y-101456990D01*
X90955166Y-101456990D01*
X91057582Y-101354574D01*
X91064122Y-101344786D01*
X100173403Y-101344786D01*
X115255925Y-116427308D01*
G36*
X89642017Y-108568200D02*
G01*
X89608226Y-108568200D01*
X89428204Y-108604008D01*
X89258627Y-108674249D01*
X89106012Y-108776223D01*
X88976223Y-108906012D01*
X88874249Y-109058627D01*
X88804008Y-109228204D01*
X88768200Y-109408226D01*
X88768200Y-109591774D01*
X88804008Y-109771796D01*
X88874249Y-109941373D01*
X88976223Y-110093988D01*
X89106012Y-110223777D01*
X89258627Y-110325751D01*
X89428204Y-110395992D01*
X89608226Y-110431800D01*
X89791774Y-110431800D01*
X89803320Y-110429503D01*
X91496899Y-112123082D01*
X91496900Y-116247593D01*
X91505354Y-116333424D01*
X91522300Y-116389287D01*
X91522300Y-116634583D01*
X91515576Y-116629065D01*
X91292897Y-116510041D01*
X91051277Y-116436747D01*
X90862969Y-116418200D01*
X90737031Y-116418200D01*
X90548723Y-116436747D01*
X90406172Y-116479989D01*
X88590602Y-114664419D01*
X88590602Y-107693617D01*
X88593428Y-107664925D01*
X88582148Y-107550402D01*
X88563828Y-107490011D01*
X89642017Y-108568200D01*
X89642017Y-108568200D01*
G37*
X89642017Y-108568200D02*
X89608226Y-108568200D01*
X89428204Y-108604008D01*
X89258627Y-108674249D01*
X89106012Y-108776223D01*
X88976223Y-108906012D01*
X88874249Y-109058627D01*
X88804008Y-109228204D01*
X88768200Y-109408226D01*
X88768200Y-109591774D01*
X88804008Y-109771796D01*
X88874249Y-109941373D01*
X88976223Y-110093988D01*
X89106012Y-110223777D01*
X89258627Y-110325751D01*
X89428204Y-110395992D01*
X89608226Y-110431800D01*
X89791774Y-110431800D01*
X89803320Y-110429503D01*
X91496899Y-112123082D01*
X91496900Y-116247593D01*
X91505354Y-116333424D01*
X91522300Y-116389287D01*
X91522300Y-116634583D01*
X91515576Y-116629065D01*
X91292897Y-116510041D01*
X91051277Y-116436747D01*
X90862969Y-116418200D01*
X90737031Y-116418200D01*
X90548723Y-116436747D01*
X90406172Y-116479989D01*
X88590602Y-114664419D01*
X88590602Y-107693617D01*
X88593428Y-107664925D01*
X88582148Y-107550402D01*
X88563828Y-107490011D01*
X89642017Y-108568200D01*
G36*
X111679410Y-116545593D02*
G01*
X111612897Y-116510041D01*
X111371277Y-116436747D01*
X111182969Y-116418200D01*
X111057031Y-116418200D01*
X110868723Y-116436747D01*
X110726172Y-116479989D01*
X110703383Y-116457200D01*
X110685091Y-116434911D01*
X110596135Y-116361907D01*
X110494646Y-116307660D01*
X110384524Y-116274255D01*
X110298693Y-116265801D01*
X110298685Y-116265801D01*
X110270001Y-116262976D01*
X110241317Y-116265801D01*
X109791984Y-116265801D01*
X98484200Y-104958017D01*
X98484200Y-103828684D01*
X98487025Y-103800000D01*
X98484200Y-103771316D01*
X98484200Y-103771308D01*
X98475746Y-103685477D01*
X98442341Y-103575355D01*
X98388094Y-103473866D01*
X98348177Y-103425227D01*
X98333380Y-103407196D01*
X98333378Y-103407194D01*
X98315090Y-103384910D01*
X98292806Y-103366622D01*
X97551573Y-102625390D01*
X97759207Y-102625390D01*
X111679410Y-116545593D01*
X111679410Y-116545593D01*
G37*
X111679410Y-116545593D02*
X111612897Y-116510041D01*
X111371277Y-116436747D01*
X111182969Y-116418200D01*
X111057031Y-116418200D01*
X110868723Y-116436747D01*
X110726172Y-116479989D01*
X110703383Y-116457200D01*
X110685091Y-116434911D01*
X110596135Y-116361907D01*
X110494646Y-116307660D01*
X110384524Y-116274255D01*
X110298693Y-116265801D01*
X110298685Y-116265801D01*
X110270001Y-116262976D01*
X110241317Y-116265801D01*
X109791984Y-116265801D01*
X98484200Y-104958017D01*
X98484200Y-103828684D01*
X98487025Y-103800000D01*
X98484200Y-103771316D01*
X98484200Y-103771308D01*
X98475746Y-103685477D01*
X98442341Y-103575355D01*
X98388094Y-103473866D01*
X98348177Y-103425227D01*
X98333380Y-103407196D01*
X98333378Y-103407194D01*
X98315090Y-103384910D01*
X98292806Y-103366622D01*
X97551573Y-102625390D01*
X97759207Y-102625390D01*
X111679410Y-116545593D01*
G36*
X97315801Y-104041985D02*
G01*
X97315800Y-105171316D01*
X97312975Y-105200000D01*
X97315800Y-105228684D01*
X97315800Y-105228691D01*
X97319602Y-105267288D01*
X97324254Y-105314523D01*
X97336515Y-105354941D01*
X97357659Y-105424644D01*
X97411906Y-105526133D01*
X97484910Y-105615090D01*
X97507199Y-105633382D01*
X108314790Y-116440973D01*
X108186173Y-116479989D01*
X97089782Y-105383599D01*
X97071490Y-105361310D01*
X96982534Y-105288306D01*
X96881045Y-105234059D01*
X96770923Y-105200654D01*
X96735677Y-105197182D01*
X96747297Y-105179792D01*
X96836384Y-104964718D01*
X96881800Y-104736397D01*
X96881800Y-104503603D01*
X96836384Y-104275282D01*
X96747297Y-104060208D01*
X96617964Y-103866647D01*
X96453353Y-103702036D01*
X96259792Y-103572703D01*
X96044718Y-103483616D01*
X95816397Y-103438200D01*
X95583603Y-103438200D01*
X95355282Y-103483616D01*
X95140208Y-103572703D01*
X94946647Y-103702036D01*
X94782036Y-103866647D01*
X94652703Y-104060208D01*
X94563616Y-104275282D01*
X94518200Y-104503603D01*
X94518200Y-104736397D01*
X94563616Y-104964718D01*
X94652703Y-105179792D01*
X94660994Y-105192200D01*
X92660052Y-105192200D01*
X90752051Y-103284200D01*
X96558017Y-103284200D01*
X97315801Y-104041985D01*
X97315801Y-104041985D01*
G37*
X97315801Y-104041985D02*
X97315800Y-105171316D01*
X97312975Y-105200000D01*
X97315800Y-105228684D01*
X97315800Y-105228691D01*
X97319602Y-105267288D01*
X97324254Y-105314523D01*
X97336515Y-105354941D01*
X97357659Y-105424644D01*
X97411906Y-105526133D01*
X97484910Y-105615090D01*
X97507199Y-105633382D01*
X108314790Y-116440973D01*
X108186173Y-116479989D01*
X97089782Y-105383599D01*
X97071490Y-105361310D01*
X96982534Y-105288306D01*
X96881045Y-105234059D01*
X96770923Y-105200654D01*
X96735677Y-105197182D01*
X96747297Y-105179792D01*
X96836384Y-104964718D01*
X96881800Y-104736397D01*
X96881800Y-104503603D01*
X96836384Y-104275282D01*
X96747297Y-104060208D01*
X96617964Y-103866647D01*
X96453353Y-103702036D01*
X96259792Y-103572703D01*
X96044718Y-103483616D01*
X95816397Y-103438200D01*
X95583603Y-103438200D01*
X95355282Y-103483616D01*
X95140208Y-103572703D01*
X94946647Y-103702036D01*
X94782036Y-103866647D01*
X94652703Y-104060208D01*
X94563616Y-104275282D01*
X94518200Y-104503603D01*
X94518200Y-104736397D01*
X94563616Y-104964718D01*
X94652703Y-105179792D01*
X94660994Y-105192200D01*
X92660052Y-105192200D01*
X90752051Y-103284200D01*
X96558017Y-103284200D01*
X97315801Y-104041985D01*
G36*
X104523000Y-73773000D02*
G01*
X82694548Y-73773000D01*
X81479336Y-72800830D01*
X81458465Y-72787257D01*
X81435346Y-72778018D01*
X81400000Y-72773000D01*
X76277000Y-72773000D01*
X76277000Y-66400000D01*
X96809428Y-66400000D01*
X96809428Y-68400000D01*
X96821688Y-68524482D01*
X96857998Y-68644180D01*
X96916963Y-68754494D01*
X96996315Y-68851185D01*
X97093006Y-68930537D01*
X97203320Y-68989502D01*
X97323018Y-69025812D01*
X97447500Y-69038072D01*
X99352500Y-69038072D01*
X99476982Y-69025812D01*
X99596680Y-68989502D01*
X99706994Y-68930537D01*
X99803685Y-68851185D01*
X99883037Y-68754494D01*
X99927905Y-68670553D01*
X100053766Y-68773845D01*
X100329552Y-68921255D01*
X100628797Y-69012030D01*
X100940000Y-69042681D01*
X101251204Y-69012030D01*
X101550449Y-68921255D01*
X101826235Y-68773845D01*
X102067963Y-68575463D01*
X102266345Y-68333734D01*
X102413755Y-68057948D01*
X102504530Y-67758703D01*
X102527500Y-67525485D01*
X102527500Y-67274514D01*
X102504530Y-67041296D01*
X102413755Y-66742051D01*
X102266345Y-66466265D01*
X102067963Y-66224537D01*
X101826234Y-66026155D01*
X101550448Y-65878745D01*
X101251203Y-65787970D01*
X100940000Y-65757319D01*
X100628796Y-65787970D01*
X100329551Y-65878745D01*
X100053765Y-66026155D01*
X99927905Y-66129446D01*
X99883037Y-66045506D01*
X99803685Y-65948815D01*
X99706994Y-65869463D01*
X99596680Y-65810498D01*
X99476982Y-65774188D01*
X99352500Y-65761928D01*
X97447500Y-65761928D01*
X97323018Y-65774188D01*
X97203320Y-65810498D01*
X97093006Y-65869463D01*
X96996315Y-65948815D01*
X96916963Y-66045506D01*
X96857998Y-66155820D01*
X96821688Y-66275518D01*
X96809428Y-66400000D01*
X76277000Y-66400000D01*
X76277000Y-64277000D01*
X104523000Y-64277000D01*
X104523000Y-73773000D01*
X104523000Y-73773000D01*
G37*
X104523000Y-73773000D02*
X82694548Y-73773000D01*
X81479336Y-72800830D01*
X81458465Y-72787257D01*
X81435346Y-72778018D01*
X81400000Y-72773000D01*
X76277000Y-72773000D01*
X76277000Y-66400000D01*
X96809428Y-66400000D01*
X96809428Y-68400000D01*
X96821688Y-68524482D01*
X96857998Y-68644180D01*
X96916963Y-68754494D01*
X96996315Y-68851185D01*
X97093006Y-68930537D01*
X97203320Y-68989502D01*
X97323018Y-69025812D01*
X97447500Y-69038072D01*
X99352500Y-69038072D01*
X99476982Y-69025812D01*
X99596680Y-68989502D01*
X99706994Y-68930537D01*
X99803685Y-68851185D01*
X99883037Y-68754494D01*
X99927905Y-68670553D01*
X100053766Y-68773845D01*
X100329552Y-68921255D01*
X100628797Y-69012030D01*
X100940000Y-69042681D01*
X101251204Y-69012030D01*
X101550449Y-68921255D01*
X101826235Y-68773845D01*
X102067963Y-68575463D01*
X102266345Y-68333734D01*
X102413755Y-68057948D01*
X102504530Y-67758703D01*
X102527500Y-67525485D01*
X102527500Y-67274514D01*
X102504530Y-67041296D01*
X102413755Y-66742051D01*
X102266345Y-66466265D01*
X102067963Y-66224537D01*
X101826234Y-66026155D01*
X101550448Y-65878745D01*
X101251203Y-65787970D01*
X100940000Y-65757319D01*
X100628796Y-65787970D01*
X100329551Y-65878745D01*
X100053765Y-66026155D01*
X99927905Y-66129446D01*
X99883037Y-66045506D01*
X99803685Y-65948815D01*
X99706994Y-65869463D01*
X99596680Y-65810498D01*
X99476982Y-65774188D01*
X99352500Y-65761928D01*
X97447500Y-65761928D01*
X97323018Y-65774188D01*
X97203320Y-65810498D01*
X97093006Y-65869463D01*
X96996315Y-65948815D01*
X96916963Y-66045506D01*
X96857998Y-66155820D01*
X96821688Y-66275518D01*
X96809428Y-66400000D01*
X76277000Y-66400000D01*
X76277000Y-64277000D01*
X104523000Y-64277000D01*
X104523000Y-73773000D01*
M02*
