G04 #@! TF.GenerationSoftware,KiCad,Pcbnew,(5.1.2)-2*
G04 #@! TF.CreationDate,2019-09-22T20:35:15+02:00*
G04 #@! TF.ProjectId,PowerSupply,506f7765-7253-4757-9070-6c792e6b6963,rev?*
G04 #@! TF.SameCoordinates,Original*
G04 #@! TF.FileFunction,Soldermask,Bot*
G04 #@! TF.FilePolarity,Negative*
%FSLAX46Y46*%
G04 Gerber Fmt 4.6, Leading zero omitted, Abs format (unit mm)*
G04 Created by KiCad (PCBNEW (5.1.2)-2) date 2019-09-22 20:35:15*
%MOMM*%
%LPD*%
G04 APERTURE LIST*
%ADD10C,0.100000*%
G04 APERTURE END LIST*
D10*
G36*
X104400000Y-72400000D02*
G01*
X78900000Y-72400000D01*
X78900000Y-68400000D01*
X88900000Y-68400000D01*
X88900000Y-69900000D01*
X102900000Y-69900000D01*
X102900000Y-67400000D01*
X104400000Y-67400000D01*
X104400000Y-72400000D01*
G37*
X104400000Y-72400000D02*
X78900000Y-72400000D01*
X78900000Y-68400000D01*
X88900000Y-68400000D01*
X88900000Y-69900000D01*
X102900000Y-69900000D01*
X102900000Y-67400000D01*
X104400000Y-67400000D01*
X104400000Y-72400000D01*
G36*
X115400000Y-78900000D02*
G01*
X78900000Y-78900000D01*
X78900000Y-74900000D01*
X115400000Y-74900000D01*
X115400000Y-78900000D01*
G37*
X115400000Y-78900000D02*
X78900000Y-78900000D01*
X78900000Y-74900000D01*
X115400000Y-74900000D01*
X115400000Y-78900000D01*
G36*
X91784468Y-121966065D02*
G01*
X91823138Y-121977796D01*
X91858777Y-121996846D01*
X91890017Y-122022483D01*
X91915654Y-122053723D01*
X91934704Y-122089362D01*
X91946435Y-122128032D01*
X91951000Y-122174388D01*
X91951000Y-122825612D01*
X91946435Y-122871968D01*
X91934704Y-122910638D01*
X91915654Y-122946277D01*
X91890017Y-122977517D01*
X91858777Y-123003154D01*
X91823138Y-123022204D01*
X91784468Y-123033935D01*
X91738112Y-123038500D01*
X90661888Y-123038500D01*
X90615532Y-123033935D01*
X90576862Y-123022204D01*
X90541223Y-123003154D01*
X90509983Y-122977517D01*
X90484346Y-122946277D01*
X90465296Y-122910638D01*
X90453565Y-122871968D01*
X90449000Y-122825612D01*
X90449000Y-122174388D01*
X90453565Y-122128032D01*
X90465296Y-122089362D01*
X90484346Y-122053723D01*
X90509983Y-122022483D01*
X90541223Y-121996846D01*
X90576862Y-121977796D01*
X90615532Y-121966065D01*
X90661888Y-121961500D01*
X91738112Y-121961500D01*
X91784468Y-121966065D01*
X91784468Y-121966065D01*
G37*
G36*
X114930443Y-120905519D02*
G01*
X114996627Y-120912037D01*
X115166466Y-120963557D01*
X115322991Y-121047222D01*
X115352302Y-121071277D01*
X115460186Y-121159814D01*
X115543448Y-121261271D01*
X115572778Y-121297009D01*
X115656443Y-121453534D01*
X115707963Y-121623373D01*
X115725359Y-121800000D01*
X115707963Y-121976627D01*
X115656443Y-122146466D01*
X115572778Y-122302991D01*
X115543448Y-122338729D01*
X115460186Y-122440186D01*
X115358729Y-122523448D01*
X115322991Y-122552778D01*
X115166466Y-122636443D01*
X114996627Y-122687963D01*
X114930442Y-122694482D01*
X114864260Y-122701000D01*
X114775740Y-122701000D01*
X114709558Y-122694482D01*
X114643373Y-122687963D01*
X114473534Y-122636443D01*
X114317009Y-122552778D01*
X114281271Y-122523448D01*
X114179814Y-122440186D01*
X114096552Y-122338729D01*
X114067222Y-122302991D01*
X113983557Y-122146466D01*
X113932037Y-121976627D01*
X113914641Y-121800000D01*
X113932037Y-121623373D01*
X113983557Y-121453534D01*
X114067222Y-121297009D01*
X114096552Y-121261271D01*
X114179814Y-121159814D01*
X114287698Y-121071277D01*
X114317009Y-121047222D01*
X114473534Y-120963557D01*
X114643373Y-120912037D01*
X114709557Y-120905519D01*
X114775740Y-120899000D01*
X114864260Y-120899000D01*
X114930443Y-120905519D01*
X114930443Y-120905519D01*
G37*
G36*
X79001000Y-122701000D02*
G01*
X77199000Y-122701000D01*
X77199000Y-120899000D01*
X79001000Y-120899000D01*
X79001000Y-122701000D01*
X79001000Y-122701000D01*
G37*
G36*
X80750443Y-120905519D02*
G01*
X80816627Y-120912037D01*
X80986466Y-120963557D01*
X81142991Y-121047222D01*
X81172302Y-121071277D01*
X81280186Y-121159814D01*
X81363448Y-121261271D01*
X81392778Y-121297009D01*
X81476443Y-121453534D01*
X81527963Y-121623373D01*
X81545359Y-121800000D01*
X81527963Y-121976627D01*
X81476443Y-122146466D01*
X81392778Y-122302991D01*
X81363448Y-122338729D01*
X81280186Y-122440186D01*
X81178729Y-122523448D01*
X81142991Y-122552778D01*
X80986466Y-122636443D01*
X80816627Y-122687963D01*
X80750442Y-122694482D01*
X80684260Y-122701000D01*
X80595740Y-122701000D01*
X80529558Y-122694482D01*
X80463373Y-122687963D01*
X80293534Y-122636443D01*
X80137009Y-122552778D01*
X80101271Y-122523448D01*
X79999814Y-122440186D01*
X79916552Y-122338729D01*
X79887222Y-122302991D01*
X79803557Y-122146466D01*
X79752037Y-121976627D01*
X79734641Y-121800000D01*
X79752037Y-121623373D01*
X79803557Y-121453534D01*
X79887222Y-121297009D01*
X79916552Y-121261271D01*
X79999814Y-121159814D01*
X80107698Y-121071277D01*
X80137009Y-121047222D01*
X80293534Y-120963557D01*
X80463373Y-120912037D01*
X80529557Y-120905519D01*
X80595740Y-120899000D01*
X80684260Y-120899000D01*
X80750443Y-120905519D01*
X80750443Y-120905519D01*
G37*
G36*
X83290443Y-120905519D02*
G01*
X83356627Y-120912037D01*
X83526466Y-120963557D01*
X83682991Y-121047222D01*
X83712302Y-121071277D01*
X83820186Y-121159814D01*
X83903448Y-121261271D01*
X83932778Y-121297009D01*
X84016443Y-121453534D01*
X84067963Y-121623373D01*
X84085359Y-121800000D01*
X84067963Y-121976627D01*
X84016443Y-122146466D01*
X83932778Y-122302991D01*
X83903448Y-122338729D01*
X83820186Y-122440186D01*
X83718729Y-122523448D01*
X83682991Y-122552778D01*
X83526466Y-122636443D01*
X83356627Y-122687963D01*
X83290442Y-122694482D01*
X83224260Y-122701000D01*
X83135740Y-122701000D01*
X83069558Y-122694482D01*
X83003373Y-122687963D01*
X82833534Y-122636443D01*
X82677009Y-122552778D01*
X82641271Y-122523448D01*
X82539814Y-122440186D01*
X82456552Y-122338729D01*
X82427222Y-122302991D01*
X82343557Y-122146466D01*
X82292037Y-121976627D01*
X82274641Y-121800000D01*
X82292037Y-121623373D01*
X82343557Y-121453534D01*
X82427222Y-121297009D01*
X82456552Y-121261271D01*
X82539814Y-121159814D01*
X82647698Y-121071277D01*
X82677009Y-121047222D01*
X82833534Y-120963557D01*
X83003373Y-120912037D01*
X83069557Y-120905519D01*
X83135740Y-120899000D01*
X83224260Y-120899000D01*
X83290443Y-120905519D01*
X83290443Y-120905519D01*
G37*
G36*
X85830443Y-120905519D02*
G01*
X85896627Y-120912037D01*
X86066466Y-120963557D01*
X86222991Y-121047222D01*
X86252302Y-121071277D01*
X86360186Y-121159814D01*
X86443448Y-121261271D01*
X86472778Y-121297009D01*
X86556443Y-121453534D01*
X86607963Y-121623373D01*
X86625359Y-121800000D01*
X86607963Y-121976627D01*
X86556443Y-122146466D01*
X86472778Y-122302991D01*
X86443448Y-122338729D01*
X86360186Y-122440186D01*
X86258729Y-122523448D01*
X86222991Y-122552778D01*
X86066466Y-122636443D01*
X85896627Y-122687963D01*
X85830442Y-122694482D01*
X85764260Y-122701000D01*
X85675740Y-122701000D01*
X85609558Y-122694482D01*
X85543373Y-122687963D01*
X85373534Y-122636443D01*
X85217009Y-122552778D01*
X85181271Y-122523448D01*
X85079814Y-122440186D01*
X84996552Y-122338729D01*
X84967222Y-122302991D01*
X84883557Y-122146466D01*
X84832037Y-121976627D01*
X84814641Y-121800000D01*
X84832037Y-121623373D01*
X84883557Y-121453534D01*
X84967222Y-121297009D01*
X84996552Y-121261271D01*
X85079814Y-121159814D01*
X85187698Y-121071277D01*
X85217009Y-121047222D01*
X85373534Y-120963557D01*
X85543373Y-120912037D01*
X85609557Y-120905519D01*
X85675740Y-120899000D01*
X85764260Y-120899000D01*
X85830443Y-120905519D01*
X85830443Y-120905519D01*
G37*
G36*
X88370443Y-120905519D02*
G01*
X88436627Y-120912037D01*
X88606466Y-120963557D01*
X88762991Y-121047222D01*
X88792302Y-121071277D01*
X88900186Y-121159814D01*
X88983448Y-121261271D01*
X89012778Y-121297009D01*
X89096443Y-121453534D01*
X89147963Y-121623373D01*
X89165359Y-121800000D01*
X89147963Y-121976627D01*
X89096443Y-122146466D01*
X89012778Y-122302991D01*
X88983448Y-122338729D01*
X88900186Y-122440186D01*
X88798729Y-122523448D01*
X88762991Y-122552778D01*
X88606466Y-122636443D01*
X88436627Y-122687963D01*
X88370442Y-122694482D01*
X88304260Y-122701000D01*
X88215740Y-122701000D01*
X88149558Y-122694482D01*
X88083373Y-122687963D01*
X87913534Y-122636443D01*
X87757009Y-122552778D01*
X87721271Y-122523448D01*
X87619814Y-122440186D01*
X87536552Y-122338729D01*
X87507222Y-122302991D01*
X87423557Y-122146466D01*
X87372037Y-121976627D01*
X87354641Y-121800000D01*
X87372037Y-121623373D01*
X87423557Y-121453534D01*
X87507222Y-121297009D01*
X87536552Y-121261271D01*
X87619814Y-121159814D01*
X87727698Y-121071277D01*
X87757009Y-121047222D01*
X87913534Y-120963557D01*
X88083373Y-120912037D01*
X88149557Y-120905519D01*
X88215740Y-120899000D01*
X88304260Y-120899000D01*
X88370443Y-120905519D01*
X88370443Y-120905519D01*
G37*
G36*
X108101000Y-122701000D02*
G01*
X106299000Y-122701000D01*
X106299000Y-120899000D01*
X108101000Y-120899000D01*
X108101000Y-122701000D01*
X108101000Y-122701000D01*
G37*
G36*
X109850443Y-120905519D02*
G01*
X109916627Y-120912037D01*
X110086466Y-120963557D01*
X110242991Y-121047222D01*
X110272302Y-121071277D01*
X110380186Y-121159814D01*
X110463448Y-121261271D01*
X110492778Y-121297009D01*
X110576443Y-121453534D01*
X110627963Y-121623373D01*
X110645359Y-121800000D01*
X110627963Y-121976627D01*
X110576443Y-122146466D01*
X110492778Y-122302991D01*
X110463448Y-122338729D01*
X110380186Y-122440186D01*
X110278729Y-122523448D01*
X110242991Y-122552778D01*
X110086466Y-122636443D01*
X109916627Y-122687963D01*
X109850442Y-122694482D01*
X109784260Y-122701000D01*
X109695740Y-122701000D01*
X109629558Y-122694482D01*
X109563373Y-122687963D01*
X109393534Y-122636443D01*
X109237009Y-122552778D01*
X109201271Y-122523448D01*
X109099814Y-122440186D01*
X109016552Y-122338729D01*
X108987222Y-122302991D01*
X108903557Y-122146466D01*
X108852037Y-121976627D01*
X108834641Y-121800000D01*
X108852037Y-121623373D01*
X108903557Y-121453534D01*
X108987222Y-121297009D01*
X109016552Y-121261271D01*
X109099814Y-121159814D01*
X109207698Y-121071277D01*
X109237009Y-121047222D01*
X109393534Y-120963557D01*
X109563373Y-120912037D01*
X109629557Y-120905519D01*
X109695740Y-120899000D01*
X109784260Y-120899000D01*
X109850443Y-120905519D01*
X109850443Y-120905519D01*
G37*
G36*
X112390443Y-120905519D02*
G01*
X112456627Y-120912037D01*
X112626466Y-120963557D01*
X112782991Y-121047222D01*
X112812302Y-121071277D01*
X112920186Y-121159814D01*
X113003448Y-121261271D01*
X113032778Y-121297009D01*
X113116443Y-121453534D01*
X113167963Y-121623373D01*
X113185359Y-121800000D01*
X113167963Y-121976627D01*
X113116443Y-122146466D01*
X113032778Y-122302991D01*
X113003448Y-122338729D01*
X112920186Y-122440186D01*
X112818729Y-122523448D01*
X112782991Y-122552778D01*
X112626466Y-122636443D01*
X112456627Y-122687963D01*
X112390442Y-122694482D01*
X112324260Y-122701000D01*
X112235740Y-122701000D01*
X112169558Y-122694482D01*
X112103373Y-122687963D01*
X111933534Y-122636443D01*
X111777009Y-122552778D01*
X111741271Y-122523448D01*
X111639814Y-122440186D01*
X111556552Y-122338729D01*
X111527222Y-122302991D01*
X111443557Y-122146466D01*
X111392037Y-121976627D01*
X111374641Y-121800000D01*
X111392037Y-121623373D01*
X111443557Y-121453534D01*
X111527222Y-121297009D01*
X111556552Y-121261271D01*
X111639814Y-121159814D01*
X111747698Y-121071277D01*
X111777009Y-121047222D01*
X111933534Y-120963557D01*
X112103373Y-120912037D01*
X112169557Y-120905519D01*
X112235740Y-120899000D01*
X112324260Y-120899000D01*
X112390443Y-120905519D01*
X112390443Y-120905519D01*
G37*
G36*
X101930443Y-120905519D02*
G01*
X101996627Y-120912037D01*
X102166466Y-120963557D01*
X102322991Y-121047222D01*
X102352302Y-121071277D01*
X102460186Y-121159814D01*
X102543448Y-121261271D01*
X102572778Y-121297009D01*
X102656443Y-121453534D01*
X102707963Y-121623373D01*
X102725359Y-121800000D01*
X102707963Y-121976627D01*
X102656443Y-122146466D01*
X102572778Y-122302991D01*
X102543448Y-122338729D01*
X102460186Y-122440186D01*
X102358729Y-122523448D01*
X102322991Y-122552778D01*
X102166466Y-122636443D01*
X101996627Y-122687963D01*
X101930442Y-122694482D01*
X101864260Y-122701000D01*
X101775740Y-122701000D01*
X101709558Y-122694482D01*
X101643373Y-122687963D01*
X101473534Y-122636443D01*
X101317009Y-122552778D01*
X101281271Y-122523448D01*
X101179814Y-122440186D01*
X101096552Y-122338729D01*
X101067222Y-122302991D01*
X100983557Y-122146466D01*
X100932037Y-121976627D01*
X100914641Y-121800000D01*
X100932037Y-121623373D01*
X100983557Y-121453534D01*
X101067222Y-121297009D01*
X101096552Y-121261271D01*
X101179814Y-121159814D01*
X101287698Y-121071277D01*
X101317009Y-121047222D01*
X101473534Y-120963557D01*
X101643373Y-120912037D01*
X101709557Y-120905519D01*
X101775740Y-120899000D01*
X101864260Y-120899000D01*
X101930443Y-120905519D01*
X101930443Y-120905519D01*
G37*
G36*
X99390443Y-120905519D02*
G01*
X99456627Y-120912037D01*
X99626466Y-120963557D01*
X99782991Y-121047222D01*
X99812302Y-121071277D01*
X99920186Y-121159814D01*
X100003448Y-121261271D01*
X100032778Y-121297009D01*
X100116443Y-121453534D01*
X100167963Y-121623373D01*
X100185359Y-121800000D01*
X100167963Y-121976627D01*
X100116443Y-122146466D01*
X100032778Y-122302991D01*
X100003448Y-122338729D01*
X99920186Y-122440186D01*
X99818729Y-122523448D01*
X99782991Y-122552778D01*
X99626466Y-122636443D01*
X99456627Y-122687963D01*
X99390442Y-122694482D01*
X99324260Y-122701000D01*
X99235740Y-122701000D01*
X99169558Y-122694482D01*
X99103373Y-122687963D01*
X98933534Y-122636443D01*
X98777009Y-122552778D01*
X98741271Y-122523448D01*
X98639814Y-122440186D01*
X98556552Y-122338729D01*
X98527222Y-122302991D01*
X98443557Y-122146466D01*
X98392037Y-121976627D01*
X98374641Y-121800000D01*
X98392037Y-121623373D01*
X98443557Y-121453534D01*
X98527222Y-121297009D01*
X98556552Y-121261271D01*
X98639814Y-121159814D01*
X98747698Y-121071277D01*
X98777009Y-121047222D01*
X98933534Y-120963557D01*
X99103373Y-120912037D01*
X99169557Y-120905519D01*
X99235740Y-120899000D01*
X99324260Y-120899000D01*
X99390443Y-120905519D01*
X99390443Y-120905519D01*
G37*
G36*
X96850443Y-120905519D02*
G01*
X96916627Y-120912037D01*
X97086466Y-120963557D01*
X97242991Y-121047222D01*
X97272302Y-121071277D01*
X97380186Y-121159814D01*
X97463448Y-121261271D01*
X97492778Y-121297009D01*
X97576443Y-121453534D01*
X97627963Y-121623373D01*
X97645359Y-121800000D01*
X97627963Y-121976627D01*
X97576443Y-122146466D01*
X97492778Y-122302991D01*
X97463448Y-122338729D01*
X97380186Y-122440186D01*
X97278729Y-122523448D01*
X97242991Y-122552778D01*
X97086466Y-122636443D01*
X96916627Y-122687963D01*
X96850442Y-122694482D01*
X96784260Y-122701000D01*
X96695740Y-122701000D01*
X96629558Y-122694482D01*
X96563373Y-122687963D01*
X96393534Y-122636443D01*
X96237009Y-122552778D01*
X96201271Y-122523448D01*
X96099814Y-122440186D01*
X96016552Y-122338729D01*
X95987222Y-122302991D01*
X95903557Y-122146466D01*
X95852037Y-121976627D01*
X95834641Y-121800000D01*
X95852037Y-121623373D01*
X95903557Y-121453534D01*
X95987222Y-121297009D01*
X96016552Y-121261271D01*
X96099814Y-121159814D01*
X96207698Y-121071277D01*
X96237009Y-121047222D01*
X96393534Y-120963557D01*
X96563373Y-120912037D01*
X96629557Y-120905519D01*
X96695740Y-120899000D01*
X96784260Y-120899000D01*
X96850443Y-120905519D01*
X96850443Y-120905519D01*
G37*
G36*
X95101000Y-122701000D02*
G01*
X93299000Y-122701000D01*
X93299000Y-120899000D01*
X95101000Y-120899000D01*
X95101000Y-122701000D01*
X95101000Y-122701000D01*
G37*
G36*
X91784468Y-120091065D02*
G01*
X91823138Y-120102796D01*
X91858777Y-120121846D01*
X91890017Y-120147483D01*
X91915654Y-120178723D01*
X91934704Y-120214362D01*
X91946435Y-120253032D01*
X91951000Y-120299388D01*
X91951000Y-120950612D01*
X91946435Y-120996968D01*
X91934704Y-121035638D01*
X91915654Y-121071277D01*
X91890017Y-121102517D01*
X91858777Y-121128154D01*
X91823138Y-121147204D01*
X91784468Y-121158935D01*
X91738112Y-121163500D01*
X90661888Y-121163500D01*
X90615532Y-121158935D01*
X90576862Y-121147204D01*
X90541223Y-121128154D01*
X90509983Y-121102517D01*
X90484346Y-121071277D01*
X90465296Y-121035638D01*
X90453565Y-120996968D01*
X90449000Y-120950612D01*
X90449000Y-120299388D01*
X90453565Y-120253032D01*
X90465296Y-120214362D01*
X90484346Y-120178723D01*
X90509983Y-120147483D01*
X90541223Y-120121846D01*
X90576862Y-120102796D01*
X90615532Y-120091065D01*
X90661888Y-120086500D01*
X91738112Y-120086500D01*
X91784468Y-120091065D01*
X91784468Y-120091065D01*
G37*
G36*
X80750443Y-116805519D02*
G01*
X80816627Y-116812037D01*
X80986466Y-116863557D01*
X81142991Y-116947222D01*
X81178729Y-116976552D01*
X81280186Y-117059814D01*
X81363448Y-117161271D01*
X81392778Y-117197009D01*
X81476443Y-117353534D01*
X81527963Y-117523373D01*
X81545359Y-117700000D01*
X81527963Y-117876627D01*
X81476443Y-118046466D01*
X81392778Y-118202991D01*
X81363448Y-118238729D01*
X81280186Y-118340186D01*
X81178729Y-118423448D01*
X81142991Y-118452778D01*
X80986466Y-118536443D01*
X80816627Y-118587963D01*
X80750443Y-118594481D01*
X80684260Y-118601000D01*
X80595740Y-118601000D01*
X80529557Y-118594481D01*
X80463373Y-118587963D01*
X80293534Y-118536443D01*
X80137009Y-118452778D01*
X80101271Y-118423448D01*
X79999814Y-118340186D01*
X79916552Y-118238729D01*
X79887222Y-118202991D01*
X79803557Y-118046466D01*
X79752037Y-117876627D01*
X79734641Y-117700000D01*
X79752037Y-117523373D01*
X79803557Y-117353534D01*
X79887222Y-117197009D01*
X79916552Y-117161271D01*
X79999814Y-117059814D01*
X80101271Y-116976552D01*
X80137009Y-116947222D01*
X80293534Y-116863557D01*
X80463373Y-116812037D01*
X80529557Y-116805519D01*
X80595740Y-116799000D01*
X80684260Y-116799000D01*
X80750443Y-116805519D01*
X80750443Y-116805519D01*
G37*
G36*
X78210443Y-116805519D02*
G01*
X78276627Y-116812037D01*
X78446466Y-116863557D01*
X78602991Y-116947222D01*
X78638729Y-116976552D01*
X78740186Y-117059814D01*
X78823448Y-117161271D01*
X78852778Y-117197009D01*
X78936443Y-117353534D01*
X78987963Y-117523373D01*
X79005359Y-117700000D01*
X78987963Y-117876627D01*
X78936443Y-118046466D01*
X78852778Y-118202991D01*
X78823448Y-118238729D01*
X78740186Y-118340186D01*
X78638729Y-118423448D01*
X78602991Y-118452778D01*
X78446466Y-118536443D01*
X78276627Y-118587963D01*
X78210443Y-118594481D01*
X78144260Y-118601000D01*
X78055740Y-118601000D01*
X77989557Y-118594481D01*
X77923373Y-118587963D01*
X77753534Y-118536443D01*
X77597009Y-118452778D01*
X77561271Y-118423448D01*
X77459814Y-118340186D01*
X77376552Y-118238729D01*
X77347222Y-118202991D01*
X77263557Y-118046466D01*
X77212037Y-117876627D01*
X77194641Y-117700000D01*
X77212037Y-117523373D01*
X77263557Y-117353534D01*
X77347222Y-117197009D01*
X77376552Y-117161271D01*
X77459814Y-117059814D01*
X77561271Y-116976552D01*
X77597009Y-116947222D01*
X77753534Y-116863557D01*
X77923373Y-116812037D01*
X77989557Y-116805519D01*
X78055740Y-116799000D01*
X78144260Y-116799000D01*
X78210443Y-116805519D01*
X78210443Y-116805519D01*
G37*
G36*
X83290443Y-116805519D02*
G01*
X83356627Y-116812037D01*
X83526466Y-116863557D01*
X83682991Y-116947222D01*
X83718729Y-116976552D01*
X83820186Y-117059814D01*
X83903448Y-117161271D01*
X83932778Y-117197009D01*
X84016443Y-117353534D01*
X84067963Y-117523373D01*
X84085359Y-117700000D01*
X84067963Y-117876627D01*
X84016443Y-118046466D01*
X83932778Y-118202991D01*
X83903448Y-118238729D01*
X83820186Y-118340186D01*
X83718729Y-118423448D01*
X83682991Y-118452778D01*
X83526466Y-118536443D01*
X83356627Y-118587963D01*
X83290443Y-118594481D01*
X83224260Y-118601000D01*
X83135740Y-118601000D01*
X83069557Y-118594481D01*
X83003373Y-118587963D01*
X82833534Y-118536443D01*
X82677009Y-118452778D01*
X82641271Y-118423448D01*
X82539814Y-118340186D01*
X82456552Y-118238729D01*
X82427222Y-118202991D01*
X82343557Y-118046466D01*
X82292037Y-117876627D01*
X82274641Y-117700000D01*
X82292037Y-117523373D01*
X82343557Y-117353534D01*
X82427222Y-117197009D01*
X82456552Y-117161271D01*
X82539814Y-117059814D01*
X82641271Y-116976552D01*
X82677009Y-116947222D01*
X82833534Y-116863557D01*
X83003373Y-116812037D01*
X83069557Y-116805519D01*
X83135740Y-116799000D01*
X83224260Y-116799000D01*
X83290443Y-116805519D01*
X83290443Y-116805519D01*
G37*
G36*
X85830443Y-116805519D02*
G01*
X85896627Y-116812037D01*
X86066466Y-116863557D01*
X86222991Y-116947222D01*
X86258729Y-116976552D01*
X86360186Y-117059814D01*
X86443448Y-117161271D01*
X86472778Y-117197009D01*
X86556443Y-117353534D01*
X86607963Y-117523373D01*
X86625359Y-117700000D01*
X86607963Y-117876627D01*
X86556443Y-118046466D01*
X86472778Y-118202991D01*
X86443448Y-118238729D01*
X86360186Y-118340186D01*
X86258729Y-118423448D01*
X86222991Y-118452778D01*
X86066466Y-118536443D01*
X85896627Y-118587963D01*
X85830443Y-118594481D01*
X85764260Y-118601000D01*
X85675740Y-118601000D01*
X85609557Y-118594481D01*
X85543373Y-118587963D01*
X85373534Y-118536443D01*
X85217009Y-118452778D01*
X85181271Y-118423448D01*
X85079814Y-118340186D01*
X84996552Y-118238729D01*
X84967222Y-118202991D01*
X84883557Y-118046466D01*
X84832037Y-117876627D01*
X84814641Y-117700000D01*
X84832037Y-117523373D01*
X84883557Y-117353534D01*
X84967222Y-117197009D01*
X84996552Y-117161271D01*
X85079814Y-117059814D01*
X85181271Y-116976552D01*
X85217009Y-116947222D01*
X85373534Y-116863557D01*
X85543373Y-116812037D01*
X85609557Y-116805519D01*
X85675740Y-116799000D01*
X85764260Y-116799000D01*
X85830443Y-116805519D01*
X85830443Y-116805519D01*
G37*
G36*
X88370443Y-116805519D02*
G01*
X88436627Y-116812037D01*
X88606466Y-116863557D01*
X88762991Y-116947222D01*
X88798729Y-116976552D01*
X88900186Y-117059814D01*
X88983448Y-117161271D01*
X89012778Y-117197009D01*
X89096443Y-117353534D01*
X89147963Y-117523373D01*
X89165359Y-117700000D01*
X89147963Y-117876627D01*
X89096443Y-118046466D01*
X89012778Y-118202991D01*
X88983448Y-118238729D01*
X88900186Y-118340186D01*
X88798729Y-118423448D01*
X88762991Y-118452778D01*
X88606466Y-118536443D01*
X88436627Y-118587963D01*
X88370443Y-118594481D01*
X88304260Y-118601000D01*
X88215740Y-118601000D01*
X88149557Y-118594481D01*
X88083373Y-118587963D01*
X87913534Y-118536443D01*
X87757009Y-118452778D01*
X87721271Y-118423448D01*
X87619814Y-118340186D01*
X87536552Y-118238729D01*
X87507222Y-118202991D01*
X87423557Y-118046466D01*
X87372037Y-117876627D01*
X87354641Y-117700000D01*
X87372037Y-117523373D01*
X87423557Y-117353534D01*
X87507222Y-117197009D01*
X87536552Y-117161271D01*
X87619814Y-117059814D01*
X87721271Y-116976552D01*
X87757009Y-116947222D01*
X87913534Y-116863557D01*
X88083373Y-116812037D01*
X88149557Y-116805519D01*
X88215740Y-116799000D01*
X88304260Y-116799000D01*
X88370443Y-116805519D01*
X88370443Y-116805519D01*
G37*
G36*
X90910443Y-116805519D02*
G01*
X90976627Y-116812037D01*
X91146466Y-116863557D01*
X91302991Y-116947222D01*
X91338729Y-116976552D01*
X91440186Y-117059814D01*
X91523448Y-117161271D01*
X91552778Y-117197009D01*
X91636443Y-117353534D01*
X91687963Y-117523373D01*
X91705359Y-117700000D01*
X91687963Y-117876627D01*
X91636443Y-118046466D01*
X91552778Y-118202991D01*
X91523448Y-118238729D01*
X91440186Y-118340186D01*
X91338729Y-118423448D01*
X91302991Y-118452778D01*
X91146466Y-118536443D01*
X90976627Y-118587963D01*
X90910443Y-118594481D01*
X90844260Y-118601000D01*
X90755740Y-118601000D01*
X90689557Y-118594481D01*
X90623373Y-118587963D01*
X90453534Y-118536443D01*
X90297009Y-118452778D01*
X90261271Y-118423448D01*
X90159814Y-118340186D01*
X90076552Y-118238729D01*
X90047222Y-118202991D01*
X89963557Y-118046466D01*
X89912037Y-117876627D01*
X89894641Y-117700000D01*
X89912037Y-117523373D01*
X89963557Y-117353534D01*
X90047222Y-117197009D01*
X90076552Y-117161271D01*
X90159814Y-117059814D01*
X90261271Y-116976552D01*
X90297009Y-116947222D01*
X90453534Y-116863557D01*
X90623373Y-116812037D01*
X90689557Y-116805519D01*
X90755740Y-116799000D01*
X90844260Y-116799000D01*
X90910443Y-116805519D01*
X90910443Y-116805519D01*
G37*
G36*
X101070443Y-116805519D02*
G01*
X101136627Y-116812037D01*
X101306466Y-116863557D01*
X101462991Y-116947222D01*
X101498729Y-116976552D01*
X101600186Y-117059814D01*
X101683448Y-117161271D01*
X101712778Y-117197009D01*
X101796443Y-117353534D01*
X101847963Y-117523373D01*
X101865359Y-117700000D01*
X101847963Y-117876627D01*
X101796443Y-118046466D01*
X101712778Y-118202991D01*
X101683448Y-118238729D01*
X101600186Y-118340186D01*
X101498729Y-118423448D01*
X101462991Y-118452778D01*
X101306466Y-118536443D01*
X101136627Y-118587963D01*
X101070443Y-118594481D01*
X101004260Y-118601000D01*
X100915740Y-118601000D01*
X100849557Y-118594481D01*
X100783373Y-118587963D01*
X100613534Y-118536443D01*
X100457009Y-118452778D01*
X100421271Y-118423448D01*
X100319814Y-118340186D01*
X100236552Y-118238729D01*
X100207222Y-118202991D01*
X100123557Y-118046466D01*
X100072037Y-117876627D01*
X100054641Y-117700000D01*
X100072037Y-117523373D01*
X100123557Y-117353534D01*
X100207222Y-117197009D01*
X100236552Y-117161271D01*
X100319814Y-117059814D01*
X100421271Y-116976552D01*
X100457009Y-116947222D01*
X100613534Y-116863557D01*
X100783373Y-116812037D01*
X100849557Y-116805519D01*
X100915740Y-116799000D01*
X101004260Y-116799000D01*
X101070443Y-116805519D01*
X101070443Y-116805519D01*
G37*
G36*
X93450443Y-116805519D02*
G01*
X93516627Y-116812037D01*
X93686466Y-116863557D01*
X93842991Y-116947222D01*
X93878729Y-116976552D01*
X93980186Y-117059814D01*
X94063448Y-117161271D01*
X94092778Y-117197009D01*
X94176443Y-117353534D01*
X94227963Y-117523373D01*
X94245359Y-117700000D01*
X94227963Y-117876627D01*
X94176443Y-118046466D01*
X94092778Y-118202991D01*
X94063448Y-118238729D01*
X93980186Y-118340186D01*
X93878729Y-118423448D01*
X93842991Y-118452778D01*
X93686466Y-118536443D01*
X93516627Y-118587963D01*
X93450443Y-118594481D01*
X93384260Y-118601000D01*
X93295740Y-118601000D01*
X93229557Y-118594481D01*
X93163373Y-118587963D01*
X92993534Y-118536443D01*
X92837009Y-118452778D01*
X92801271Y-118423448D01*
X92699814Y-118340186D01*
X92616552Y-118238729D01*
X92587222Y-118202991D01*
X92503557Y-118046466D01*
X92452037Y-117876627D01*
X92434641Y-117700000D01*
X92452037Y-117523373D01*
X92503557Y-117353534D01*
X92587222Y-117197009D01*
X92616552Y-117161271D01*
X92699814Y-117059814D01*
X92801271Y-116976552D01*
X92837009Y-116947222D01*
X92993534Y-116863557D01*
X93163373Y-116812037D01*
X93229557Y-116805519D01*
X93295740Y-116799000D01*
X93384260Y-116799000D01*
X93450443Y-116805519D01*
X93450443Y-116805519D01*
G37*
G36*
X98530443Y-116805519D02*
G01*
X98596627Y-116812037D01*
X98766466Y-116863557D01*
X98922991Y-116947222D01*
X98958729Y-116976552D01*
X99060186Y-117059814D01*
X99143448Y-117161271D01*
X99172778Y-117197009D01*
X99256443Y-117353534D01*
X99307963Y-117523373D01*
X99325359Y-117700000D01*
X99307963Y-117876627D01*
X99256443Y-118046466D01*
X99172778Y-118202991D01*
X99143448Y-118238729D01*
X99060186Y-118340186D01*
X98958729Y-118423448D01*
X98922991Y-118452778D01*
X98766466Y-118536443D01*
X98596627Y-118587963D01*
X98530443Y-118594481D01*
X98464260Y-118601000D01*
X98375740Y-118601000D01*
X98309557Y-118594481D01*
X98243373Y-118587963D01*
X98073534Y-118536443D01*
X97917009Y-118452778D01*
X97881271Y-118423448D01*
X97779814Y-118340186D01*
X97696552Y-118238729D01*
X97667222Y-118202991D01*
X97583557Y-118046466D01*
X97532037Y-117876627D01*
X97514641Y-117700000D01*
X97532037Y-117523373D01*
X97583557Y-117353534D01*
X97667222Y-117197009D01*
X97696552Y-117161271D01*
X97779814Y-117059814D01*
X97881271Y-116976552D01*
X97917009Y-116947222D01*
X98073534Y-116863557D01*
X98243373Y-116812037D01*
X98309557Y-116805519D01*
X98375740Y-116799000D01*
X98464260Y-116799000D01*
X98530443Y-116805519D01*
X98530443Y-116805519D01*
G37*
G36*
X103610443Y-116805519D02*
G01*
X103676627Y-116812037D01*
X103846466Y-116863557D01*
X104002991Y-116947222D01*
X104038729Y-116976552D01*
X104140186Y-117059814D01*
X104223448Y-117161271D01*
X104252778Y-117197009D01*
X104336443Y-117353534D01*
X104387963Y-117523373D01*
X104405359Y-117700000D01*
X104387963Y-117876627D01*
X104336443Y-118046466D01*
X104252778Y-118202991D01*
X104223448Y-118238729D01*
X104140186Y-118340186D01*
X104038729Y-118423448D01*
X104002991Y-118452778D01*
X103846466Y-118536443D01*
X103676627Y-118587963D01*
X103610443Y-118594481D01*
X103544260Y-118601000D01*
X103455740Y-118601000D01*
X103389557Y-118594481D01*
X103323373Y-118587963D01*
X103153534Y-118536443D01*
X102997009Y-118452778D01*
X102961271Y-118423448D01*
X102859814Y-118340186D01*
X102776552Y-118238729D01*
X102747222Y-118202991D01*
X102663557Y-118046466D01*
X102612037Y-117876627D01*
X102594641Y-117700000D01*
X102612037Y-117523373D01*
X102663557Y-117353534D01*
X102747222Y-117197009D01*
X102776552Y-117161271D01*
X102859814Y-117059814D01*
X102961271Y-116976552D01*
X102997009Y-116947222D01*
X103153534Y-116863557D01*
X103323373Y-116812037D01*
X103389557Y-116805519D01*
X103455740Y-116799000D01*
X103544260Y-116799000D01*
X103610443Y-116805519D01*
X103610443Y-116805519D01*
G37*
G36*
X106150443Y-116805519D02*
G01*
X106216627Y-116812037D01*
X106386466Y-116863557D01*
X106542991Y-116947222D01*
X106578729Y-116976552D01*
X106680186Y-117059814D01*
X106763448Y-117161271D01*
X106792778Y-117197009D01*
X106876443Y-117353534D01*
X106927963Y-117523373D01*
X106945359Y-117700000D01*
X106927963Y-117876627D01*
X106876443Y-118046466D01*
X106792778Y-118202991D01*
X106763448Y-118238729D01*
X106680186Y-118340186D01*
X106578729Y-118423448D01*
X106542991Y-118452778D01*
X106386466Y-118536443D01*
X106216627Y-118587963D01*
X106150443Y-118594481D01*
X106084260Y-118601000D01*
X105995740Y-118601000D01*
X105929557Y-118594481D01*
X105863373Y-118587963D01*
X105693534Y-118536443D01*
X105537009Y-118452778D01*
X105501271Y-118423448D01*
X105399814Y-118340186D01*
X105316552Y-118238729D01*
X105287222Y-118202991D01*
X105203557Y-118046466D01*
X105152037Y-117876627D01*
X105134641Y-117700000D01*
X105152037Y-117523373D01*
X105203557Y-117353534D01*
X105287222Y-117197009D01*
X105316552Y-117161271D01*
X105399814Y-117059814D01*
X105501271Y-116976552D01*
X105537009Y-116947222D01*
X105693534Y-116863557D01*
X105863373Y-116812037D01*
X105929557Y-116805519D01*
X105995740Y-116799000D01*
X106084260Y-116799000D01*
X106150443Y-116805519D01*
X106150443Y-116805519D01*
G37*
G36*
X108690443Y-116805519D02*
G01*
X108756627Y-116812037D01*
X108926466Y-116863557D01*
X109082991Y-116947222D01*
X109118729Y-116976552D01*
X109220186Y-117059814D01*
X109303448Y-117161271D01*
X109332778Y-117197009D01*
X109416443Y-117353534D01*
X109467963Y-117523373D01*
X109485359Y-117700000D01*
X109467963Y-117876627D01*
X109416443Y-118046466D01*
X109332778Y-118202991D01*
X109303448Y-118238729D01*
X109220186Y-118340186D01*
X109118729Y-118423448D01*
X109082991Y-118452778D01*
X108926466Y-118536443D01*
X108756627Y-118587963D01*
X108690443Y-118594481D01*
X108624260Y-118601000D01*
X108535740Y-118601000D01*
X108469557Y-118594481D01*
X108403373Y-118587963D01*
X108233534Y-118536443D01*
X108077009Y-118452778D01*
X108041271Y-118423448D01*
X107939814Y-118340186D01*
X107856552Y-118238729D01*
X107827222Y-118202991D01*
X107743557Y-118046466D01*
X107692037Y-117876627D01*
X107674641Y-117700000D01*
X107692037Y-117523373D01*
X107743557Y-117353534D01*
X107827222Y-117197009D01*
X107856552Y-117161271D01*
X107939814Y-117059814D01*
X108041271Y-116976552D01*
X108077009Y-116947222D01*
X108233534Y-116863557D01*
X108403373Y-116812037D01*
X108469557Y-116805519D01*
X108535740Y-116799000D01*
X108624260Y-116799000D01*
X108690443Y-116805519D01*
X108690443Y-116805519D01*
G37*
G36*
X113770443Y-116805519D02*
G01*
X113836627Y-116812037D01*
X114006466Y-116863557D01*
X114162991Y-116947222D01*
X114198729Y-116976552D01*
X114300186Y-117059814D01*
X114383448Y-117161271D01*
X114412778Y-117197009D01*
X114496443Y-117353534D01*
X114547963Y-117523373D01*
X114565359Y-117700000D01*
X114547963Y-117876627D01*
X114496443Y-118046466D01*
X114412778Y-118202991D01*
X114383448Y-118238729D01*
X114300186Y-118340186D01*
X114198729Y-118423448D01*
X114162991Y-118452778D01*
X114006466Y-118536443D01*
X113836627Y-118587963D01*
X113770443Y-118594481D01*
X113704260Y-118601000D01*
X113615740Y-118601000D01*
X113549557Y-118594481D01*
X113483373Y-118587963D01*
X113313534Y-118536443D01*
X113157009Y-118452778D01*
X113121271Y-118423448D01*
X113019814Y-118340186D01*
X112936552Y-118238729D01*
X112907222Y-118202991D01*
X112823557Y-118046466D01*
X112772037Y-117876627D01*
X112754641Y-117700000D01*
X112772037Y-117523373D01*
X112823557Y-117353534D01*
X112907222Y-117197009D01*
X112936552Y-117161271D01*
X113019814Y-117059814D01*
X113121271Y-116976552D01*
X113157009Y-116947222D01*
X113313534Y-116863557D01*
X113483373Y-116812037D01*
X113549557Y-116805519D01*
X113615740Y-116799000D01*
X113704260Y-116799000D01*
X113770443Y-116805519D01*
X113770443Y-116805519D01*
G37*
G36*
X111230443Y-116805519D02*
G01*
X111296627Y-116812037D01*
X111466466Y-116863557D01*
X111622991Y-116947222D01*
X111658729Y-116976552D01*
X111760186Y-117059814D01*
X111843448Y-117161271D01*
X111872778Y-117197009D01*
X111956443Y-117353534D01*
X112007963Y-117523373D01*
X112025359Y-117700000D01*
X112007963Y-117876627D01*
X111956443Y-118046466D01*
X111872778Y-118202991D01*
X111843448Y-118238729D01*
X111760186Y-118340186D01*
X111658729Y-118423448D01*
X111622991Y-118452778D01*
X111466466Y-118536443D01*
X111296627Y-118587963D01*
X111230443Y-118594481D01*
X111164260Y-118601000D01*
X111075740Y-118601000D01*
X111009557Y-118594481D01*
X110943373Y-118587963D01*
X110773534Y-118536443D01*
X110617009Y-118452778D01*
X110581271Y-118423448D01*
X110479814Y-118340186D01*
X110396552Y-118238729D01*
X110367222Y-118202991D01*
X110283557Y-118046466D01*
X110232037Y-117876627D01*
X110214641Y-117700000D01*
X110232037Y-117523373D01*
X110283557Y-117353534D01*
X110367222Y-117197009D01*
X110396552Y-117161271D01*
X110479814Y-117059814D01*
X110581271Y-116976552D01*
X110617009Y-116947222D01*
X110773534Y-116863557D01*
X110943373Y-116812037D01*
X111009557Y-116805519D01*
X111075740Y-116799000D01*
X111164260Y-116799000D01*
X111230443Y-116805519D01*
X111230443Y-116805519D01*
G37*
G36*
X117101000Y-118601000D02*
G01*
X115299000Y-118601000D01*
X115299000Y-116799000D01*
X117101000Y-116799000D01*
X117101000Y-118601000D01*
X117101000Y-118601000D01*
G37*
G36*
X95990443Y-116805519D02*
G01*
X96056627Y-116812037D01*
X96226466Y-116863557D01*
X96382991Y-116947222D01*
X96418729Y-116976552D01*
X96520186Y-117059814D01*
X96603448Y-117161271D01*
X96632778Y-117197009D01*
X96716443Y-117353534D01*
X96767963Y-117523373D01*
X96785359Y-117700000D01*
X96767963Y-117876627D01*
X96716443Y-118046466D01*
X96632778Y-118202991D01*
X96603448Y-118238729D01*
X96520186Y-118340186D01*
X96418729Y-118423448D01*
X96382991Y-118452778D01*
X96226466Y-118536443D01*
X96056627Y-118587963D01*
X95990443Y-118594481D01*
X95924260Y-118601000D01*
X95835740Y-118601000D01*
X95769557Y-118594481D01*
X95703373Y-118587963D01*
X95533534Y-118536443D01*
X95377009Y-118452778D01*
X95341271Y-118423448D01*
X95239814Y-118340186D01*
X95156552Y-118238729D01*
X95127222Y-118202991D01*
X95043557Y-118046466D01*
X94992037Y-117876627D01*
X94974641Y-117700000D01*
X94992037Y-117523373D01*
X95043557Y-117353534D01*
X95127222Y-117197009D01*
X95156552Y-117161271D01*
X95239814Y-117059814D01*
X95341271Y-116976552D01*
X95377009Y-116947222D01*
X95533534Y-116863557D01*
X95703373Y-116812037D01*
X95769557Y-116805519D01*
X95835740Y-116799000D01*
X95924260Y-116799000D01*
X95990443Y-116805519D01*
X95990443Y-116805519D01*
G37*
G36*
X95933642Y-108729781D02*
G01*
X96079414Y-108790162D01*
X96079416Y-108790163D01*
X96210608Y-108877822D01*
X96322178Y-108989392D01*
X96409837Y-109120584D01*
X96409838Y-109120586D01*
X96470219Y-109266358D01*
X96501000Y-109421107D01*
X96501000Y-109578893D01*
X96470219Y-109733642D01*
X96409838Y-109879414D01*
X96409837Y-109879416D01*
X96322178Y-110010608D01*
X96210608Y-110122178D01*
X96079416Y-110209837D01*
X96079415Y-110209838D01*
X96079414Y-110209838D01*
X95933642Y-110270219D01*
X95778893Y-110301000D01*
X95621107Y-110301000D01*
X95466358Y-110270219D01*
X95320586Y-110209838D01*
X95320585Y-110209838D01*
X95320584Y-110209837D01*
X95189392Y-110122178D01*
X95077822Y-110010608D01*
X94990163Y-109879416D01*
X94990162Y-109879414D01*
X94929781Y-109733642D01*
X94899000Y-109578893D01*
X94899000Y-109421107D01*
X94929781Y-109266358D01*
X94990162Y-109120586D01*
X94990163Y-109120584D01*
X95077822Y-108989392D01*
X95189392Y-108877822D01*
X95320584Y-108790163D01*
X95320586Y-108790162D01*
X95466358Y-108729781D01*
X95621107Y-108699000D01*
X95778893Y-108699000D01*
X95933642Y-108729781D01*
X95933642Y-108729781D01*
G37*
G36*
X95933642Y-103849781D02*
G01*
X96079414Y-103910162D01*
X96079416Y-103910163D01*
X96210608Y-103997822D01*
X96322178Y-104109392D01*
X96409837Y-104240584D01*
X96409838Y-104240586D01*
X96470219Y-104386358D01*
X96501000Y-104541107D01*
X96501000Y-104698893D01*
X96470219Y-104853642D01*
X96409838Y-104999414D01*
X96409837Y-104999416D01*
X96322178Y-105130608D01*
X96210608Y-105242178D01*
X96079416Y-105329837D01*
X96079415Y-105329838D01*
X96079414Y-105329838D01*
X95933642Y-105390219D01*
X95778893Y-105421000D01*
X95621107Y-105421000D01*
X95466358Y-105390219D01*
X95320586Y-105329838D01*
X95320585Y-105329838D01*
X95320584Y-105329837D01*
X95189392Y-105242178D01*
X95077822Y-105130608D01*
X94990163Y-104999416D01*
X94990162Y-104999414D01*
X94929781Y-104853642D01*
X94899000Y-104698893D01*
X94899000Y-104541107D01*
X94929781Y-104386358D01*
X94990162Y-104240586D01*
X94990163Y-104240584D01*
X95077822Y-104109392D01*
X95189392Y-103997822D01*
X95320584Y-103910163D01*
X95320586Y-103910162D01*
X95466358Y-103849781D01*
X95621107Y-103819000D01*
X95778893Y-103819000D01*
X95933642Y-103849781D01*
X95933642Y-103849781D01*
G37*
G36*
X109706416Y-88789879D02*
G01*
X109897592Y-88869067D01*
X109897594Y-88869068D01*
X110069648Y-88984031D01*
X110215969Y-89130352D01*
X110330933Y-89302408D01*
X110410121Y-89493584D01*
X110450490Y-89696534D01*
X110450490Y-89903466D01*
X110410121Y-90106416D01*
X110330933Y-90297592D01*
X110330932Y-90297594D01*
X110215969Y-90469648D01*
X110069648Y-90615969D01*
X109897594Y-90730932D01*
X109897593Y-90730933D01*
X109897592Y-90730933D01*
X109706416Y-90810121D01*
X109503466Y-90850490D01*
X109296534Y-90850490D01*
X109093584Y-90810121D01*
X108902408Y-90730933D01*
X108902407Y-90730933D01*
X108902406Y-90730932D01*
X108730352Y-90615969D01*
X108584031Y-90469648D01*
X108469068Y-90297594D01*
X108469067Y-90297592D01*
X108389879Y-90106416D01*
X108349510Y-89903466D01*
X108349510Y-89696534D01*
X108389879Y-89493584D01*
X108469067Y-89302408D01*
X108584031Y-89130352D01*
X108730352Y-88984031D01*
X108902406Y-88869068D01*
X108902408Y-88869067D01*
X109093584Y-88789879D01*
X109296534Y-88749510D01*
X109503466Y-88749510D01*
X109706416Y-88789879D01*
X109706416Y-88789879D01*
G37*
G36*
X116071304Y-75187002D02*
G01*
X116490139Y-75360489D01*
X116490141Y-75360490D01*
X116674710Y-75483815D01*
X116867082Y-75612354D01*
X117187646Y-75932918D01*
X117312723Y-76120109D01*
X117400182Y-76251000D01*
X117439511Y-76309861D01*
X117612998Y-76728696D01*
X117701440Y-77173327D01*
X117701440Y-77626673D01*
X117612998Y-78071304D01*
X117439511Y-78490139D01*
X117439510Y-78490141D01*
X117187645Y-78867083D01*
X116867083Y-79187645D01*
X116490141Y-79439510D01*
X116490140Y-79439511D01*
X116490139Y-79439511D01*
X116071304Y-79612998D01*
X115626673Y-79701440D01*
X115173327Y-79701440D01*
X114728696Y-79612998D01*
X114309861Y-79439511D01*
X114309860Y-79439511D01*
X114309859Y-79439510D01*
X113932917Y-79187645D01*
X113612355Y-78867083D01*
X113360490Y-78490141D01*
X113360489Y-78490139D01*
X113187002Y-78071304D01*
X113098560Y-77626673D01*
X113098560Y-77173327D01*
X113187002Y-76728696D01*
X113360489Y-76309861D01*
X113399819Y-76251000D01*
X113487277Y-76120109D01*
X113612354Y-75932918D01*
X113932918Y-75612354D01*
X114125290Y-75483815D01*
X114309859Y-75360490D01*
X114309861Y-75360489D01*
X114728696Y-75187002D01*
X115173327Y-75098560D01*
X115626673Y-75098560D01*
X116071304Y-75187002D01*
X116071304Y-75187002D01*
G37*
G36*
X79471304Y-75187002D02*
G01*
X79890139Y-75360489D01*
X79890141Y-75360490D01*
X80074710Y-75483815D01*
X80267082Y-75612354D01*
X80587646Y-75932918D01*
X80712723Y-76120109D01*
X80800182Y-76251000D01*
X80839511Y-76309861D01*
X81012998Y-76728696D01*
X81101440Y-77173327D01*
X81101440Y-77626673D01*
X81012998Y-78071304D01*
X80839511Y-78490139D01*
X80839510Y-78490141D01*
X80587645Y-78867083D01*
X80267083Y-79187645D01*
X79890141Y-79439510D01*
X79890140Y-79439511D01*
X79890139Y-79439511D01*
X79471304Y-79612998D01*
X79026673Y-79701440D01*
X78573327Y-79701440D01*
X78128696Y-79612998D01*
X77709861Y-79439511D01*
X77709860Y-79439511D01*
X77709859Y-79439510D01*
X77332917Y-79187645D01*
X77012355Y-78867083D01*
X76760490Y-78490141D01*
X76760489Y-78490139D01*
X76587002Y-78071304D01*
X76498560Y-77626673D01*
X76498560Y-77173327D01*
X76587002Y-76728696D01*
X76760489Y-76309861D01*
X76799819Y-76251000D01*
X76887277Y-76120109D01*
X77012354Y-75932918D01*
X77332918Y-75612354D01*
X77525290Y-75483815D01*
X77709859Y-75360490D01*
X77709861Y-75360489D01*
X78128696Y-75187002D01*
X78573327Y-75098560D01*
X79026673Y-75098560D01*
X79471304Y-75187002D01*
X79471304Y-75187002D01*
G37*
G36*
X93148228Y-74581703D02*
G01*
X93303100Y-74645853D01*
X93442481Y-74738985D01*
X93561015Y-74857519D01*
X93654147Y-74996900D01*
X93718297Y-75151772D01*
X93751000Y-75316184D01*
X93751000Y-75483816D01*
X93718297Y-75648228D01*
X93654147Y-75803100D01*
X93561015Y-75942481D01*
X93442481Y-76061015D01*
X93303100Y-76154147D01*
X93148228Y-76218297D01*
X92983816Y-76251000D01*
X92816184Y-76251000D01*
X92651772Y-76218297D01*
X92496900Y-76154147D01*
X92357519Y-76061015D01*
X92238985Y-75942481D01*
X92145853Y-75803100D01*
X92081703Y-75648228D01*
X92049000Y-75483816D01*
X92049000Y-75316184D01*
X92081703Y-75151772D01*
X92145853Y-74996900D01*
X92238985Y-74857519D01*
X92357519Y-74738985D01*
X92496900Y-74645853D01*
X92651772Y-74581703D01*
X92816184Y-74549000D01*
X92983816Y-74549000D01*
X93148228Y-74581703D01*
X93148228Y-74581703D01*
G37*
G36*
X93751000Y-73751000D02*
G01*
X92049000Y-73751000D01*
X92049000Y-72049000D01*
X93751000Y-72049000D01*
X93751000Y-73751000D01*
X93751000Y-73751000D01*
G37*
G36*
X116071304Y-68187002D02*
G01*
X116490139Y-68360489D01*
X116490141Y-68360490D01*
X116679891Y-68487277D01*
X116867082Y-68612354D01*
X117187646Y-68932918D01*
X117439511Y-69309861D01*
X117612998Y-69728696D01*
X117701440Y-70173327D01*
X117701440Y-70626673D01*
X117612998Y-71071304D01*
X117439511Y-71490139D01*
X117439510Y-71490141D01*
X117187645Y-71867083D01*
X116867083Y-72187645D01*
X116490141Y-72439510D01*
X116490140Y-72439511D01*
X116490139Y-72439511D01*
X116071304Y-72612998D01*
X115626673Y-72701440D01*
X115173327Y-72701440D01*
X114728696Y-72612998D01*
X114309861Y-72439511D01*
X114309860Y-72439511D01*
X114309859Y-72439510D01*
X113932917Y-72187645D01*
X113612355Y-71867083D01*
X113360490Y-71490141D01*
X113360489Y-71490139D01*
X113187002Y-71071304D01*
X113098560Y-70626673D01*
X113098560Y-70173327D01*
X113187002Y-69728696D01*
X113360489Y-69309861D01*
X113612354Y-68932918D01*
X113932918Y-68612354D01*
X114120109Y-68487277D01*
X114309859Y-68360490D01*
X114309861Y-68360489D01*
X114728696Y-68187002D01*
X115173327Y-68098560D01*
X115626673Y-68098560D01*
X116071304Y-68187002D01*
X116071304Y-68187002D01*
G37*
G36*
X79471304Y-68187002D02*
G01*
X79890139Y-68360489D01*
X79890141Y-68360490D01*
X80079891Y-68487277D01*
X80267082Y-68612354D01*
X80587646Y-68932918D01*
X80839511Y-69309861D01*
X81012998Y-69728696D01*
X81101440Y-70173327D01*
X81101440Y-70626673D01*
X81012998Y-71071304D01*
X80839511Y-71490139D01*
X80839510Y-71490141D01*
X80587645Y-71867083D01*
X80267083Y-72187645D01*
X79890141Y-72439510D01*
X79890140Y-72439511D01*
X79890139Y-72439511D01*
X79471304Y-72612998D01*
X79026673Y-72701440D01*
X78573327Y-72701440D01*
X78128696Y-72612998D01*
X77709861Y-72439511D01*
X77709860Y-72439511D01*
X77709859Y-72439510D01*
X77332917Y-72187645D01*
X77012355Y-71867083D01*
X76760490Y-71490141D01*
X76760489Y-71490139D01*
X76587002Y-71071304D01*
X76498560Y-70626673D01*
X76498560Y-70173327D01*
X76587002Y-69728696D01*
X76760489Y-69309861D01*
X77012354Y-68932918D01*
X77332918Y-68612354D01*
X77520109Y-68487277D01*
X77709859Y-68360490D01*
X77709861Y-68360489D01*
X78128696Y-68187002D01*
X78573327Y-68098560D01*
X79026673Y-68098560D01*
X79471304Y-68187002D01*
X79471304Y-68187002D01*
G37*
G36*
X103676719Y-66363520D02*
G01*
X103865880Y-66420901D01*
X103865883Y-66420902D01*
X103958333Y-66470318D01*
X104040212Y-66514083D01*
X104193015Y-66639485D01*
X104318417Y-66792288D01*
X104411599Y-66966619D01*
X104468980Y-67155780D01*
X104483500Y-67303206D01*
X104483500Y-67496793D01*
X104468980Y-67644219D01*
X104411599Y-67833380D01*
X104411598Y-67833383D01*
X104362182Y-67925833D01*
X104318417Y-68007712D01*
X104193015Y-68160515D01*
X104040212Y-68285917D01*
X103865881Y-68379099D01*
X103676720Y-68436480D01*
X103480000Y-68455855D01*
X103283281Y-68436480D01*
X103094120Y-68379099D01*
X102919788Y-68285917D01*
X102766985Y-68160515D01*
X102641583Y-68007712D01*
X102548401Y-67833381D01*
X102491020Y-67644220D01*
X102476500Y-67496794D01*
X102476500Y-67303207D01*
X102491020Y-67155781D01*
X102548401Y-66966620D01*
X102548402Y-66966617D01*
X102597818Y-66874167D01*
X102641583Y-66792288D01*
X102766985Y-66639485D01*
X102919788Y-66514083D01*
X103094119Y-66420901D01*
X103283280Y-66363520D01*
X103480000Y-66344145D01*
X103676719Y-66363520D01*
X103676719Y-66363520D01*
G37*
G36*
X101136719Y-66363520D02*
G01*
X101325880Y-66420901D01*
X101325883Y-66420902D01*
X101418333Y-66470318D01*
X101500212Y-66514083D01*
X101653015Y-66639485D01*
X101778417Y-66792288D01*
X101871599Y-66966619D01*
X101928980Y-67155780D01*
X101943500Y-67303206D01*
X101943500Y-67496793D01*
X101928980Y-67644219D01*
X101871599Y-67833380D01*
X101871598Y-67833383D01*
X101822182Y-67925833D01*
X101778417Y-68007712D01*
X101653015Y-68160515D01*
X101500212Y-68285917D01*
X101325881Y-68379099D01*
X101136720Y-68436480D01*
X100940000Y-68455855D01*
X100743281Y-68436480D01*
X100554120Y-68379099D01*
X100379788Y-68285917D01*
X100226985Y-68160515D01*
X100101583Y-68007712D01*
X100008401Y-67833381D01*
X99951020Y-67644220D01*
X99936500Y-67496794D01*
X99936500Y-67303207D01*
X99951020Y-67155781D01*
X100008401Y-66966620D01*
X100008402Y-66966617D01*
X100057818Y-66874167D01*
X100101583Y-66792288D01*
X100226985Y-66639485D01*
X100379788Y-66514083D01*
X100554119Y-66420901D01*
X100743280Y-66363520D01*
X100940000Y-66344145D01*
X101136719Y-66363520D01*
X101136719Y-66363520D01*
G37*
G36*
X99403500Y-68451000D02*
G01*
X97396500Y-68451000D01*
X97396500Y-66349000D01*
X99403500Y-66349000D01*
X99403500Y-68451000D01*
X99403500Y-68451000D01*
G37*
M02*
