M48
INCH,TZ
T1C0.0197
T2C0.0315
T3C0.0315
T4C0.0394
T5C0.0433
T6C0.0787
T7C0.1181
%
G90
G05
T1
X30827Y-37008
X30866Y-32835
X31102Y-41890
X31555Y-33819
X32392Y-39304
X32564Y-38841
X32719Y-41514
X32736Y-35098
X32751Y-41022
X32756Y-43858
X32795Y-42480
X32912Y-41969
X33071Y-35984
X33113Y-39134
X33244Y-41004
X33386Y-33110
X33605Y-42544
X33612Y-39128
X33937Y-40551
X34094Y-47087
X34105Y-39115
X34173Y-42500
X34446Y-41126
X34685Y-37559
X35095Y-39821
X35098Y-35591
X35236Y-38976
X35315Y-43110
X35394Y-33917
X35394Y-35039
X35564Y-39670
X35827Y-45551
X35906Y-37717
X36063Y-31693
X36575Y-39173
X36673Y-33819
X36929Y-40945
X37283Y-45591
X37559Y-30079
X37953Y-38898
X38307Y-45669
X38346Y-33917
X39134Y-30079
X39213Y-35394
X39528Y-32362
X39528Y-37717
X40000Y-36772
X40000Y-45472
X40236Y-40984
X40315Y-42520
X40807Y-33917
X40906Y-30177
X41181Y-39291
X41299Y-35039
X41654Y-38740
X41689Y-31606
X42047Y-35039
X42283Y-32736
X42874Y-36417
X43622Y-36772
X44217Y-47091
X44350Y-34114
X44646Y-38642
X44646Y-40709
X44843Y-32087
X44843Y-33228
X45217Y-44508
T2
X36575Y-28701
X36575Y-29685
X37677Y-41189
X37677Y-43110
T3
X43071Y-35354
T4
X30748Y-46339
X31748Y-46339
X32748Y-46339
X33748Y-46339
X34748Y-46339
X35748Y-46339
X36748Y-46339
X37748Y-46339
X38748Y-46339
X39748Y-46339
X40748Y-46339
X41748Y-46339
X42748Y-46339
X43748Y-46339
X44748Y-46339
X45748Y-46339
X42205Y-47953
X43205Y-47953
X44205Y-47953
X45205Y-47953
X37087Y-47953
X38087Y-47953
X39087Y-47953
X40087Y-47953
X30748Y-47953
X31748Y-47953
X32748Y-47953
X33748Y-47953
X34748Y-47953
T5
X38740Y-26535
X39740Y-26535
X40740Y-26535
T6
X45433Y-30472
X31024Y-27717
X31024Y-30472
X45433Y-27717
T7
X28346Y-26378
X28346Y-47244
X48031Y-26378
X48031Y-47244
T0
M30
